<svg xmlns="http://www.w3.org/2000/svg" width="663.919" height="288.068" viewBox="0 0 663.919 288.068">
  <g id="_29476_Convertido_-01" data-name="29476 [Convertido]-01" transform="translate(-52.63 -133.498)">
    <g id="Layer_1" data-name="Layer 1" transform="translate(52.63 130.34)">
      <ellipse id="Elipse_6300" data-name="Elipse 6300" cx="195.963" cy="9.772" rx="195.963" ry="9.772" transform="translate(232.838 271.681)" fill="#dfe5ea"/>
      <path id="Trazado_187583" data-name="Trazado 187583" d="M263.646,354.671c0,2.912-47.232,5.261-105.508,5.261S52.63,357.583,52.63,354.671s47.232-5.261,105.508-5.261S263.646,351.768,263.646,354.671Z" transform="translate(-52.63 -124.766)" fill="#dfe5ea"/>
      <rect id="Rectángulo_38738" data-name="Rectángulo 38738" width="36.106" height="24.426" rx="1.6" transform="translate(150.064 22.662)" fill="#7270f5"/>
      <rect id="Rectángulo_38739" data-name="Rectángulo 38739" width="32.814" height="20.529" transform="translate(151.704 24.611)" fill="#fed44e"/>
      <path id="Trazado_187584" data-name="Trazado 187584" d="M213.29,160.19v10.06l9.793-5.035Z" transform="translate(-48.542 -129.58)" fill="#7270f5"/>
      <path id="Trazado_187585" data-name="Trazado 187585" d="M396.63,255.85l4.943,71.32,54.451,3.394L454.506,257.8Z" transform="translate(-43.877 -127.146)" fill="#a1adc6"/>
      <path id="Trazado_187586" data-name="Trazado 187586" d="M449.964,254.071c-4.4-1.323-14.449,38.382-12.88,44.761,1.077,4.368,38.116,2.789,38.116,2.789l.39-7.629s-23.5-2.656-23.38-4.584,6.942-14.623,6.942-14.623S454.435,255.414,449.964,254.071Z" transform="translate(-42.852 -127.192)" fill="#fed44e"/>
      <path id="Trazado_187587" data-name="Trazado 187587" d="M432.935,231.23l-9.978,1.559s2.81,8.87-1.5,16.407c0,0,7.178,7.773,12.182,5.722,5.343-2.194,3.353-7.6,3.353-7.6S431.55,243.033,432.935,231.23Z" transform="translate(-43.245 -127.773)" fill="#f38b00"/>
      <path id="Trazado_187588" data-name="Trazado 187588" d="M421.443,216.315s15.556-1.784,16.633.831,1.313,9.988,2.318,11.536,2.83,3.415,2.153,4.42-1.436.759-1.866,1.887-.267,7.5-2.317,8.439-12.531.39-16.325-5.578S413.916,216.868,421.443,216.315Z" transform="translate(-43.351 -128.167)" fill="#ffae02"/>
      <path id="Trazado_187589" data-name="Trazado 187589" d="M417.622,217.742l10.316,4.768a23.215,23.215,0,0,0,2.646,11.28s-.923,1.425-1.9.615a3.743,3.743,0,0,1-1.825-2.728c-.236-1.5-1.128-5.517-3.835-3.538s.154,4.338,1.528,4.922c0,0,2.184,7.834-1.969,7.27,0,0-3.835-2.43-7.178-11.834S415.028,215.968,417.622,217.742Z" transform="translate(-43.437 -128.128)" fill="#002164"/>
      <path id="Trazado_187590" data-name="Trazado 187590" d="M442.64,214.5s3.692,5.3-4.881,8.85-20.9-5.794-20.9-5.794.308-4.656,7.178-6.645c5.127-1.487,9.9-1.282,12.51,1.682C440.9,217.619,442.64,214.5,442.64,214.5Z" transform="translate(-43.362 -128.313)" fill="#002164"/>
      <rect id="Rectángulo_38740" data-name="Rectángulo 38740" width="2.974" height="78.354" transform="translate(362.403 207.242)" fill="#8494b4"/>
      <rect id="Rectángulo_38741" data-name="Rectángulo 38741" width="2.974" height="78.354" transform="translate(417.469 207.242)" fill="#8494b4"/>
      <rect id="Rectángulo_38742" data-name="Rectángulo 38742" width="74.006" height="10.254" transform="translate(354.425 200.023)" fill="#1e3b76"/>
      <path id="Trazado_187591" data-name="Trazado 187591" d="M422.9,246.23s-13.926,3.876-14.5,4.225c0,0,1.538,20.14,1.313,25.564s-2.42,28.641-2.42,28.641h43.263s-.513-23.585-.287-28.815c0,0-1.384-17.535.451-21.534,0,0-9.1-5.691-13.331-7.3,0,0,.062,5.712-2.974,7.27S422.9,246.23,422.9,246.23Z" transform="translate(-43.606 -127.391)" fill="#fed44e"/>
      <path id="Trazado_187592" data-name="Trazado 187592" d="M450.266,275.645s-.1-2.41-.154-5.671a51.885,51.885,0,0,1-3.076,8.45c-2.83,5.835-9.814,13.905-17.238,13.044s-13.4-7.486-15.269-14.715c-1.395-5.445-.708-11.382-2.543-16.684a21.956,21.956,0,0,0-3.281-6c.431,6.153,1.2,17.812,1.025,21.75-.236,5.425-2.42,28.641-2.42,28.641h43.264S450.061,280.844,450.266,275.645Z" transform="translate(-43.605 -127.192)" fill="#ffc104"/>
      <path id="Trazado_187593" data-name="Trazado 187593" d="M448.982,299.592l-9.824-16.653s-2.348-1.384-2.358,1.477l11.341,15.833S450.756,303.519,448.982,299.592Z" transform="translate(-42.855 -126.466)"/>
      <path id="Trazado_187594" data-name="Trazado 187594" d="M445.389,295.094c-.759-1.025-1.661-2.84-3.271-3.661s-8.819,2.112-9.321,2.246c-.267.062-4.83,1.436-5.773,1.128a41.735,41.735,0,0,1-.954,4.953c1.682.625,7.1-.42,7.773-.523a5.2,5.2,0,0,1,3.743,1.025c1.128.8,2.215,1.477,3.015,1.313s-.051-1.138-.5-1.671h0c2.051,2.43,3.076,2.051,3.456,1.559s-2.184-2.923-2.441-3.24-2.523-2.051-2.523-2.051a10.347,10.347,0,0,1,2.9,2.051c.246.267,2.953,4.368,3.876,3.076s-1.333-3.353-2.235-4.656a10.255,10.255,0,0,0-3-2.441c1.1-.144,2.984,1.928,3.61,2.656s2.276,4.174,3.579,3.3S446.148,296.181,445.389,295.094Zm-5.5,4.615a20.973,20.973,0,0,0-2.153-1.61,11.715,11.715,0,0,1,2.153,1.63Z" transform="translate(-43.128 -126.245)" fill="#ffae02"/>
      <path id="Trazado_187595" data-name="Trazado 187595" d="M444.56,292.18s2.676,1.025,3.138,2.215-.267,1.907-.9,1.63Z" transform="translate(-42.657 -126.222)" fill="#ffae02"/>
      <path id="Trazado_187596" data-name="Trazado 187596" d="M408.847,250.35s-4.573,3.2-6.727,7.26-13.915,34.937-12.357,41.315c1.077,4.368,38.126,2.789,38.126,2.789l.39-7.629s-23.5-2.656-23.39-4.584,6.953-14.623,6.953-14.623S415.564,259.22,408.847,250.35Z" transform="translate(-44.055 -127.286)" fill="#fed44e"/>
      <path id="Trazado_187597" data-name="Trazado 187597" d="M466.938,396.62s12.4,3.333,17.535,4.984c4.266,1.364,3.712,5.189-.851,6.973s-8.511,1.179-9.7-.215-3.774-.636-4.727-.072-9.834-.656-10.429-2.43.246-8.85.246-8.85Z" transform="translate(-42.301 -123.564)"/>
      <path id="Trazado_187598" data-name="Trazado 187598" d="M447.392,397.476s12.09,4.358,17.063,6.419c4.1,1.713,3.281,5.486-1.425,6.881s-8.573.472-9.649-1.025-3.7-.943-4.7-.461-9.752-1.466-10.193-3.281,1.866-10.367,1.866-10.367Z" transform="translate(-42.813 -123.589)"/>
      <path id="Trazado_187599" data-name="Trazado 187599" d="M474.905,327.491c-1.364-5.076-26.662-20.417-28.712-25.041H425.786a33.2,33.2,0,0,0-5.4,15.618c-1.292,12.962,10.685,8.521,22.56,8.952S459.636,334.8,459.985,338s-1.8,62.07-1.8,62.07l16.12-.092S475.726,330.516,474.905,327.491Z" transform="translate(-43.275 -125.961)" fill="#7270f5"/>
      <path id="Trazado_187600" data-name="Trazado 187600" d="M463.42,400.031s5.353-70.274,4.1-72.089c-3.681-5.6-21.534-18.745-27.687-24.847L425.8,302.45a33.2,33.2,0,0,0-5.4,15.618c-1.292,12.962,10.685,8.521,22.56,8.952S459.636,334.8,459.985,338s-1.8,62.07-1.8,62.07Z" transform="translate(-43.275 -125.961)" fill="#353b9a"/>
      <path id="Trazado_187601" data-name="Trazado 187601" d="M464.991,329.163c-.954-4.461-27.318-20.058-32.814-26.026L410.56,301.65c-2.646,2.964-5.281,7.578-5.24,12.521.113,12.449,9.5,15.443,21.37,15.8,13.7.41,20.734,2.174,20.714,5.435s-8.439,64.408-8.439,64.408l15.976.831S465.647,332.219,464.991,329.163Z" transform="translate(-43.656 -125.981)" fill="#7270f5"/>
      <path id="Trazado_187602" data-name="Trazado 187602" d="M575,233.818a97.043,97.043,0,0,0,4.994-9.475c1.323-3.322,6.645-14.828,8.337-13.628s-3.076,10.87-3.076,10.87,4.2-12.09,6.481-11.423-3.886,11.936-3.886,11.936,5.066-10.613,6.388-9.588.287,3.384-4.1,11.28c0,0,3.712-6.747,5.127-5.127s-3.076,7.773-4.768,9.229-9.414,7.64-11.28,10.254C579.256,238.053,575.092,236.6,575,233.818Z" transform="translate(-39.338 -128.31)" fill="#ffae02"/>
      <path id="Trazado_187603" data-name="Trazado 187603" d="M582.358,225.555s5.578-3.169,7.178-1.948,0,2.512-5.794,4.379c0,0-2.051,2.594-3.343,2.789a3.876,3.876,0,0,1,1.959-5.22Z" transform="translate(-39.21 -127.974)" fill="#ffae02"/>
      <path id="Trazado_187604" data-name="Trazado 187604" d="M469.965,228.557s-2.164-4.286-2.164-5.537.625-2.6.677-4.317,2.338-5.671,1.846-6.8-1.9-.851-3.24,1.846-.9,4.368-1.989,3.6a29.408,29.408,0,0,1-4.584-5.486c-.861-1.395-3.558-4.1-4.276-3.692s-.923,1.169,3.856,7.916c0,0-5.414-8.122-7.014-6.655-1.107,1.025,4.184,6.973,4.943,7.916,0,0-4.891-6.153-6.358-4.7s5.373,6.481,5.373,6.481-5.035-3.989-5.712-2.82,2.256,3.763,5.127,5.384,3.62,2.051,4.348,3.076a54.678,54.678,0,0,1,2.533,5.4S467.935,231.356,469.965,228.557Z" transform="translate(-42.488 -128.361)" fill="#ffae02"/>
      <path id="Trazado_187605" data-name="Trazado 187605" d="M529.079,200.94,518.824,202.5s-.584,19.135-8.685,20.663c0,0-2.881,31.327,7.834,28.712s16.479-29.8,16.479-29.8S525.008,219.46,529.079,200.94Z" transform="translate(-40.998 -128.544)" fill="#f38b00"/>
      <path id="Trazado_187606" data-name="Trazado 187606" d="M529.895,187.067s-11.054-4.553-15.443-1.795-4.03,12.305-4.686,16.663c-1.025,6.829,1.918,13.495,3.712,14.141s15.6-3.076,17.792-13.085S532.489,188.81,529.895,187.067Z" transform="translate(-41.003 -128.965)" fill="#ffae02"/>
      <path id="Trazado_187607" data-name="Trazado 187607" d="M513.643,390.44s1.487,9.229.379,11.331-24.447,1.159-25.841-.359.923-4.153,2.143-4.758S504.2,390.5,504.2,390.5Z" transform="translate(-41.558 -123.722)"/>
      <path id="Trazado_187608" data-name="Trazado 187608" d="M542.588,390.44h-8.122s-.544,6.829,0,8.357,8.2,11,12.172,11c2.164,0,4.83,0,5.25-1.907.349-1.6-1.241-4.984-2.543-6.8C546.464,397.167,542.588,390.44,542.588,390.44Z" transform="translate(-40.376 -123.722)"/>
      <path id="Trazado_187609" data-name="Trazado 187609" d="M528.018,204.571s-3.958,2.194-6.522,2.379-4.1-2.861-7.742-2.051-4.1.9-4.1.9-1.907,12.931,2.964,12.562,13.167-5.486,16.1-8.962a6.4,6.4,0,0,0,4.994-2.984c1.948-2.984,4.573-12.254,2.861-17.853s-9.229-7.8-12.428-5.189a10.552,10.552,0,0,0-7.014-1.764c-4.594.246-5.537,2.676-7.5,4.1s-3.856,1.466-4.5.205c0,0-1.384,2.317,1.1,6.3s5.332,3.374,9.229,2.482,8.655-4.717,8.655-4.717-.205,7.968,1.784,10.89c0,0,.738.328,1.025,0s.082-4.471,2.318-3.538S530.017,202.982,528.018,204.571Z" transform="translate(-41.126 -129.037)" fill="#002164"/>
      <path id="Trazado_187610" data-name="Trazado 187610" d="M512.7,207.72a12.305,12.305,0,0,0,6.1.287s-1.8,2.369-3.784,2.051A2.584,2.584,0,0,1,512.7,207.72Z" transform="translate(-40.923 -128.371)" fill="#fff"/>
      <path id="Trazado_187611" data-name="Trazado 187611" d="M531.339,218.75l-9.485,5.127-7.363-4.42a67.209,67.209,0,0,0-2.676,24.047c1.077,12.787,3.148,21.965,11.793,10.08S535.461,222.893,531.339,218.75Z" transform="translate(-40.95 -128.09)" fill="#fff"/>
      <path id="Trazado_187612" data-name="Trazado 187612" d="M531.339,218.75l-9.485,5.127-7.363-4.42a67.209,67.209,0,0,0-2.676,24.047c1.077,12.787,3.148,21.965,11.793,10.08S535.461,222.893,531.339,218.75Z" transform="translate(-40.95 -128.09)" fill="#8494b4"/>
      <path id="Trazado_187613" data-name="Trazado 187613" d="M520.022,229.731s-5.127,27.554-4.666,28.087c.277-.349,3.384,7.475,5.127,0,1.395-5.814,1.569-27.451,1.784-27.687,0,0,2.666-2.861,4.215-4.266,1.025-.923,2-1.877,2.953-2.851.246-.451.492-.913.7-1.395l-.41,1.025a23.754,23.754,0,0,1,2.051-3.21,3.279,3.279,0,0,0-.482-.615l-9.485,5.127-7.363-4.42s-.226.656-.533,1.815a27.728,27.728,0,0,1,2.051,3.22C516.75,225.834,520.022,229.731,520.022,229.731Z" transform="translate(-40.893 -128.089)" fill="#1d3b66"/>
      <path id="Trazado_187614" data-name="Trazado 187614" d="M500.941,268.783l29.082-.543s4.43,7.25,5.414,28.169c.677,14.356,1.261,18.294,2.687,37.234.964,12.859,5.527,62.132,5.527,62.132H528.2s-6.542-56.225-6.881-59.291c-.113-1.077-3.938-30.815-3.938-30.815S518,332.6,518,335.735s.677,58.45.677,58.45H502.4s-1.825-47.037-1.989-57.8C500.161,318.948,498.675,274.413,500.941,268.783Z" transform="translate(-41.254 -126.831)" fill="#002152"/>
      <path id="Trazado_187615" data-name="Trazado 187615" d="M514.884,219.44s-10.254,1.979-14.2,3.292c0,0,1.261,23.585-2.7,29.574l-1.8,51.5s22.416-.267,23.144-28.179.667-29.164.667-29.164Z" transform="translate(-41.344 -128.073)" fill="#1d3b66"/>
      <path id="Trazado_187616" data-name="Trazado 187616" d="M517.553,248.952a.862.862,0,1,1-.241-.619.862.862,0,0,1,.241.619Z" transform="translate(-40.844 -127.344)" fill="#002152"/>
      <path id="Trazado_187617" data-name="Trazado 187617" d="M517.043,257.192a.861.861,0,1,1-.841-.872A.862.862,0,0,1,517.043,257.192Z" transform="translate(-40.857 -127.134)" fill="#002152"/>
      <path id="Trazado_187618" data-name="Trazado 187618" d="M516.483,265.442a.872.872,0,0,1-.882.841.861.861,0,0,1,0-1.723.872.872,0,0,1,.882.882Z" transform="translate(-40.872 -126.925)" fill="#002152"/>
      <path id="Trazado_187619" data-name="Trazado 187619" d="M515.943,273.682a.861.861,0,1,1-.841-.872.861.861,0,0,1,.841.872Z" transform="translate(-40.885 -126.715)" fill="#002152"/>
      <path id="Trazado_187620" data-name="Trazado 187620" d="M545.142,225.282l-13.967-6.532-11.741,27.687-1.364,32.476s-.841,28.384,23.472,24.867l-2.01-52.2S539.379,232.45,545.142,225.282Z" transform="translate(-40.787 -128.09)" fill="#1d3b66"/>
      <path id="Trazado_187621" data-name="Trazado 187621" d="M583.68,236.677l-8.46-6.153s-15.71,24.764-16.571,24.016-8.368-26.764-14.038-29.42c0,0-2.871,2.051-4.5,8.05-1.159,4.245-1.323,11.085-1.077,17.832,0,0,14.756,21.873,19.976,21.145S583.68,236.677,583.68,236.677Z" transform="translate(-40.256 -127.928)" fill="#1d3b66"/>
      <path id="Trazado_187622" data-name="Trazado 187622" d="M470.148,225.183,460.57,229s13.116,47.4,20.673,43.233,17.607-18.919,17.607-18.919a34.958,34.958,0,0,0,3.886-11.793c.974-6.337.379-15.013-1.148-18.868,0,0-6.655,4.05-12.244,15.2s-7.281,14.356-7.783,13.638S470.148,225.183,470.148,225.183Z" transform="translate(-42.25 -127.991)" fill="#1d3b66"/>
      <path id="Trazado_187623" data-name="Trazado 187623" d="M521.792,223.223l-6.583-5.025-1.138,2.512,2.092,7.988,5.63-4.215,5.076,4.738,4.84-10.408-1.62-2.574Z" transform="translate(-40.889 -128.154)" fill="#fff"/>
      <rect id="Rectángulo_38743" data-name="Rectángulo 38743" width="49.324" height="3.005" transform="translate(410.691 172.039)" fill="#919191"/>
      <rect id="Rectángulo_38744" data-name="Rectángulo 38744" width="56.482" height="40.761" rx="2.87" transform="translate(407.112 132.775)" fill="#8494b4"/>
      <path id="Trazado_187624" data-name="Trazado 187624" d="M451.255,297.638V262.773a2.953,2.953,0,0,1,2.943-2.943h-2.6a2.953,2.953,0,0,0-2.943,2.943v34.865a2.943,2.943,0,0,0,2.943,2.943h2.6A2.943,2.943,0,0,1,451.255,297.638Z" transform="translate(-42.553 -127.045)" fill="#919191"/>
      <path id="Trazado_187625" data-name="Trazado 187625" d="M480.081,279.77a2.83,2.83,0,1,1-.825-2.008A2.83,2.83,0,0,1,480.081,279.77Z" transform="translate(-41.897 -126.61)" fill="#e0e0e0"/>
      <rect id="Rectángulo_38745" data-name="Rectángulo 38745" width="37.152" height="5.312" transform="translate(491.168 169.732)" fill="#002164"/>
      <path id="Trazado_187626" data-name="Trazado 187626" d="M521.82,262.247l12.039,37.326,1.877-.687L523.7,261.55Z" transform="translate(-40.691 -127.001)" fill="#002164"/>
      <path id="Trazado_187627" data-name="Trazado 187627" d="M587.207,389.675s-9.9,4.871-15.2,7.065c-4.409,1.825-3.5,5.845,1.518,7.322s9.137.513,10.254-1.077,3.938-1.025,5-.482,9.414-1.425,9.885-3.353-1.6-10.47-1.6-10.47Z" transform="translate(-39.486 -123.767)"/>
      <path id="Trazado_187628" data-name="Trazado 187628" d="M638.6,300.07l-16.807.226s-41.131,15.382-46.5,19.371,8.829,74.253,8.829,74.253l13.956-1.456s-3.292-62.839-.605-65.526,46.227-6.665,48.965-7.486S645.338,309,638.6,300.07Z" transform="translate(-39.362 -126.021)" fill="#9070cf"/>
      <path id="Trazado_187629" data-name="Trazado 187629" d="M638.6,300.07l-16.807.226s-41.131,15.382-46.5,19.371,8.829,74.253,8.829,74.253l13.956-1.456s-3.292-62.839-.605-65.526,46.227-6.665,48.965-7.486S645.338,309,638.6,300.07Z" transform="translate(-39.362 -126.021)" fill="#6d43af"/>
      <path id="Trazado_187630" data-name="Trazado 187630" d="M670.909,263.579l-17.074,68.264-7.065-1.764,14.684-68.859Z" transform="translate(-37.512 -127.01)" fill="#a1adc6"/>
      <rect id="Rectángulo_38746" data-name="Rectángulo 38746" width="2.83" height="74.509" transform="translate(555.484 206.822)" fill="#8494b4"/>
      <rect id="Rectángulo_38747" data-name="Rectángulo 38747" width="2.83" height="74.509" transform="translate(607.843 206.822)" fill="#8494b4"/>
      <rect id="Rectángulo_38748" data-name="Rectángulo 38748" width="70.366" height="9.752" transform="translate(547.895 199.962)" fill="#1e3b76"/>
      <path id="Trazado_187631" data-name="Trazado 187631" d="M632.919,230.25,623.27,232.3s2.779,11.864,0,18.458c0,0,5.261,2.051,14.12-4.655C637.349,246.062,631.935,241.448,632.919,230.25Z" transform="translate(-38.11 -127.798)" fill="#f38b00"/>
      <path id="Trazado_187632" data-name="Trazado 187632" d="M634.737,216.892s-10.736-4.04-13.608-2.564-6.378,3.651-5.835,5.835.954,8.614.246,10.634-1.9,3.415-1.61,4.1,1.979.144,2.451,1.025,2.974,6.522,4.43,7.332,9.783-2.112,13.638-11.157S637.127,218.43,634.737,216.892Z" transform="translate(-38.349 -128.211)" fill="#ffae02"/>
      <path id="Trazado_187633" data-name="Trazado 187633" d="M575.524,390.7s-12.91,4.512-18.232,6.655c-4.43,1.774-3.558,5.8,1.436,7.332s9.137.605,10.254-.974,3.958-.964,5.014-.441,9.434-1.323,9.916-3.251-.7-7.588-.7-7.588Z" transform="translate(-39.862 -123.715)"/>
      <path id="Trazado_187634" data-name="Trazado 187634" d="M628.431,213.731s3.671-4.1,7.814-1.692,2.523,6.153,3.384,7.875c2.051,3.886,1.692,7.178-.328,10.716-2.246,3.968-.892,6.532-4.615,6.942s-4.85-.677-4.85-.677a14.357,14.357,0,0,0,1.456-5.835s3.189-1.774,2.758-4.532-3.815-3.076-4.707-.277.7,4.789-1.395,6.153c0,0-1.251.349-1.251-2.8a30.078,30.078,0,0,1,.584-5.8s-7.537,4-13.331,0-1.795-10.254,2.42-11.731a13.854,13.854,0,0,1,12.059,1.661Z" transform="translate(-38.421 -128.28)" fill="#002164"/>
      <path id="Trazado_187635" data-name="Trazado 187635" d="M643.4,297.64l-18.776,3.743s-42.658,15.382-48.032,19.483-6.337,73.155-6.337,73.155l14.008,1.354s5.989-65.711,9.229-67.679c2.83-1.651,48.719-1.651,51.59-1.651C649.25,326.045,652.809,307.146,643.4,297.64Z" transform="translate(-39.459 -126.083)" fill="#9070cf"/>
      <path id="Trazado_187636" data-name="Trazado 187636" d="M566.108,293s-2.83.338-3.435.338-8.368-4.717-9.229-4.1-8.85,6.337-8.624,7.475,2.451.482,6.706-3.21c0,0-5.66,4.1-4.584,5.127s6.009-3.589,6.009-3.589-5.127,3.9-3.9,4.8,5.691-3.763,5.691-3.763-3.528,3.486-3.076,4.1,2.687-.379,5.127-2.717c0,0,.441-.246,1.723.492s9.147-.564,9.147-.564Z" transform="translate(-40.106 -126.298)" fill="#ffae02"/>
      <path id="Trazado_187637" data-name="Trazado 187637" d="M563.62,291.717l2.4,9s38.844-8.778,42.782-11.69,27.451-28.384,24-35.48-7.927-5.353-10.736-1.323-16.243,21.227-18.161,23.237S563.62,291.717,563.62,291.717Z" transform="translate(-39.628 -127.328)" fill="#7ae5c9"/>
      <path id="Trazado_187638" data-name="Trazado 187638" d="M570.415,297.095s-2.974.338-3.61.338-8.788-4.717-9.68-4.1-9.291,6.337-9.055,7.476,2.574.482,7.045-3.21c0,0-5.937,4.1-4.82,5.127s6.317-3.589,6.317-3.589-5.343,3.9-4.1,4.8,5.978-3.763,5.978-3.763-3.7,3.487-3.21,4.1,2.83-.39,5.384-2.728c0,0,.472-.246,1.8.492s9.608-.564,9.608-.564Z" transform="translate(-40.024 -126.194)" fill="#ffae02"/>
      <path id="Trazado_187639" data-name="Trazado 187639" d="M636.892,245s-8.7,4.409-13.608,4.1c0,0-7.968,16.735-8.5,21.206s.9,33.686.9,33.686,19.268,4.184,30.63-1.538c0,0-3.076-19.073-1.8-28.559S644.746,252.045,636.892,245Z" transform="translate(-38.329 -127.422)" fill="#7ae5c9"/>
      <path id="Trazado_187640" data-name="Trazado 187640" d="M633.169,275.84c1.928-4.44,9.465-11.587,5.671-16.571-3.076-4.009-5.23-4.286-8.583-.472-3.138,3.579-6.009,7.435-9.578,10.6a61.966,61.966,0,0,1-6.019,4.4c0,9.229,1.025,29.953,1.025,29.953a78.167,78.167,0,0,0,13.731,1.466C625.417,296.482,629.139,285.151,633.169,275.84Z" transform="translate(-38.329 -127.14)" fill="#006b98" opacity="0.32"/>
      <path id="Trazado_187641" data-name="Trazado 187641" d="M567.8,295.807l2.512,9s40.813-8.778,44.935-11.69,28.846-28.384,25.216-35.48-8.327-5.353-11.28-1.323-17.063,21.227-19.073,23.237S567.8,295.807,567.8,295.807Z" transform="translate(-39.521 -127.224)" fill="#7ae5c9"/>
      <path id="Trazado_187642" data-name="Trazado 187642" d="M378.71,249.744a80.8,80.8,0,0,0,3.579-8.347c.9-2.9,4.625-12.992,6.153-12.08s-1.856,9.383-1.856,9.383,2.738-10.5,4.707-10.08-2.492,10.347-2.492,10.347,3.569-9.311,4.768-8.542.461,2.851-2.7,9.783c0,0,2.7-5.948,3.989-4.707s-2.123,6.768-3.415,8.122-7.455,7.086-8.85,9.414C382.586,253.036,379.007,252.083,378.71,249.744Z" transform="translate(-44.333 -127.84)" fill="#ffae02"/>
      <path id="Trazado_187643" data-name="Trazado 187643" d="M384.4,242.247s4.5-3.076,5.9-2.123.154,2.123-4.6,4.1c0,0-1.548,2.328-2.635,2.594a3.292,3.292,0,0,1,1.343-4.573Z" transform="translate(-44.233 -127.551)" fill="#ffae02"/>
      <path id="Trazado_187644" data-name="Trazado 187644" d="M379.522,246.51s-15.976,26.856-16.807,26.662-24-7.178-31.953-13.126c-2.256-1.682-2.246,16.694,0,17.822s36,7.117,37.5,6.153,18.643-33.163,18.643-33.163Z" transform="translate(-45.596 -127.384)" fill="#7270f5"/>
      <path id="Trazado_187645" data-name="Trazado 187645" d="M370.606,278.834c-11.516,7.393-38.526-13.956-41.6-14.674-.461,5.035.287,12.51,1.764,13.259,2.256,1.118,36,7.117,37.5,6.153.39-.236,1.774-2.5,3.63-5.732a11.758,11.758,0,0,1-1.292.995Z" transform="translate(-45.601 -126.935)" fill="#353b9a"/>
      <path id="Trazado_187646" data-name="Trazado 187646" d="M331.328,248.64c-1.025-.215-5.9-10.511-7.988-12.51-1.025,7.035-5.25,23.708-5.25,23.708,5.127,5.527,15.443,2.133,15.443,2.133C331.821,258.321,331.011,251.03,331.328,248.64Z" transform="translate(-45.875 -127.648)" fill="#f38b00"/>
      <path id="Trazado_187647" data-name="Trazado 187647" d="M329.161,221.484s10,2.256,11.916,5.178,1.918,10.511,2.974,12.521c.646,1.21,1.22,2.194,1.538,2.9s-.431,1.025-1.3,1.3a1.507,1.507,0,0,0-.933.964c-.595,1.836-2.246,6.532-3.9,7.178-2.051.81-12.305.5-15.32-8.378S322.732,219.587,329.161,221.484Z" transform="translate(-45.759 -128.025)" fill="#ffae02"/>
      <path id="Trazado_187648" data-name="Trazado 187648" d="M368.189,390.547l-6.717-1.107s-.349,6.389-.9,7.845c0,0,7.537,3.61,15.269.759,0,0-4.932-2.123-6.224-3.63A7.415,7.415,0,0,1,368.189,390.547Z" transform="translate(-44.794 -123.747)" fill="#ffae02"/>
      <path id="Trazado_187649" data-name="Trazado 187649" d="M361.2,394.16a21.616,21.616,0,0,0,13.044,2.984s9.649,5.127,10.254,6.45c.872,1.815-3.353,1.928-9.947,1.713-5.63-.185-5.209-.605-6.337-1.713s-2.543-2.328-2.543-2.328-.513.7-1.1,3.907l-2.512-.359s.3-3.076-.923-4.738C360.294,398.918,359.32,396.221,361.2,394.16Z" transform="translate(-44.806 -123.627)"/>
      <path id="Trazado_187650" data-name="Trazado 187650" d="M341.823,388.944,336.7,387.56s-2.974,4.963-3.845,6.265c0,0,6.553,5.189,14.715,4.1,0,0-4.327-3.169-5.261-4.922a7.424,7.424,0,0,1-.482-4.061Z" transform="translate(-45.5 -123.795)" fill="#ffae02"/>
      <path id="Trazado_187651" data-name="Trazado 187651" d="M333.484,392.53a21.616,21.616,0,0,0,12.705,4.174s9.126,6.03,9.629,7.373c.7,1.877-3.517,1.6-10.06.779-5.589-.7-5.127-1.087-6.153-2.287s-2.307-2.553-2.307-2.553-.574.646-1.456,3.794l-2.471-.595s.585-3.076-.472-4.8C332.14,397.186,331.422,394.407,333.484,392.53Z" transform="translate(-45.518 -123.669)"/>
      <path id="Trazado_187652" data-name="Trazado 187652" d="M318.99,298.46l13.249,9.383s43,8.286,48.452,12.367-34.711,76.632-34.711,76.632l-12.5-4.1s30-64.224,27.277-66.951-46.935-6.758-49.724-7.6S312.191,307.525,318.99,298.46Z" transform="translate(-46.078 -126.062)" fill="#7ae5c9"/>
      <path id="Trazado_187653" data-name="Trazado 187653" d="M318.99,298.46l13.249,9.383s43,8.286,48.452,12.367-34.711,76.632-34.711,76.632l-12.5-4.1s30-64.224,27.277-66.951-46.935-6.758-49.724-7.6S312.191,307.525,318.99,298.46Z" transform="translate(-46.078 -126.062)" fill="#42c395"/>
      <path id="Trazado_187654" data-name="Trazado 187654" d="M314.958,302.61l17.32,1.425s44.412,11.28,49.867,15.32S374.188,396,374.188,396l-13.577-3.425s7.65-64.275,4.327-66.233c-2.871-1.671-49.467-1.671-52.38-1.671C308.364,324.667,305.391,312.239,314.958,302.61Z" transform="translate(-46.117 -125.957)" fill="#7ae5c9"/>
      <path id="Trazado_187655" data-name="Trazado 187655" d="M319.818,255.85a125.791,125.791,0,0,0,13.741,5.219s8.081,15.956,8.624,20.406,4.1,28.764,4.1,28.764-24.929,7.178-36.465,1.477c0,0,3.487-17.248,2.215-26.662S311.83,262.844,319.818,255.85Z" transform="translate(-46.086 -127.146)" fill="#7270f5"/>
      <path id="Trazado_187656" data-name="Trazado 187656" d="M322.59,282.687c0,7.988,5.127,11.9,10.439,17.053a34.578,34.578,0,0,1,7.906,11.423c2.84-.831,4.984-1.231,4.984-1.231s-1.887-13.033-3.076-21.76c-5.3-2.369-8.111-7.435-10.008-12.828-1.087-3.076-1.692-5.127-3.661-7.455-5.866.154-6.224,7.014-6.563,13.433C322.58,281.785,322.58,282.246,322.59,282.687Z" transform="translate(-45.761 -126.84)" fill="#353b9a"/>
      <path id="Trazado_187657" data-name="Trazado 187657" d="M284.35,261.41l17.34,69.31,7.178-1.795-14.91-69.915Z" transform="translate(-46.734 -127.066)" fill="#a1adc6"/>
      <rect id="Rectángulo_38749" data-name="Rectángulo 38749" width="2.871" height="75.647" transform="translate(313.858 205.674)" fill="#8494b4"/>
      <rect id="Rectángulo_38750" data-name="Rectángulo 38750" width="2.871" height="75.647" transform="translate(260.699 205.674)" fill="#8494b4"/>
      <rect id="Rectángulo_38751" data-name="Rectángulo 38751" width="71.443" height="9.896" transform="translate(252.998 198.711)" fill="#1e3b76"/>
      <path id="Trazado_187658" data-name="Trazado 187658" d="M342.9,230.019c3.24-1.272,1.784-6.286-.431-7.824-3.9-2.717-8.952-4.738-13.751-4.635-5.866.113-11.218,4.645-14.623,9.044-2.461,3.179-2.3,6.553-4.1,9.988-1.62,3.076-5.127,4.676-7.229,7.486-1.969,2.646-1.989,6.081-1.21,9.229.595,2.43,1.282,4.635.882,7.127-.5,3.076-2.984,5.384-3.825,8.378-.769,2.707-.431,5.753-.144,8.5a11.547,11.547,0,0,0,5.127,8.665c6.153,4.1,14.469-.861,15.382-7.732.431-3.076-.482-5.824-.779-8.809-.39-3.794.923-5.958,4.1-8.019,2.7-1.733,3.968-2.871,3.763-6.235a27.686,27.686,0,0,1,0-6.891c.492-2.594,1.579-3.076-.461-5-1.425-1.333-2.625-2.769-1.487-4.779.923-1.641,2.4-2.123,3.681-.585.338.4,2.051,3.794,2.451,1.887.123-.533-.595-1.569-.656-2.164a2.379,2.379,0,0,1,.677-2.153c1.025-1.025,2.5-1.641,3.538-2.717,1.313-1.343,1.477-3.128,3.363-3.866a4.86,4.86,0,0,1,3-.133C340.7,228.861,342.593,230.142,342.9,230.019Z" transform="translate(-46.383 -128.121)" fill="#002164"/>
      <rect id="Rectángulo_38752" data-name="Rectángulo 38752" width="37.152" height="5.312" transform="translate(344.929 169.732)" fill="#002164"/>
      <path id="Trazado_187659" data-name="Trazado 187659" d="M435.375,262.247l-12.039,37.326-1.877-.687L433.5,261.55Z" transform="translate(-43.245 -127.001)" fill="#002164"/>
      <rect id="Rectángulo_38753" data-name="Rectángulo 38753" width="2.471" height="109.23" transform="translate(327.937 175.044)" fill="#7695a8"/>
      <rect id="Rectángulo_38754" data-name="Rectángulo 38754" width="2.471" height="109.23" transform="translate(573.48 175.044)" fill="#7695a8"/>
      <rect id="Rectángulo_38755" data-name="Rectángulo 38755" width="248.014" height="2.892" transform="translate(327.937 175.044)" fill="#7695a8"/>
      <path id="Trazado_187660" data-name="Trazado 187660" d="M384.681,294.214s3.22-.215,3.886-.349,8.4-6.717,9.465-6.235,11.1,4.9,11.065,6.153-2.635,1.025-8.1-2.051c0,0,7.106,3.189,6.153,4.491s-7.393-2.574-7.393-2.574,6.43,3.076,5.281,4.286-7.086-2.82-7.086-2.82,4.615,2.974,4.2,3.7-3.076.144-6.235-1.825c0,0-.543-.174-1.825.861s-10.254,1.282-10.254,1.282Z" transform="translate(-44.202 -126.338)" fill="#ffae02"/>
      <path id="Trazado_187661" data-name="Trazado 187661" d="M388.374,293.069l-.092,8.583s-30.066,1.825-38.5-1.025-26.231-25.462-27.779-29.266c-1.836-4.573,5.127-15.679,12.018-5.558s19.381,23.749,20.088,24.17S388.374,293.069,388.374,293.069Z" transform="translate(-45.783 -126.998)" fill="#7270f5"/>
      <path id="Trazado_187662" data-name="Trazado 187662" d="M427.32,175.515h36.711l19.689,16.069-8.85-16.069h9.014a2.83,2.83,0,0,0,2.83-2.83V136.25a2.83,2.83,0,0,0-2.83-2.83H427.32a2.83,2.83,0,0,0-2.82,2.83v36.434A2.83,2.83,0,0,0,427.32,175.515Z" transform="translate(-43.168 -130.262)" fill="#7270f5"/>
      <path id="Trazado_187663" data-name="Trazado 187663" d="M463.985,148.625c0,4.717-5.937,6.153-5.937,7.937v.728h-5.886v-1.733c0-2.523,4.512-3.979,4.512-6.788a2.276,2.276,0,0,0-2.287-2.43c-1.877,0-2.256,1.456-2.256,2.912v.933h-6.378c0-.451-.1-.861-.1-1.313,0-4.5,4.02-7.311,9.465-7.311S463.985,144.329,463.985,148.625Zm-5.414,17.2h-6.86v-6.378h6.86Z" transform="translate(-42.63 -130.055)" fill="#fff"/>
      <path id="Trazado_187664" data-name="Trazado 187664" d="M139.046,165.77H115.461l7.4,10.306L108.509,165.77h-5.784a1.815,1.815,0,0,1-1.815-1.815v-23.37a1.815,1.815,0,0,1,1.815-1.815h36.321a1.815,1.815,0,0,1,1.815,1.815v23.37a1.815,1.815,0,0,1-1.815,1.815Z" transform="translate(-51.402 -130.126)" fill="#fed44e"/>
      <path id="Trazado_187665" data-name="Trazado 187665" d="M115.709,158.1h-4.4V154h4.4Z" transform="translate(-51.137 -129.738)" fill="#002164"/>
      <path id="Trazado_187666" data-name="Trazado 187666" d="M122.469,158.1H118.06V154h4.409Z" transform="translate(-50.965 -129.738)" fill="#002164"/>
      <path id="Trazado_187667" data-name="Trazado 187667" d="M129.219,158.1H124.81V154h4.409Z" transform="translate(-50.793 -129.738)" fill="#002164"/>
      <path id="Trazado_187668" data-name="Trazado 187668" d="M612.256,186.444H598.761l8.562,11.936-16.612-11.936H570.2a2.051,2.051,0,0,1-2.1-2.051v-27.1a2.051,2.051,0,0,1,2.1-2.051h42.043a2.051,2.051,0,0,1,2.1,2.051v27.061a2.051,2.051,0,0,1-2.092,2.092Z" transform="translate(-39.514 -129.706)" fill="#a6eedb"/>
      <path id="Trazado_187669" data-name="Trazado 187669" d="M585.247,177.609H580.12V172.82h5.127Z" transform="translate(-39.208 -129.259)" fill="#002164"/>
      <path id="Trazado_187670" data-name="Trazado 187670" d="M593.057,177.609H587.93V172.82h5.127Z" transform="translate(-39.009 -129.259)" fill="#002164"/>
      <path id="Trazado_187671" data-name="Trazado 187671" d="M600.877,177.609H595.75V172.82h5.127Z" transform="translate(-38.81 -129.259)" fill="#002164"/>
      <path id="Trazado_187672" data-name="Trazado 187672" d="M386.545,203.874H373.061l-17.935,15.771,9.9-15.771H344.512a2.1,2.1,0,0,1-2.1-2.051v-27.1a2.051,2.051,0,0,1,2.1-2.051H386.5a2.051,2.051,0,0,1,2.1,2.051v27.051a2.1,2.1,0,0,1-2.062,2.1Z" transform="translate(-45.257 -129.263)" fill="#fed44e"/>
      <path id="Trazado_187673" data-name="Trazado 187673" d="M359.537,195.039H354.41V190.25h5.127Z" transform="translate(-44.951 -128.816)" fill="#002164"/>
      <path id="Trazado_187674" data-name="Trazado 187674" d="M367.357,195.039H362.23V190.25h5.127Z" transform="translate(-44.752 -128.816)" fill="#002164"/>
      <path id="Trazado_187675" data-name="Trazado 187675" d="M375.177,195.039H370.05V190.25h5.127Z" transform="translate(-44.553 -128.816)" fill="#002164"/>
      <path id="Trazado_187676" data-name="Trazado 187676" d="M220.547,263.11v4.358H171.1v11.393h49.447v4.358H115.09V263.11Z" transform="translate(-51.041 -126.962)" fill="#42c395"/>
      <path id="Trazado_187677" data-name="Trazado 187677" d="M102.729,285.745h-3.2V282.73H210.411v13.905H99.53V293.62h3.2c1.025-.092,1.887-1.815,1.887-3.927S103.786,285.847,102.729,285.745Z" transform="translate(-51.437 -126.462)" fill="#9070cf"/>
      <rect id="Rectángulo_38756" data-name="Rectángulo 38756" width="47.796" height="20.109" transform="translate(64.049 136.148)" fill="#7ae5c9"/>
      <rect id="Rectángulo_38757" data-name="Rectángulo 38757" width="61.199" height="13.905" transform="translate(97.776 156.257)" fill="#6346a8"/>
      <path id="Trazado_187678" data-name="Trazado 187678" d="M219.249,267.36h0c-1.518.144-2.738,2.625-2.738,5.681s1.22,5.527,2.738,5.671H166.11V267.36Z" transform="translate(-49.742 -126.853)" fill="#f8f2ed"/>
      <path id="Trazado_187679" data-name="Trazado 187679" d="M91.32,351.309v-3.056h72.314v-7.968H91.32V337.23H245.537v14.079Z" transform="translate(-51.646 -125.076)" fill="#fed44e"/>
      <rect id="Rectángulo_38758" data-name="Rectángulo 38758" width="69.894" height="14.079" transform="translate(123.987 212.154)" fill="#ffc104"/>
      <path id="Trazado_187680" data-name="Trazado 187680" d="M91.32,348.2h0a3.979,3.979,0,1,0,0-7.947h77.708V348.2Z" transform="translate(-51.646 -124.999)" fill="#f8f2ed"/>
      <path id="Trazado_187681" data-name="Trazado 187681" d="M236.455,296.28v4.358H183.449v11.393h53.005v4.358H123.43V296.28Z" transform="translate(-50.828 -126.118)" fill="#7ae5c9"/>
      <rect id="Rectángulo_38759" data-name="Rectángulo 38759" width="65.054" height="20.109" transform="translate(58.779 170.162)" fill="#98e3ec"/>
      <path id="Trazado_187682" data-name="Trazado 187682" d="M236.614,300.53h0c-1.63.144-2.933,2.625-2.933,5.671s1.3,5.537,2.933,5.681H117.15V300.53Z" transform="translate(-50.988 -126.009)" fill="#f8f2ed"/>
      <path id="Trazado_187683" data-name="Trazado 187683" d="M173.23,300.53h61.957c-1.63.144-2.933,2.625-2.933,5.671s1.3,5.537,2.933,5.681H173.23Z" transform="translate(-49.561 -126.009)" fill="#e2d4ca"/>
      <path id="Trazado_187684" data-name="Trazado 187684" d="M97.67,337.773v-4.748h59.824V320.638H97.67V315.89H217.78v21.883Z" transform="translate(-51.484 -125.619)" fill="#7270f5"/>
      <rect id="Rectángulo_38760" data-name="Rectángulo 38760" width="65.341" height="21.883" transform="translate(114.84 190.271)" fill="#353b9a"/>
      <path id="Trazado_187685" data-name="Trazado 187685" d="M97.67,332.905h0c1.641-.164,2.943-2.861,2.943-6.153s-1.3-6.019-2.943-6.153H224.251v12.305Z" transform="translate(-51.484 -125.499)" fill="#f8f2ed"/>
      <path id="Trazado_187686" data-name="Trazado 187686" d="M166.488,332.905H97.67c1.641-.164,2.943-2.861,2.943-6.153s-1.3-6.019-2.943-6.153h68.818Z" transform="translate(-51.484 -125.499)" fill="#e2d4ca"/>
      <rect id="Rectángulo_38761" data-name="Rectángulo 38761" width="34.209" height="0.01" transform="translate(51.293 167.148)" fill="#f8f2ed"/>
      <path id="Trazado_187687" data-name="Trazado 187687" d="M104.537,289.6c0-2.1-.831-3.825-1.887-3.927h42.618v7.875H102.65C103.706,293.433,104.537,291.71,104.537,289.6Z" transform="translate(-51.357 -126.388)" fill="#f8f2ed"/>
      <path id="Trazado_187688" data-name="Trazado 187688" d="M160.8,202.064s6.153,22.037,9.106,25.636,12.818,8.911,12.818,8.911l-2.6,4.6s-17.832-9.085-20.929-16.52a56.14,56.14,0,0,1-3.6-11.423c-.492-2.728-2.512-9.506-1.507-12.213C154.743,199.265,159.4,198.321,160.8,202.064Z" transform="translate(-50.055 -128.581)" fill="#7ae5c9"/>
      <path id="Trazado_187689" data-name="Trazado 187689" d="M160.8,202.064s6.153,22.037,9.106,25.636,12.818,8.911,12.818,8.911l-2.6,4.6s-17.832-9.085-20.929-16.52a56.14,56.14,0,0,1-3.6-11.423c-.492-2.728-2.512-9.506-1.507-12.213C154.743,199.265,159.4,198.321,160.8,202.064Z" transform="translate(-50.055 -128.581)" fill="#42c395"/>
      <path id="Trazado_187690" data-name="Trazado 187690" d="M220.32,304.637l4.5-4.2s18.007-1.323,19.053.256-17.074,10.131-19.4,9.978S220.628,306.38,220.32,304.637Z" transform="translate(-48.363 -126.025)" fill="#002164"/>
      <path id="Trazado_187691" data-name="Trazado 187691" d="M188.146,245.192s17.033-4.338,18.458-1.538,19.084,58.235,19.084,58.235l-4.5,4.2s-18.961-46.781-24.447-51.672S185.613,247.109,188.146,245.192Z" transform="translate(-49.198 -127.481)" fill="#ffae02"/>
      <path id="Trazado_187692" data-name="Trazado 187692" d="M188.146,245.192s17.033-4.338,18.458-1.538,19.084,58.235,19.084,58.235l-4.5,4.2s-18.961-46.781-24.447-51.672S185.613,247.109,188.146,245.192Z" transform="translate(-49.198 -127.481)" fill="#f38b00"/>
      <path id="Trazado_187693" data-name="Trazado 187693" d="M179.621,235.226a14.869,14.869,0,0,0,3.538-1.425,4.768,4.768,0,0,1,3.056-.8c.81.123,7.352,2.84,5.609,4.1-.564.4-1.969-.3-2.533-.5-.81-.287-1.61-.677-2.389-1.025.708,0,4.245,1.456,3.876,2.287-.656,1.456-4.235-.492-5.066-.954.636.1,2.851.933,2.84,1.733,0,1.272-2.635.215-3.2-.082a3.877,3.877,0,0,0-1.21-.585,4.788,4.788,0,0,0-1.6.287,9.076,9.076,0,0,1-2.789,0c-.543,0-1.815.072-2.051-.4a2.051,2.051,0,0,1,.349-1.989A4.1,4.1,0,0,1,179.621,235.226Z" transform="translate(-49.451 -127.728)" fill="#ffae02"/>
      <path id="Trazado_187694" data-name="Trazado 187694" d="M179.621,235.226a14.869,14.869,0,0,0,3.538-1.425,4.768,4.768,0,0,1,3.056-.8c.81.123,7.352,2.84,5.609,4.1-.564.4-1.969-.3-2.533-.5-.81-.287-1.61-.677-2.389-1.025.708,0,4.245,1.456,3.876,2.287-.656,1.456-4.235-.492-5.066-.954.636.1,2.851.933,2.84,1.733,0,1.272-2.635.215-3.2-.082a3.877,3.877,0,0,0-1.21-.585,4.788,4.788,0,0,0-1.6.287,9.076,9.076,0,0,1-2.789,0c-.543,0-1.815.072-2.051-.4a2.051,2.051,0,0,1,.349-1.989A4.1,4.1,0,0,1,179.621,235.226Z" transform="translate(-49.451 -127.728)" fill="#e8a393"/>
      <path id="Trazado_187695" data-name="Trazado 187695" d="M208.672,206.47l4.01,1.651L198.92,241.315l-4.04-2.194Z" transform="translate(-49.01 -128.403)" fill="#002164"/>
      <rect id="Rectángulo_38762" data-name="Rectángulo 38762" width="26.19" height="4.071" transform="translate(121.146 110.143)" fill="#002164"/>
      <path id="Trazado_187696" data-name="Trazado 187696" d="M125.815,220.657c3.5-2.051,4.1-4.215,2.143-11.547s3.138-14.93,8.029-16.94c3.579-1.477,6.737-2.133,8.911-5.958s-1.948-11.977,4.963-18.017c5.035-4.4,12.305-.882,12.305-.882,1.548-.861,2.194,8.2,2.307,15.013-8.757,13.4-6.265,30.9-3.076,45.889a6.789,6.789,0,0,0,.328,1.025c-.687,11.608-1.241,21.216-1.241,21.216S139.4,262.392,125.1,252.138,118.791,224.666,125.815,220.657Z" transform="translate(-50.988 -129.433)" fill="#002164"/>
      <path id="Trazado_187697" data-name="Trazado 187697" d="M186.034,301.84l5.343,3.076s6.542,16.828,5.343,18.294-14.695-13.331-15.228-15.628S184.465,302.64,186.034,301.84Z" transform="translate(-49.353 -125.976)" fill="#002164"/>
      <path id="Trazado_187698" data-name="Trazado 187698" d="M179.635,244.151s34.311,2.41,37.521,5.476-25.934,56.4-25.934,56.4l-4.779-2.748s7.178-25.369,9.075-31.245,5.476-12.951,4.809-13.885-35.255,4.276-34.988-5.476S179.635,244.151,179.635,244.151Z" transform="translate(-49.762 -127.445)" fill="#ffae02"/>
      <path id="Trazado_187699" data-name="Trazado 187699" d="M163.1,187.839s-3.6,9.824-1.395,17.135l-12.018-2.912s4.912-16.407,7.014-19.227S163.1,187.839,163.1,187.839Z" transform="translate(-50.16 -129.02)" fill="#ffae02"/>
      <path id="Trazado_187700" data-name="Trazado 187700" d="M158.1,196.658a5.989,5.989,0,0,0-6.153,5.948l-2.246-.544s4.912-16.407,7.014-19.227,6.4,5,6.4,5a40.545,40.545,0,0,0-2.051,9.537A6.338,6.338,0,0,0,158.1,196.658Z" transform="translate(-50.16 -129.02)" fill="#f38b00"/>
      <path id="Trazado_187701" data-name="Trazado 187701" d="M164.256,175.238s4.666,2.225,5.784,4.1.133,4.481.226,6.153.574,4.276.308,4.7-1.979,0-2.256.369-2.512,1.764-3.21,3.343-1.62,1.723-3.251.933-7.845-9.014-7.916-12.869S159.621,173.659,164.256,175.238Z" transform="translate(-50.052 -129.206)" fill="#ffae02"/>
      <path id="Trazado_187702" data-name="Trazado 187702" d="M160.412,170.13s2.174,4.358,2.4,6.081-1.425,6.84-2.4,7.517-.154-5.712-2.625-3.763.144,5.64,0,6.389a4.6,4.6,0,0,1-3.835,3.384c-2.553.226-6.758-12.469-3.979-15.628S157.479,170.13,160.412,170.13Z" transform="translate(-50.176 -129.328)" fill="#002164"/>
      <path id="Trazado_187703" data-name="Trazado 187703" d="M146.2,233.9l15.925-1.2s8.275,9.229,16.458,9.229H206.56s-1.4,11.639-8.142,20.878c0,0-26.662,1.959-39.633.892S133.517,248.389,146.2,233.9Z" transform="translate(-50.385 -127.735)" fill="#7270f5"/>
      <path id="Trazado_187704" data-name="Trazado 187704" d="M144.62,235.766c.461-.626.943-1.241,1.487-1.866l15.925-1.2s8.06,8.983,16.13,9.229C168.41,242.913,149.788,245.067,144.62,235.766Z" transform="translate(-50.289 -127.735)" fill="#353b9a"/>
      <path id="Trazado_187705" data-name="Trazado 187705" d="M198.027,243.586c-4.1-.4-8-1.364-11.987-1.866h17.545C201.852,242.6,201,243.873,198.027,243.586Z" transform="translate(-49.235 -127.506)" fill="#ca0045" opacity="0.32"/>
      <path id="Trazado_187706" data-name="Trazado 187706" d="M151.336,196.17s7.3,2.871,9.783,3.138c0,0,5.127,11.352,7.178,14.418s-5.076,14.828-5.476,19.9c0,0-4.256,4.1-17.145,1.559C145.645,235.188,142.271,203.307,151.336,196.17Z" transform="translate(-50.279 -128.665)" fill="#7ae5c9"/>
      <path id="Trazado_187707" data-name="Trazado 187707" d="M149.378,202.79c2.235-1.025,6.153,0,7.178,2.266,1.354,2.769,0,7.7.133,10.7a58.309,58.309,0,0,0,1.159,10.429,21.75,21.75,0,0,0,4.2,7.783c-1.651,1.025-6.44,3-16.407,1.025,0,0-2.051-19.483,1.354-31.358C147.932,203.354,148.793,203.015,149.378,202.79Z" transform="translate(-50.279 -128.507)" fill="#42c395"/>
      <path id="Trazado_187708" data-name="Trazado 187708" d="M177.183,235.227a14.869,14.869,0,0,0,3.538-1.425,4.768,4.768,0,0,1,3-.851c.81.123,7.352,2.841,5.609,4.1-.564.4-1.969-.3-2.533-.5-.81-.287-1.62-.677-2.389-1.025.708,0,4.245,1.456,3.876,2.287-.656,1.456-4.235-.492-5.127-.954.636.1,2.861.933,2.851,1.733,0,1.272-2.635.215-3.21-.082a3.824,3.824,0,0,0-1.2-.585,4.788,4.788,0,0,0-1.6.287,9.073,9.073,0,0,1-2.789,0c-.543,0-1.815.072-2.051-.4a2.051,2.051,0,0,1,.349-1.989A4.1,4.1,0,0,1,177.183,235.227Z" transform="translate(-49.515 -127.729)" fill="#ffae02"/>
      <path id="Trazado_187709" data-name="Trazado 187709" d="M179.123,235.91l-1.4,5.271s-34.455-4.009-35.255-10.111,1.4-34.547,9.711-31.6.1,23.585,1.4,25.2S179.123,235.91,179.123,235.91Z" transform="translate(-50.348 -128.587)" fill="#7ae5c9"/>
      <path id="Trazado_187710" data-name="Trazado 187710" d="M159.809,167.821a6.891,6.891,0,0,1,8.388.369c4.276,3.456,4.1,8.645,7.66,8.2,0,0-2.328,6.009-7.434,4.584S158.024,171.42,159.809,167.821Z" transform="translate(-49.912 -129.418)" fill="#002164"/>
      <path id="Trazado_187711" data-name="Trazado 187711" d="M408.38,151.421H404.3V147.34H402v4.081H397.92v2.3H402V157.8h2.3v-4.081h4.081Z" transform="translate(-43.844 -129.907)" fill="#fff9fd"/>
      <path id="Trazado_187712" data-name="Trazado 187712" d="M451.52,188.231h-4.081V184.15h-2.3v4.081H441.06v2.3h4.081v4.081h2.3v-4.081h4.081Z" transform="translate(-42.746 -128.971)" fill="#fff9fd"/>
      <path id="Trazado_187713" data-name="Trazado 187713" d="M199.96,203.381h-4.081V199.3h-2.3v4.081H189.5v2.307h4.081v4.081h2.3v-4.081h4.081Z" transform="translate(-49.147 -128.585)" fill="#fff9fd"/>
      <path id="Trazado_187714" data-name="Trazado 187714" d="M94.67,233.7H90.588V229.62h-2.3V233.7H84.21V236h4.081v4.081h2.3V236H94.67Z" transform="translate(-51.826 -127.814)" fill="#fff9fd"/>
      <path id="Trazado_187715" data-name="Trazado 187715" d="M251.18,275.911H247.1V271.83h-2.3v4.081H240.72v2.3H244.8V282.3h2.3v-4.092h4.081Z" transform="translate(-47.844 -126.74)" fill="#fff9fd"/>
      <path id="Trazado_187716" data-name="Trazado 187716" d="M312.08,206.7H308V202.62h-2.3V206.7H301.62V209H305.7v4.081H308V209h4.081Z" transform="translate(-46.294 -128.501)" fill="#fff9fd"/>
      <path id="Trazado_187717" data-name="Trazado 187717" d="M548.87,169.961h-4.081V165.88h-2.3v4.081H538.41v2.3h4.081v4.092h2.3v-4.092h4.081Z" transform="translate(-40.269 -129.436)" fill="#fff9fd"/>
      <path id="Trazado_187718" data-name="Trazado 187718" d="M652.76,198.461h-4.081V194.38h-2.3v4.081H642.29v2.3h4.092v4.092h2.3v-4.092h4.081Z" transform="translate(-37.626 -128.71)" fill="#fff9fd"/>
      <path id="Trazado_187722" data-name="Trazado 187722" d="M238.577,236.318c0,3.384-4.256,4.379-4.256,5.7v.523h-4.266v-1.292c0-1.815,3.24-2.861,3.24-4.881a1.63,1.63,0,0,0-1.641-1.743c-1.343,0-1.62,1.025-1.62,2.051v.677h-4.584c0-.328-.072-.626-.072-.954,0-3.23,2.892-5.25,6.8-5.25S238.577,233.221,238.577,236.318Zm-3.886,12.357h-4.932V244.06h4.932Z" transform="translate(-48.234 -127.775)" fill="#fff"/>
      <path id="Trazado_187723" data-name="Trazado 187723" d="M324.828,170.547c0,3.394-4.266,4.389-4.266,5.712v.523h-4.256v-1.251c0-1.815,3.24-2.861,3.24-4.881a1.641,1.641,0,0,0-1.651-1.743c-1.343,0-1.62,1.025-1.62,2.051a4.979,4.979,0,0,0,0,.677h-4.584c0-.328-.082-.626-.082-.954,0-3.24,2.892-5.25,6.809-5.25S324.828,167.46,324.828,170.547Zm-3.886,12.367h-4.932V178.32h4.932Z" transform="translate(-46.04 -129.447)" fill="#fff"/>
      <path id="Trazado_187724" data-name="Trazado 187724" d="M112.475,201.825c0,2.553-3.22,3.312-3.22,4.307v.39h-3.169v-.933c0-1.374,2.451-2.174,2.451-3.692a1.241,1.241,0,0,0-1.241-1.323c-1.025,0-1.231.79-1.231,1.589a4.108,4.108,0,0,0,0,.5H102.6v-.718c0-2.441,2.184-3.968,5.127-3.968S112.475,199.487,112.475,201.825Zm-2.933,9.332H105.81V207.67h3.733Z" transform="translate(-51.359 -128.619)" fill="#fff"/>
      <path id="Trazado_187727" data-name="Trazado 187727" d="M641.206,153.91v7.424l-.8,5.127H637.73l-.8-5.127V153.91Zm-.185,15.843a2.051,2.051,0,1,1-2.051-2.051,1.969,1.969,0,0,1,2.051,2.051Z" transform="translate(-37.763 -129.74)" fill="#fff"/>
      <path id="Trazado_187728" data-name="Trazado 187728" d="M248.016,197.75v7.434l-.8,5.127H244.54l-.8-5.127v-7.414Zm-.185,15.843a2.051,2.051,0,1,1-2.051-2.051,1.959,1.959,0,0,1,2.051,2.051Z" transform="translate(-47.767 -128.625)" fill="#fff"/>
      <path id="Trazado_187729" data-name="Trazado 187729" d="M92.673,273.778H89.31V270.62h3.363Z" transform="translate(-51.697 -126.771)" fill="#fff"/>
      <path id="Trazado_187730" data-name="Trazado 187730" d="M97.823,273.778H94.46V270.62h3.363Z" transform="translate(-51.566 -126.771)" fill="#fff"/>
      <path id="Trazado_187731" data-name="Trazado 187731" d="M102.973,273.778H99.61V270.62h3.363Z" transform="translate(-51.435 -126.771)" fill="#fff"/>
      <path id="Trazado_187732" data-name="Trazado 187732" d="M276.263,315.628H272.9V312.47h3.363Z" transform="translate(-47.025 -125.706)" fill="#fff"/>
      <path id="Trazado_187733" data-name="Trazado 187733" d="M281.4,315.628H278.05V312.47H281.4Z" transform="translate(-46.894 -125.706)" fill="#fff"/>
      <path id="Trazado_187734" data-name="Trazado 187734" d="M286.564,315.628H283.2V312.47h3.363Z" transform="translate(-46.763 -125.706)" fill="#fff"/>
      <path id="Trazado_187735" data-name="Trazado 187735" d="M659.083,237.808H655.72V234.66h3.363Z" transform="translate(-37.284 -127.686)" fill="#fff"/>
      <path id="Trazado_187736" data-name="Trazado 187736" d="M664.234,237.808H660.87V234.66h3.363Z" transform="translate(-37.153 -127.686)" fill="#fff"/>
      <path id="Trazado_187737" data-name="Trazado 187737" d="M669.384,237.808H666V234.66h3.363Z" transform="translate(-37.023 -127.686)" fill="#fff"/>
      <circle id="Elipse_6301" data-name="Elipse 6301" cx="18.796" cy="18.796" r="18.796" transform="matrix(0.52, -0.854, 0.854, 0.52, 612.256, 61.435)" fill="#fed44e"/>
      <path id="Trazado_187744" data-name="Trazado 187744" d="M674.89,185.89h18.735c0-.431.061-.851.061-1.282A18.807,18.807,0,0,0,678.7,166.15Z" transform="translate(-36.796 -129.429)" fill="#002164"/>
    </g>
  </g>
</svg>
