<svg xmlns="http://www.w3.org/2000/svg" width="75.942" height="79.613" viewBox="0 0 75.942 79.613">
  <g id="Grupo_124318" data-name="Grupo 124318" transform="translate(-524.058 -11974.258)">
    <g id="clasificado" transform="translate(512.251 11974.258)">
      <g id="Grupo_117182" data-name="Grupo 117182" transform="translate(12.974 1.167)">
        <g id="Grupo_117181" data-name="Grupo 117181">
          <g id="Grupo_117167" data-name="Grupo 117167" transform="translate(0 23.664)">
            <path id="Trazado_178376" data-name="Trazado 178376" d="M31.16,213.3H23.69a4.381,4.381,0,0,1-4.381-4.381V162.072a2.384,2.384,0,0,1,2.383-2.383H31.16Z" transform="translate(-19.309 -159.689)" fill="#b161ff"/>
          </g>
          <g id="Grupo_117177" data-name="Grupo 117177" transform="translate(4.855)">
            <g id="Grupo_117176" data-name="Grupo 117176">
              <g id="Grupo_117175" data-name="Grupo 117175">
                <g id="Grupo_117174" data-name="Grupo 117174">
                  <g id="Grupo_117173" data-name="Grupo 117173">
                    <g id="Grupo_117172" data-name="Grupo 117172">
                      <g id="Grupo_117171" data-name="Grupo 117171">
                        <g id="Grupo_117170" data-name="Grupo 117170">
                          <g id="Grupo_117169" data-name="Grupo 117169">
                            <g id="Grupo_117168" data-name="Grupo 117168">
                              <path id="Trazado_178377" data-name="Trazado 178377" d="M111.759,7.5h-53.8a3.518,3.518,0,0,0-3.518,3.518V80.427a4.381,4.381,0,0,1-3.907,4.355H109.7a5.582,5.582,0,0,0,5.581-5.581V11.021A3.518,3.518,0,0,0,111.759,7.5Z" transform="translate(-50.531 -7.503)" fill="#f9f6f6"/>
                            </g>
                          </g>
                        </g>
                      </g>
                    </g>
                  </g>
                  <path id="Trazado_178378" data-name="Trazado 178378" d="M398.738,7.5h-6.324a3.518,3.518,0,0,1,3.518,3.518V79.2a5.582,5.582,0,0,1-5.581,5.581h6.324a5.582,5.582,0,0,0,5.581-5.581V11.021A3.518,3.518,0,0,0,398.738,7.5Z" transform="translate(-337.51 -7.503)" fill="#e7ecf1"/>
                  <path id="Trazado_178379" data-name="Trazado 178379" d="M161.411,65.99H115.883a1.481,1.481,0,0,1-1.481-1.481V52.318a1.481,1.481,0,0,1,1.481-1.481h45.527a1.481,1.481,0,0,1,1.481,1.481V64.509A1.481,1.481,0,0,1,161.411,65.99Z" transform="translate(-104.47 -44.099)" fill="#ffe091"/>
                  <path id="Trazado_178380" data-name="Trazado 178380" d="M382.359,50.837h-4.845V64.509a1.481,1.481,0,0,1-1.481,1.481h6.326a1.481,1.481,0,0,0,1.481-1.481V52.318A1.481,1.481,0,0,0,382.359,50.837Z" transform="translate(-325.419 -44.099)" fill="#ffb600" style="mix-blend-mode: multiply;isolation: isolate"/>
                </g>
              </g>
            </g>
          </g>
          <g id="Grupo_117180" data-name="Grupo 117180" transform="translate(32.549 36.221)">
            <g id="Grupo_117178" data-name="Grupo 117178" transform="translate(23.972 23.972)">
              <path id="Trazado_178381" data-name="Trazado 178381" d="M399.067,410.873a2.8,2.8,0,0,1-3.959,0l-12.055-12.055a.863.863,0,0,1,0-1.221l2.738-2.738a.863.863,0,0,1,1.221,0l12.055,12.055A2.8,2.8,0,0,1,399.067,410.873Z" transform="translate(-382.8 -394.606)" fill="#b161ff"/>
            </g>
            <g id="Grupo_117179" data-name="Grupo 117179">
              <circle id="Elipse_5701" data-name="Elipse 5701" cx="16.327" cy="16.327" r="16.327" fill="#ffe091"/>
              <circle id="Elipse_5702" data-name="Elipse 5702" cx="11.545" cy="11.545" r="11.545" transform="translate(4.782 4.782)" fill="#f9f6f6"/>
              <path id="Trazado_178382" data-name="Trazado 178382" d="M324.624,274.588a11.539,11.539,0,0,0-11.326-2.94,11.544,11.544,0,0,1,0,22.206,11.544,11.544,0,0,0,11.326-19.266Z" transform="translate(-300.134 -266.425)" fill="#e7ecf1"/>
            </g>
          </g>
        </g>
      </g>
      <g id="Grupo_117184" data-name="Grupo 117184" transform="translate(11.807 0)">
        <g id="Grupo_117183" data-name="Grupo 117183" transform="translate(0 0)">
          <path id="Trazado_178383" data-name="Trazado 178383" d="M127.132,191.788H109.247a1.167,1.167,0,1,0,0,2.333h17.886a1.167,1.167,0,0,0,0-2.333Z" transform="translate(-93.11 -161.966)"/>
          <path id="Trazado_178384" data-name="Trazado 178384" d="M127.132,230.937H109.247a1.167,1.167,0,0,0,0,2.333h17.886a1.167,1.167,0,0,0,0-2.333Z" transform="translate(-93.11 -195.028)"/>
          <path id="Trazado_178385" data-name="Trazado 178385" d="M127.132,436.178H109.247a1.167,1.167,0,1,0,0,2.333h17.886a1.167,1.167,0,0,0,0-2.333Z" transform="translate(-93.11 -368.355)"/>
          <path id="Trazado_178386" data-name="Trazado 178386" d="M321.591,191.788H303.706a1.167,1.167,0,0,0,0,2.333h17.886a1.167,1.167,0,0,0,0-2.333Z" transform="translate(-257.332 -161.966)"/>
          <path id="Trazado_178387" data-name="Trazado 178387" d="M402.666,230.937h-2.958a1.167,1.167,0,1,0,0,2.333h2.958a1.167,1.167,0,1,0,0-2.333Z" transform="translate(-338.407 -195.028)"/>
          <path id="Trazado_178388" data-name="Trazado 178388" d="M109.547,60.82h45.527a2.651,2.651,0,0,0,2.648-2.648V45.982a2.651,2.651,0,0,0-2.648-2.648H109.547a2.651,2.651,0,0,0-2.648,2.648V49.4a1.167,1.167,0,1,0,2.333,0V45.982a.315.315,0,0,1,.315-.315h45.527a.315.315,0,0,1,.315.315V58.173a.315.315,0,0,1-.315.315H109.547a.315.315,0,0,1-.315-.315V54.8a1.167,1.167,0,1,0-2.333,0v3.368a2.651,2.651,0,0,0,2.648,2.648Z" transform="translate(-92.113 -36.596)"/>
          <path id="Trazado_178389" data-name="Trazado 178389" d="M276.114,278.105a1.166,1.166,0,0,0-1.414.85,10.374,10.374,0,1,1,.028-4.921A1.167,1.167,0,0,0,277,273.5a12.705,12.705,0,1,0-.034,6.022A1.166,1.166,0,0,0,276.114,278.105Z" transform="translate(-214.588 -222.724)"/>
          <path id="Trazado_178390" data-name="Trazado 178390" d="M86.586,72.842,83.741,70V4.684A4.69,4.69,0,0,0,79.057,0h-53.8a4.69,4.69,0,0,0-4.684,4.684v18.98H15.357a3.554,3.554,0,0,0-3.55,3.55v46.85a5.554,5.554,0,0,0,5.548,5.548H76.993a6.691,6.691,0,0,0,3.9-1.244l.082.082a3.966,3.966,0,1,0,5.608-5.608Zm-68.84,4.437h-.392a3.218,3.218,0,0,1-3.215-3.214V27.214A1.218,1.218,0,0,1,15.357,26h5.212V74.091A3.205,3.205,0,0,1,17.747,77.279Zm59.246,0H21.9a5.537,5.537,0,0,0,1-3.189V4.684a2.354,2.354,0,0,1,2.351-2.351h53.8a2.354,2.354,0,0,1,2.351,2.351v62.98l-4.7-4.7A17.5,17.5,0,1,0,46.251,45.779H27.943a1.167,1.167,0,0,0,0,2.333H45.269a17.411,17.411,0,0,0-.816,3.754H27.943a1.167,1.167,0,0,0,0,2.333h16.42a17.383,17.383,0,0,0,2,7.667,1.16,1.16,0,0,0-.534-.13H27.943a1.167,1.167,0,1,0,0,2.333H45.829a1.166,1.166,0,0,0,1.164-1.109,17.629,17.629,0,0,0,2.487,3.124,17.529,17.529,0,0,0,21.614,2.483l8.115,8.115a4.38,4.38,0,0,1-2.217.6ZM61.85,68.867a15.14,15.14,0,1,1,12.425-6.46c-.018.024-.035.047-.051.072A15.135,15.135,0,0,1,61.85,68.867ZM84.936,76.8a1.631,1.631,0,0,1-2.309,0l-9.617-9.617a17.519,17.519,0,0,0,2.31-2.308l9.616,9.616A1.632,1.632,0,0,1,84.936,76.8Z" transform="translate(-11.807 0)"/>
        </g>
      </g>
    </g>
  </g>
</svg>
