<svg xmlns="http://www.w3.org/2000/svg" xmlns:xlink="http://www.w3.org/1999/xlink" width="1030" height="845" viewBox="0 0 1030 845">
  <defs>
    <linearGradient id="linear-gradient" x1="0.572" y1="0.118" x2="0.177" y2="0.642" gradientUnits="objectBoundingBox">
      <stop offset="0" stop-color="#3c0096"/>
      <stop offset="1" stop-color="#cb97ff"/>
    </linearGradient>
    <linearGradient id="linear-gradient-2" x1="0.235" y1="0.874" x2="0.96" y2="0.24" gradientUnits="objectBoundingBox">
      <stop offset="0" stop-color="#ff6b00"/>
      <stop offset="0.44" stop-color="#ff8d3b"/>
      <stop offset="1" stop-color="#ffad72"/>
    </linearGradient>
    <linearGradient id="linear-gradient-3" x1="0.872" y1="0.727" x2="-0.311" y2="-0.21" gradientUnits="objectBoundingBox">
      <stop offset="0" stop-color="#ffe39f"/>
      <stop offset="0.274" stop-color="#ffd05c"/>
      <stop offset="0.53" stop-color="#ffb600"/>
      <stop offset="0.793" stop-color="#e0a103"/>
      <stop offset="1" stop-color="#a37603"/>
    </linearGradient>
    <filter id="Trazado_188133" x="324.353" y="215.686" width="415.642" height="415.642" filterUnits="userSpaceOnUse">
      <feOffset dy="7" input="SourceAlpha"/>
      <feGaussianBlur stdDeviation="4.5" result="blur"/>
      <feFlood flood-opacity="0.161"/>
      <feComposite operator="in" in2="blur"/>
      <feComposite in="SourceGraphic"/>
    </filter>
  </defs>
  <g id="Grupo_124316" data-name="Grupo 124316" transform="translate(-285 -7464)">
    <path id="Trazado_188131" data-name="Trazado 188131" d="M22,0h986a22,22,0,0,1,22,22V823a22,22,0,0,1-22,22H22A22,22,0,0,1,0,823V22A22,22,0,0,1,22,0Z" transform="translate(285 7464)" fill="#ffe39f" opacity="0.15"/>
    <path id="Trazado_187236" data-name="Trazado 187236" d="M74.39,331.725l59.56-52.787,118.968-105.7L305.552,126.5l76.6,26.029,75.535,25.664,75.262,25.756,75.293,25.6A318.178,318.178,0,0,1,74.39,331.725Z" transform="translate(509.282 7766.611)" fill="url(#linear-gradient)"/>
    <path id="Trazado_187237" data-name="Trazado 187237" d="M391.781,5.271V374.323l-2.764,2.46-45.1,40.061L235.638,513.063l-54.032,48.018-54.214,47.958A361.732,361.732,0,0,1,391.629,5.18Z" transform="translate(427.762 7519.456)" fill="url(#linear-gradient-2)"/>
    <path id="Trazado_187238" data-name="Trazado 187238" d="M486.3,346.915a329.721,329.721,0,0,1-20.623,115.414l-78.056-26.636-78.482-26.484-78.421-26.667L151.14,355.51v-2.247l2.764-2.46V16.8h2.278A329.75,329.75,0,0,1,486.3,346.915Z" transform="translate(665.639 7543.128)" fill="url(#linear-gradient-3)"/>
    <path id="Trazado_187293" data-name="Trazado 187293" d="M486.3,346.915a329.721,329.721,0,0,1-20.623,115.414l-78.056-26.636-78.482-26.484-78.421-26.667L151.14,355.51v-2.247l2.764-2.46c30.552-113.594,123.265-97.769,162.791-128.464,85.333-60.267,102.4-75.2,104.969-71.871A329.624,329.624,0,0,1,486.3,346.915Z" transform="translate(665.639 7543.128)" fill="#3c0096"/>
    <path id="Trazado_187239" data-name="Trazado 187239" d="M272.549,318.15A296.888,296.888,0,0,1,94.022,257.983a1.731,1.731,0,0,1-.334-2.369,1.7,1.7,0,0,1,2.4-.334A291.572,291.572,0,0,0,521.6,174.551a1.67,1.67,0,0,1,2.308-.577,1.7,1.7,0,0,1,.577,2.339A296.857,296.857,0,0,1,272.549,318.15Z" transform="translate(547.935 7862.828)" fill="#fff"/>
    <path id="Trazado_187241" data-name="Trazado 187241" d="M118.556,202.883a1.367,1.367,0,0,1-1.427,1.276l-20.683-1.093,7.745,19.226a1.306,1.306,0,0,1-.729,1.762,1.367,1.367,0,0,1-1.762-.759l-8.565-21.261a1.336,1.336,0,0,1,0-1.306,1.427,1.427,0,0,1,1.154-.577l22.84,1.215a1.094,1.094,0,0,1,.7.243,1.367,1.367,0,0,1,.729,1.276Z" transform="translate(547.122 7916.651)" fill="#fff"/>
    <g id="Grupo_124257" data-name="Grupo 124257" transform="translate(332.934 7519.456)">
      <path id="Trazado_187284" data-name="Trazado 187284" d="M15.417,103.633c-1.025,0-1.857-.482-1.857-1.077V31.077c0-.6.831-1.077,1.857-1.077H224.423c.8.132,1.347.555,1.347,1.036s-.55.9-1.347,1.036H17.345v70.442a.909.909,0,0,1-.542.8A2.71,2.71,0,0,1,15.417,103.633Z" transform="translate(20.739 50.563)" fill="#5e5e5e"/>
      <path id="Trazado_187285" data-name="Trazado 187285" d="M23.944,69.006a5.892,5.892,0,1,1-1.723-4.352A5.923,5.923,0,0,1,23.944,69.006Z" transform="translate(17.766 83.337)" fill="#5e5e5e"/>
      <path id="Trazado_187286" data-name="Trazado 187286" d="M76.6,40.363A5.892,5.892,0,1,0,72.32,38.7a5.892,5.892,0,0,0,4.285,1.66Z" transform="translate(168.485 47.673)" fill="#5e5e5e"/>
    </g>
    <path id="Trazado_187287" data-name="Trazado 187287" d="M382.666,292.845H161.788c-.59,0-1.068-.707-1.068-1.579V231.888c.131-.678.55-1.146,1.027-1.146s.9.467,1.027,1.146V289.6H381.619V263.84a2.03,2.03,0,0,1,.409-1.722.8.8,0,0,1,1.234,0,2.029,2.029,0,0,1,.409,1.722v27.335a2.092,2.092,0,0,1-.269,1.144A.99.99,0,0,1,382.666,292.845Z" transform="translate(685.155 7978.976)" fill="#5e5e5e"/>
    <path id="Trazado_187288" data-name="Trazado 187288" d="M266.88,245.763a5.923,5.923,0,1,1,5.892,5.892A6.074,6.074,0,0,1,266.88,245.763Z" transform="translate(794.546 7997.447)" fill="#5e5e5e"/>
    <path id="Trazado_187289" data-name="Trazado 187289" d="M171.084,235.172a5.892,5.892,0,1,0-5.892,5.892A5.892,5.892,0,0,0,171.084,235.172Z" transform="translate(682.262 7975.996)" fill="#5e5e5e"/>
    <g id="Grupo_124256" data-name="Grupo 124256" transform="translate(1020 7542.587)">
      <path id="Trazado_187291" data-name="Trazado 187291" d="M383.713,291.266V231.888c-.131-.678-.55-1.146-1.026-1.146s-.9.467-1.027,1.146V289.6H162.814a2.03,2.03,0,0,0-.409-1.722.8.8,0,0,0-1.234,0,2.029,2.029,0,0,0-.409,1.722v1.579a2.092,2.092,0,0,0,.269,1.144S383.713,292.138,383.713,291.266Z" transform="translate(-156.316 -226.3)" fill="#5e5e5e"/>
      <path id="Trazado_187292" data-name="Trazado 187292" d="M278.725,245.763a5.923,5.923,0,1,0-5.892,5.892A6.074,6.074,0,0,0,278.725,245.763Z" transform="translate(-266.88 -180.829)" fill="#5e5e5e"/>
      <path id="Trazado_187290" data-name="Trazado 187290" d="M159.3,235.172a5.892,5.892,0,1,1,5.892,5.892A5.892,5.892,0,0,1,159.3,235.172Z" transform="translate(60.625 -229.28)" fill="#5e5e5e"/>
    </g>
    <path id="Trazado_188143" data-name="Trazado 188143" d="M0,0H160" transform="translate(462.5 7880.5)" fill="none" stroke="#fff1e7" stroke-width="3"/>
    <path id="Trazado_188132" data-name="Trazado 188132" d="M0,0,110,110" transform="translate(565.5 7636.5)" fill="none" stroke="#fff1e7" stroke-width="3"/>
    <path id="Trazado_188144" data-name="Trazado 188144" d="M0,0,142,48.316" transform="translate(993.5 7959.5)" fill="none" stroke="#fff1e7" stroke-width="3"/>
    <path id="Trazado_188147" data-name="Trazado 188147" d="M0,0,71.629,119.7" transform="translate(912.871 8042.801)" fill="none" stroke="#fff1e7" stroke-width="3"/>
    <path id="Trazado_188148" data-name="Trazado 188148" d="M21,0,0,134" transform="translate(771.5 8066.5)" fill="none" stroke="#fff1e7" stroke-width="3"/>
    <path id="Trazado_188136" data-name="Trazado 188136" d="M79.629,0,0,121.241" transform="translate(888.871 7595.5)" fill="none" stroke="#fff1e7" stroke-width="3"/>
    <path id="Trazado_188137" data-name="Trazado 188137" d="M118,0,0,84" transform="translate(968.5 7691.5)" fill="none" stroke="#fff1e7" stroke-width="3"/>
    <g transform="matrix(1, 0, 0, 1, 285, 7464)" filter="url(#Trazado_188133)">
      <path id="Trazado_188133-2" data-name="Trazado 188133" d="M194.321,0c107.32,0,194.321,87,194.321,194.321s-87,194.321-194.321,194.321S0,301.641,0,194.321,87,0,194.321,0Z" transform="translate(337.85 222.19)" fill="#fff"/>
    </g>
    <path id="Trazado_188134" data-name="Trazado 188134" d="M9.15,16.344h-4.7L3.633,19H-.029L5.186,4.781H8.408L13.662,19H9.98ZM5.273,13.7H8.33L6.8,8.766Zm13.74,2.959a1.464,1.464,0,0,0,1.074-.376,1.379,1.379,0,0,0,.371-1.05h3.086A3.653,3.653,0,0,1,22.3,18.082,4.631,4.631,0,0,1,19.092,19.2a4.689,4.689,0,0,1-3.633-1.445,5.7,5.7,0,0,1-1.328-4v-.137a6.436,6.436,0,0,1,.591-2.827,4.3,4.3,0,0,1,1.7-1.885,5.081,5.081,0,0,1,2.637-.659,4.573,4.573,0,0,1,3.271,1.143,4.053,4.053,0,0,1,1.211,3.1H20.459a1.807,1.807,0,0,0-.4-1.26,1.382,1.382,0,0,0-1.074-.439q-1.279,0-1.494,1.631a11.508,11.508,0,0,0-.068,1.426,4.52,4.52,0,0,0,.381,2.207A1.319,1.319,0,0,0,19.014,16.656Zm10.391,0a1.464,1.464,0,0,0,1.074-.376,1.379,1.379,0,0,0,.371-1.05h3.086a3.653,3.653,0,0,1-1.245,2.852A4.631,4.631,0,0,1,29.482,19.2,4.689,4.689,0,0,1,25.85,17.75a5.7,5.7,0,0,1-1.328-4v-.137a6.436,6.436,0,0,1,.591-2.827,4.3,4.3,0,0,1,1.7-1.885,5.081,5.081,0,0,1,2.637-.659,4.573,4.573,0,0,1,3.271,1.143,4.053,4.053,0,0,1,1.211,3.1H30.85a1.807,1.807,0,0,0-.4-1.26,1.382,1.382,0,0,0-1.074-.439q-1.279,0-1.494,1.631a11.508,11.508,0,0,0-.068,1.426,4.52,4.52,0,0,0,.381,2.207A1.319,1.319,0,0,0,29.4,16.656ZM38.8,19H35.5V8.434h3.3ZM35.3,5.7a1.482,1.482,0,0,1,.508-1.159,2.149,2.149,0,0,1,2.637,0A1.482,1.482,0,0,1,38.955,5.7a1.482,1.482,0,0,1-.508,1.159,2.149,2.149,0,0,1-2.637,0A1.482,1.482,0,0,1,35.3,5.7Zm5.107,7.92a6.236,6.236,0,0,1,.615-2.817,4.4,4.4,0,0,1,1.768-1.9A5.323,5.323,0,0,1,45.5,8.238a4.858,4.858,0,0,1,3.74,1.47,5.64,5.64,0,0,1,1.367,4v.117a5.472,5.472,0,0,1-1.372,3.921,4.871,4.871,0,0,1-3.716,1.45,4.927,4.927,0,0,1-3.623-1.353,5.29,5.29,0,0,1-1.475-3.667Zm3.291.205a3.932,3.932,0,0,0,.459,2.148,1.529,1.529,0,0,0,1.357.684q1.758,0,1.8-2.705v-.332q0-2.842-1.816-2.842-1.65,0-1.787,2.451ZM45.947,4h3.477L46.709,7.066l-2.686,0Zm9.131,4.434.107,1.24A3.583,3.583,0,0,1,58.2,8.238a3.015,3.015,0,0,1,2.466.986,4.7,4.7,0,0,1,.845,2.969V19h-3.3V12.33a1.783,1.783,0,0,0-.322-1.177,1.491,1.491,0,0,0-1.172-.376,1.569,1.569,0,0,0-1.436.762V19H51.992V8.434ZM71.787,19h-3.3V8.434h3.3Zm-3.5-13.3A1.482,1.482,0,0,1,68.8,4.54a2.149,2.149,0,0,1,2.637,0A1.482,1.482,0,0,1,71.943,5.7a1.482,1.482,0,0,1-.508,1.159,2.149,2.149,0,0,1-2.637,0A1.482,1.482,0,0,1,68.291,5.7Zm8.545,2.734.107,1.24a3.583,3.583,0,0,1,3.018-1.436,3.015,3.015,0,0,1,2.466.986,4.7,4.7,0,0,1,.845,2.969V19h-3.3V12.33a1.783,1.783,0,0,0-.322-1.177,1.491,1.491,0,0,0-1.172-.376,1.569,1.569,0,0,0-1.436.762V19H73.75V8.434Zm12.09-2.627V8.434h1.738v2.285H88.926v4.834a1.234,1.234,0,0,0,.215.83,1.152,1.152,0,0,0,.85.234,4.828,4.828,0,0,0,.82-.059v2.354a6.074,6.074,0,0,1-1.855.283,3.448,3.448,0,0,1-2.51-.8,3.282,3.282,0,0,1-.811-2.432V10.719H84.287V8.434h1.348V5.807ZM97.07,19.2a5.432,5.432,0,0,1-3.936-1.45,5.008,5.008,0,0,1-1.5-3.774V13.7a6.489,6.489,0,0,1,.6-2.861,4.395,4.395,0,0,1,1.753-1.919,5.292,5.292,0,0,1,2.734-.679,4.574,4.574,0,0,1,3.516,1.382,5.43,5.43,0,0,1,1.289,3.853v1.279H94.98a2.372,2.372,0,0,0,.771,1.4,2.3,2.3,0,0,0,1.543.508,2.958,2.958,0,0,0,2.441-1.094l1.5,1.777A4.2,4.2,0,0,1,99.5,18.692,5.891,5.891,0,0,1,97.07,19.2ZM96.7,10.777q-1.445,0-1.719,1.914H98.3v-.254a1.63,1.63,0,0,0-.4-1.226A1.593,1.593,0,0,0,96.7,10.777Zm12.539.635-1.084-.078a1.947,1.947,0,0,0-1.992.977V19h-3.291V8.434h3.086l.107,1.357a2.548,2.548,0,0,1,2.314-1.553,3.209,3.209,0,0,1,.918.117Zm11,2.383a6.372,6.372,0,0,1-1.108,3.931,3.554,3.554,0,0,1-2.993,1.47,3.046,3.046,0,0,1-2.393-1.064v4.932h-3.291V8.434h3.076l.1.977a3.046,3.046,0,0,1,2.49-1.172,3.582,3.582,0,0,1,3.037,1.44,6.45,6.45,0,0,1,1.084,3.96Zm-3.291-.205q0-2.812-1.641-2.812a1.549,1.549,0,0,0-1.562.84v4.16a1.6,1.6,0,0,0,1.582.879q1.572,0,1.621-2.715Zm11.133-2.178-1.084-.078a1.947,1.947,0,0,0-1.992.977V19h-3.291V8.434h3.086l.107,1.357a2.548,2.548,0,0,1,2.314-1.553,3.209,3.209,0,0,1,.918.117Zm6.113,7.783a5.432,5.432,0,0,1-3.936-1.45,5.008,5.008,0,0,1-1.5-3.774V13.7a6.489,6.489,0,0,1,.6-2.861A4.395,4.395,0,0,1,131.1,8.917a5.292,5.292,0,0,1,2.734-.679,4.574,4.574,0,0,1,3.516,1.382,5.43,5.43,0,0,1,1.289,3.853v1.279H132.1a2.372,2.372,0,0,0,.771,1.4,2.3,2.3,0,0,0,1.543.508,2.958,2.958,0,0,0,2.441-1.094l1.5,1.777a4.2,4.2,0,0,1-1.743,1.353A5.891,5.891,0,0,1,134.189,19.2Zm-.371-8.418q-1.445,0-1.719,1.914h3.32v-.254a1.63,1.63,0,0,0-.4-1.226A1.593,1.593,0,0,0,133.818,10.777Zm9.98-4.971V8.434h1.738v2.285H143.8v4.834a1.234,1.234,0,0,0,.215.83,1.152,1.152,0,0,0,.85.234,4.828,4.828,0,0,0,.82-.059v2.354a6.074,6.074,0,0,1-1.855.283,3.448,3.448,0,0,1-2.51-.8,3.282,3.282,0,0,1-.811-2.432V10.719H139.16V8.434h1.348V5.807ZM152.783,19a3.716,3.716,0,0,1-.312-.947,3.06,3.06,0,0,1-2.539,1.143,3.749,3.749,0,0,1-2.539-.9,2.875,2.875,0,0,1-1.045-2.271,2.955,2.955,0,0,1,1.27-2.6,6.468,6.468,0,0,1,3.691-.879h1.016v-.559q0-1.462-1.26-1.462a1.03,1.03,0,0,0-1.172,1.158H146.6a2.95,2.95,0,0,1,1.3-2.487,5.479,5.479,0,0,1,3.325-.956,4.8,4.8,0,0,1,3.193.986,3.429,3.429,0,0,1,1.2,2.705v4.678a4.79,4.79,0,0,0,.449,2.227V19Zm-2.061-2.148a1.836,1.836,0,0,0,1.021-.264,1.653,1.653,0,0,0,.581-.6V14.3h-.957q-1.719,0-1.719,1.543a.942.942,0,0,0,.3.728A1.1,1.1,0,0,0,150.723,16.852ZM161.279,5.807V8.434h1.738v2.285h-1.738v4.834a1.234,1.234,0,0,0,.215.83,1.152,1.152,0,0,0,.85.234,4.828,4.828,0,0,0,.82-.059v2.354a6.074,6.074,0,0,1-1.855.283,3.448,3.448,0,0,1-2.51-.8,3.282,3.282,0,0,1-.811-2.432V10.719h-1.348V8.434h1.348V5.807ZM167.783,19h-3.3V8.434h3.3Zm-3.5-13.3a1.482,1.482,0,0,1,.508-1.159,2.149,2.149,0,0,1,2.637,0,1.482,1.482,0,0,1,.508,1.159,1.482,1.482,0,0,1-.508,1.159,2.149,2.149,0,0,1-2.637,0A1.482,1.482,0,0,1,164.287,5.7Zm9.736,9.385,1.67-6.65h3.467L175.713,19h-3.359L168.906,8.434h3.477ZM185.947,19a3.716,3.716,0,0,1-.312-.947A3.06,3.06,0,0,1,183.1,19.2a3.749,3.749,0,0,1-2.539-.9,2.875,2.875,0,0,1-1.045-2.271,2.955,2.955,0,0,1,1.27-2.6,6.468,6.468,0,0,1,3.691-.879h1.016v-.559q0-1.462-1.26-1.462a1.03,1.03,0,0,0-1.172,1.158h-3.291a2.95,2.95,0,0,1,1.3-2.487,5.479,5.479,0,0,1,3.325-.956,4.8,4.8,0,0,1,3.193.986,3.429,3.429,0,0,1,1.2,2.705v4.678a4.79,4.79,0,0,0,.449,2.227V19Zm-2.061-2.148a1.836,1.836,0,0,0,1.021-.264,1.653,1.653,0,0,0,.581-.6V14.3h-.957q-1.719,0-1.719,1.543a.942.942,0,0,0,.3.728A1.1,1.1,0,0,0,183.887,16.852Z" transform="translate(368 7565)" fill="#12263f"/>
    <path id="Trazado_188145" data-name="Trazado 188145" d="M26.417,12.965H21.026v3.4h6.367V19H17.6V4.781h9.814V7.428H21.026v3h5.391Zm6.5-1.621,1.533-2.91h3.418L35.089,13.58,38.009,19H34.571l-1.66-3.125L31.28,19H27.823l2.93-5.42L27.979,8.434h3.457Zm15.82,2.451a6.372,6.372,0,0,1-1.108,3.931A3.554,3.554,0,0,1,44.64,19.2a3.046,3.046,0,0,1-2.393-1.064v4.932H38.956V8.434h3.076l.1.977a3.046,3.046,0,0,1,2.49-1.172,3.582,3.582,0,0,1,3.037,1.44,6.45,6.45,0,0,1,1.084,3.96ZM45.45,13.59q0-2.812-1.641-2.812a1.549,1.549,0,0,0-1.562.84v4.16a1.6,1.6,0,0,0,1.582.879q1.572,0,1.621-2.715ZM53.663,19h-3.3V4h3.3Zm1.611-5.381A6.236,6.236,0,0,1,55.89,10.8a4.4,4.4,0,0,1,1.768-1.9,5.323,5.323,0,0,1,2.705-.664,4.858,4.858,0,0,1,3.74,1.47,5.64,5.64,0,0,1,1.367,4v.117A5.472,5.472,0,0,1,64.1,17.745a4.871,4.871,0,0,1-3.716,1.45,4.927,4.927,0,0,1-3.623-1.353,5.29,5.29,0,0,1-1.475-3.667Zm3.291.205a3.932,3.932,0,0,0,.459,2.148,1.529,1.529,0,0,0,1.357.684q1.758,0,1.8-2.705v-.332q0-2.842-1.816-2.842-1.65,0-1.787,2.451Zm14.746-2.412-1.084-.078a1.947,1.947,0,0,0-1.992.977V19H66.944V8.434H70.03l.107,1.357a2.548,2.548,0,0,1,2.314-1.553,3.209,3.209,0,0,1,.918.117ZM80.157,19a3.716,3.716,0,0,1-.312-.947A3.06,3.06,0,0,1,77.306,19.2a3.749,3.749,0,0,1-2.539-.9,2.875,2.875,0,0,1-1.045-2.271,2.955,2.955,0,0,1,1.27-2.6,6.468,6.468,0,0,1,3.691-.879H79.7v-.559q0-1.462-1.26-1.462a1.03,1.03,0,0,0-1.172,1.158H73.976a2.95,2.95,0,0,1,1.3-2.487A5.479,5.479,0,0,1,78.6,8.238a4.8,4.8,0,0,1,3.193.986A3.429,3.429,0,0,1,83,11.93v4.678a4.79,4.79,0,0,0,.449,2.227V19ZM78.1,16.852a1.836,1.836,0,0,0,1.021-.264,1.653,1.653,0,0,0,.581-.6V14.3h-.957q-1.719,0-1.719,1.543a.942.942,0,0,0,.3.728A1.1,1.1,0,0,0,78.1,16.852Zm13.115-5.439-1.084-.078a1.947,1.947,0,0,0-1.992.977V19H84.845V8.434h3.086l.107,1.357a2.548,2.548,0,0,1,2.314-1.553,3.209,3.209,0,0,1,.918.117Z" transform="translate(516 7968)" fill="#12263f"/>
    <path id="Trazado_188138" data-name="Trazado 188138" d="M14.142,19V4.781h4.58a6.737,6.737,0,0,1,3.389.854,6.006,6.006,0,0,1,2.349,2.412,7.283,7.283,0,0,1,.854,3.491v.654a7.325,7.325,0,0,1-.825,3.5,6.032,6.032,0,0,1-2.324,2.422A6.589,6.589,0,0,1,18.819,19ZM17.569,7.428v8.936h1.191a2.666,2.666,0,0,0,2.266-1.05,5.145,5.145,0,0,0,.791-3.12v-.615a5.1,5.1,0,0,0-.791-3.105,2.713,2.713,0,0,0-2.3-1.045ZM32.032,19.2a5.432,5.432,0,0,1-3.936-1.45,5.008,5.008,0,0,1-1.5-3.774V13.7a6.489,6.489,0,0,1,.6-2.861,4.395,4.395,0,0,1,1.753-1.919,5.292,5.292,0,0,1,2.734-.679A4.574,4.574,0,0,1,35.2,9.62a5.43,5.43,0,0,1,1.289,3.853v1.279H29.942a2.372,2.372,0,0,0,.771,1.4,2.3,2.3,0,0,0,1.543.508A2.958,2.958,0,0,0,34.7,15.563l1.5,1.777a4.2,4.2,0,0,1-1.743,1.353A5.891,5.891,0,0,1,32.032,19.2Zm-.371-8.418q-1.445,0-1.719,1.914h3.32v-.254a1.63,1.63,0,0,0-.4-1.226A1.593,1.593,0,0,0,31.661,10.777Zm11.68,5.254a.76.76,0,0,0-.439-.674,6.685,6.685,0,0,0-1.67-.527,7.615,7.615,0,0,1-2.031-.718,3.4,3.4,0,0,1-1.221-1.079,2.577,2.577,0,0,1-.42-1.455,2.92,2.92,0,0,1,1.2-2.4,4.948,4.948,0,0,1,3.145-.942,5.482,5.482,0,0,1,3.359.947,2.962,2.962,0,0,1,1.27,2.49h-3.3q0-1.27-1.338-1.27a1.326,1.326,0,0,0-.869.288.892.892,0,0,0-.352.718.819.819,0,0,0,.43.713,4.06,4.06,0,0,0,1.372.449,11.857,11.857,0,0,1,1.655.42,3.007,3.007,0,0,1,2.383,2.939,2.767,2.767,0,0,1-1.284,2.354,5.632,5.632,0,0,1-3.325.908,5.747,5.747,0,0,1-2.422-.488,4.05,4.05,0,0,1-1.66-1.328,3.007,3.007,0,0,1-.6-1.768H40.3a1.272,1.272,0,0,0,.488,1.069,2.009,2.009,0,0,0,1.2.337A1.58,1.58,0,0,0,43,16.744.875.875,0,0,0,43.341,16.031Zm9.18.625a1.464,1.464,0,0,0,1.074-.376,1.379,1.379,0,0,0,.371-1.05h3.086a3.653,3.653,0,0,1-1.245,2.852A4.631,4.631,0,0,1,52.6,19.2a4.689,4.689,0,0,1-3.633-1.445,5.7,5.7,0,0,1-1.328-4v-.137a6.436,6.436,0,0,1,.591-2.827,4.3,4.3,0,0,1,1.7-1.885,5.081,5.081,0,0,1,2.637-.659,4.573,4.573,0,0,1,3.271,1.143,4.053,4.053,0,0,1,1.211,3.1H53.966a1.807,1.807,0,0,0-.4-1.26,1.382,1.382,0,0,0-1.074-.439q-1.279,0-1.494,1.631a11.507,11.507,0,0,0-.068,1.426,4.52,4.52,0,0,0,.381,2.207A1.319,1.319,0,0,0,52.521,16.656Zm12.314-5.244-1.084-.078a1.947,1.947,0,0,0-1.992.977V19H58.468V8.434h3.086l.107,1.357a2.548,2.548,0,0,1,2.314-1.553,3.209,3.209,0,0,1,.918.117ZM69.493,19h-3.3V8.434h3.3ZM66,5.7A1.482,1.482,0,0,1,66.5,4.54a2.149,2.149,0,0,1,2.637,0A1.482,1.482,0,0,1,69.649,5.7a1.482,1.482,0,0,1-.508,1.159,2.149,2.149,0,0,1-2.637,0A1.482,1.482,0,0,1,66,5.7ZM81.329,13.8A6.44,6.44,0,0,1,80.255,17.8a3.6,3.6,0,0,1-3.027,1.4,3.122,3.122,0,0,1-2.6-1.279L74.493,19H71.544V4h3.291V9.283a3.013,3.013,0,0,1,2.373-1.045,3.6,3.6,0,0,1,3.047,1.416,6.473,6.473,0,0,1,1.074,3.984Zm-3.3-.21a4.3,4.3,0,0,0-.405-2.169,1.366,1.366,0,0,0-1.245-.648,1.576,1.576,0,0,0-1.543.848v4.192a1.585,1.585,0,0,0,1.563.838,1.4,1.4,0,0,0,1.475-1.131A8.121,8.121,0,0,0,78.028,13.595ZM86.251,19h-3.3V8.434h3.3Zm-3.5-13.3a1.482,1.482,0,0,1,.508-1.159,2.149,2.149,0,0,1,2.637,0A1.482,1.482,0,0,1,86.407,5.7,1.482,1.482,0,0,1,85.9,6.859a2.149,2.149,0,0,1-2.637,0A1.482,1.482,0,0,1,82.755,5.7Zm11.914,5.713-1.084-.078a1.947,1.947,0,0,0-1.992.977V19H88.3V8.434h3.086L91.5,9.791A2.548,2.548,0,0,1,93.81,8.238a3.209,3.209,0,0,1,.918.117Z" transform="translate(516 7783)" fill="#12263f"/>
    <path id="Trazado_188135" data-name="Trazado 188135" d="M27.73,12.965H22.34v3.4h6.367V19H18.912V4.781h9.814V7.428H22.34v3H27.73Zm6.5-1.621,1.533-2.91h3.418L36.4,13.58,39.322,19H35.885l-1.66-3.125L32.594,19H29.137l2.93-5.42L29.293,8.434H32.75Zm15.82,2.451a6.372,6.372,0,0,1-1.108,3.931,3.554,3.554,0,0,1-2.993,1.47,3.046,3.046,0,0,1-2.393-1.064v4.932H40.27V8.434h3.076l.1.977a3.046,3.046,0,0,1,2.49-1.172,3.582,3.582,0,0,1,3.037,1.44,6.45,6.45,0,0,1,1.084,3.96Zm-3.291-.205q0-2.812-1.641-2.812a1.549,1.549,0,0,0-1.562.84v4.16a1.6,1.6,0,0,0,1.582.879q1.572,0,1.621-2.715ZM54.977,19h-3.3V4h3.3Zm5.5,0h-3.3V8.434h3.3Zm-3.5-13.3a1.482,1.482,0,0,1,.508-1.159,2.149,2.149,0,0,1,2.637,0A1.482,1.482,0,0,1,60.631,5.7a1.482,1.482,0,0,1-.508,1.159,2.149,2.149,0,0,1-2.637,0A1.482,1.482,0,0,1,56.979,5.7Zm9.99,10.957a1.464,1.464,0,0,0,1.074-.376,1.379,1.379,0,0,0,.371-1.05H71.5a3.653,3.653,0,0,1-1.245,2.852A4.631,4.631,0,0,1,67.047,19.2a4.689,4.689,0,0,1-3.633-1.445,5.7,5.7,0,0,1-1.328-4v-.137a6.436,6.436,0,0,1,.591-2.827,4.3,4.3,0,0,1,1.7-1.885,5.081,5.081,0,0,1,2.637-.659,4.573,4.573,0,0,1,3.271,1.143,4.053,4.053,0,0,1,1.211,3.1H68.414a1.806,1.806,0,0,0-.4-1.26,1.382,1.382,0,0,0-1.074-.439q-1.279,0-1.494,1.631a11.508,11.508,0,0,0-.068,1.426,4.52,4.52,0,0,0,.381,2.207A1.319,1.319,0,0,0,66.969,16.656ZM78.844,19a3.716,3.716,0,0,1-.312-.947A3.06,3.06,0,0,1,75.992,19.2a3.749,3.749,0,0,1-2.539-.9,2.875,2.875,0,0,1-1.045-2.271,2.955,2.955,0,0,1,1.27-2.6,6.468,6.468,0,0,1,3.691-.879h1.016v-.559q0-1.462-1.26-1.462a1.03,1.03,0,0,0-1.172,1.158H72.662a2.95,2.95,0,0,1,1.3-2.487,5.479,5.479,0,0,1,3.325-.956,4.8,4.8,0,0,1,3.193.986,3.429,3.429,0,0,1,1.2,2.705v4.678a4.79,4.79,0,0,0,.449,2.227V19Zm-2.061-2.148a1.836,1.836,0,0,0,1.021-.264,1.653,1.653,0,0,0,.581-.6V14.3h-.957q-1.719,0-1.719,1.543a.942.942,0,0,0,.3.728A1.1,1.1,0,0,0,76.783,16.852ZM89.9,11.412l-1.084-.078a1.947,1.947,0,0,0-1.992.977V19H83.531V8.434h3.086l.107,1.357a2.548,2.548,0,0,1,2.314-1.553,3.209,3.209,0,0,1,.918.117Z" transform="translate(669 7622)" fill="#12263f"/>
    <path id="Trazado_188139" data-name="Trazado 188139" d="M25.885,16.344h-4.7L20.367,19H16.705L21.92,4.781h3.223L30.4,19H26.715ZM22.008,13.7h3.057L23.531,8.766ZM33.834,8.434l.107,1.24a3.583,3.583,0,0,1,3.018-1.436,3.015,3.015,0,0,1,2.466.986,4.7,4.7,0,0,1,.845,2.969V19h-3.3V12.33a1.783,1.783,0,0,0-.322-1.177,1.491,1.491,0,0,0-1.172-.376,1.569,1.569,0,0,0-1.436.762V19H30.748V8.434ZM48.043,19a3.716,3.716,0,0,1-.312-.947A3.06,3.06,0,0,1,45.191,19.2a3.749,3.749,0,0,1-2.539-.9,2.875,2.875,0,0,1-1.045-2.271,2.955,2.955,0,0,1,1.27-2.6,6.468,6.468,0,0,1,3.691-.879h1.016v-.559q0-1.462-1.26-1.462a1.03,1.03,0,0,0-1.172,1.158H41.861a2.95,2.95,0,0,1,1.3-2.487,5.479,5.479,0,0,1,3.325-.956,4.8,4.8,0,0,1,3.193.986,3.429,3.429,0,0,1,1.2,2.705v4.678a4.79,4.79,0,0,0,.449,2.227V19Zm-2.061-2.148A1.836,1.836,0,0,0,47,16.588a1.653,1.653,0,0,0,.581-.6V14.3h-.957q-1.719,0-1.719,1.543a.942.942,0,0,0,.3.728A1.1,1.1,0,0,0,45.982,16.852ZM56.178,19h-3.3V4h3.3Zm5.5,0h-3.3V8.434h3.3ZM58.18,5.7a1.482,1.482,0,0,1,.508-1.159,2.149,2.149,0,0,1,2.637,0A1.482,1.482,0,0,1,61.832,5.7a1.482,1.482,0,0,1-.508,1.159,2.149,2.149,0,0,1-2.637,0A1.482,1.482,0,0,1,58.18,5.7Zm9.4,10.762H72.4V19H63.424V17.164l4.688-6.191H63.629V8.434h8.662v1.777ZM79.947,19a3.716,3.716,0,0,1-.312-.947A3.06,3.06,0,0,1,77.1,19.2a3.749,3.749,0,0,1-2.539-.9,2.875,2.875,0,0,1-1.045-2.271,2.955,2.955,0,0,1,1.27-2.6,6.468,6.468,0,0,1,3.691-.879h1.016v-.559q0-1.462-1.26-1.462a1.03,1.03,0,0,0-1.172,1.158H73.766a2.95,2.95,0,0,1,1.3-2.487,5.479,5.479,0,0,1,3.325-.956,4.8,4.8,0,0,1,3.193.986,3.429,3.429,0,0,1,1.2,2.705v4.678a4.79,4.79,0,0,0,.449,2.227V19Zm-2.061-2.148a1.836,1.836,0,0,0,1.021-.264,1.653,1.653,0,0,0,.581-.6V14.3h-.957q-1.719,0-1.719,1.543a.942.942,0,0,0,.3.728A1.1,1.1,0,0,0,77.887,16.852ZM91,11.412l-1.084-.078a1.947,1.947,0,0,0-1.992.977V19H84.635V8.434h3.086l.107,1.357a2.548,2.548,0,0,1,2.314-1.553,3.209,3.209,0,0,1,.918.117Z" transform="translate(822 7622)" fill="#fff"/>
    <path id="Trazado_188140" data-name="Trazado 188140" d="M14.552,14.176V19H11.124V4.781H16.8a6.608,6.608,0,0,1,2.886.6,4.526,4.526,0,0,1,1.943,1.709,4.667,4.667,0,0,1,.688,2.515,4.114,4.114,0,0,1-1.489,3.325,6.179,6.179,0,0,1-4.087,1.245Zm0-2.646H16.8a2.118,2.118,0,0,0,1.519-.5,1.85,1.85,0,0,0,.522-1.406A2.287,2.287,0,0,0,18.3,8.033a1.9,1.9,0,0,0-1.465-.605H14.552Zm15.83-.117L29.3,11.334a1.947,1.947,0,0,0-1.992.977V19H24.015V8.434H27.1l.107,1.357a2.548,2.548,0,0,1,2.314-1.553,3.209,3.209,0,0,1,.918.117Zm.42,2.207a6.236,6.236,0,0,1,.615-2.817,4.4,4.4,0,0,1,1.768-1.9,5.323,5.323,0,0,1,2.705-.664,4.858,4.858,0,0,1,3.74,1.47,5.64,5.64,0,0,1,1.367,4v.117a5.472,5.472,0,0,1-1.372,3.921,4.871,4.871,0,0,1-3.716,1.45,4.927,4.927,0,0,1-3.623-1.353,5.29,5.29,0,0,1-1.475-3.667Zm3.291.205a3.932,3.932,0,0,0,.459,2.148,1.529,1.529,0,0,0,1.357.684q1.758,0,1.8-2.705v-.332q0-2.842-1.816-2.842-1.65,0-1.787,2.451Zm12.432.566,1.758-5.957h3.525L47.5,20.768l-.186.449a3.272,3.272,0,0,1-3.242,2.051,5.158,5.158,0,0,1-1.357-.195V20.729h.43a2.251,2.251,0,0,0,1.06-.2,1.216,1.216,0,0,0,.542-.718l.264-.7L41.339,8.434h3.516Zm11.123,4.8a5.432,5.432,0,0,1-3.936-1.45,5.008,5.008,0,0,1-1.5-3.774V13.7a6.489,6.489,0,0,1,.6-2.861,4.395,4.395,0,0,1,1.753-1.919A5.292,5.292,0,0,1,57.3,8.238,4.574,4.574,0,0,1,60.812,9.62,5.43,5.43,0,0,1,62.1,13.473v1.279H55.558a2.372,2.372,0,0,0,.771,1.4,2.3,2.3,0,0,0,1.543.508,2.958,2.958,0,0,0,2.441-1.094l1.5,1.777a4.2,4.2,0,0,1-1.743,1.353A5.891,5.891,0,0,1,57.647,19.2Zm-.371-8.418q-1.445,0-1.719,1.914h3.32v-.254a1.63,1.63,0,0,0-.4-1.226A1.593,1.593,0,0,0,57.276,10.777Zm10.615,5.879a1.464,1.464,0,0,0,1.074-.376,1.379,1.379,0,0,0,.371-1.05h3.086a3.653,3.653,0,0,1-1.245,2.852A4.631,4.631,0,0,1,67.97,19.2a4.689,4.689,0,0,1-3.633-1.445,5.7,5.7,0,0,1-1.328-4v-.137a6.436,6.436,0,0,1,.591-2.827A4.3,4.3,0,0,1,65.3,8.9a5.081,5.081,0,0,1,2.637-.659,4.573,4.573,0,0,1,3.271,1.143,4.053,4.053,0,0,1,1.211,3.1H69.337a1.806,1.806,0,0,0-.4-1.26,1.382,1.382,0,0,0-1.074-.439q-1.279,0-1.494,1.631a11.508,11.508,0,0,0-.068,1.426,4.52,4.52,0,0,0,.381,2.207A1.319,1.319,0,0,0,67.892,16.656Zm9.756-10.85V8.434h1.738v2.285H77.647v4.834a1.234,1.234,0,0,0,.215.83,1.152,1.152,0,0,0,.85.234,4.828,4.828,0,0,0,.82-.059v2.354a6.074,6.074,0,0,1-1.855.283,3.448,3.448,0,0,1-2.51-.8,3.282,3.282,0,0,1-.811-2.432V10.719H73.009V8.434h1.348V5.807ZM86.632,19a3.716,3.716,0,0,1-.312-.947A3.06,3.06,0,0,1,83.78,19.2a3.749,3.749,0,0,1-2.539-.9A2.875,2.875,0,0,1,80.2,16.021a2.955,2.955,0,0,1,1.27-2.6,6.468,6.468,0,0,1,3.691-.879h1.016v-.559q0-1.462-1.26-1.462a1.03,1.03,0,0,0-1.172,1.158H80.45a2.95,2.95,0,0,1,1.3-2.487,5.479,5.479,0,0,1,3.325-.956,4.8,4.8,0,0,1,3.193.986,3.429,3.429,0,0,1,1.2,2.705v4.678a4.79,4.79,0,0,0,.449,2.227V19Zm-2.061-2.148a1.836,1.836,0,0,0,1.021-.264,1.653,1.653,0,0,0,.581-.6V14.3h-.957q-1.719,0-1.719,1.543a.942.942,0,0,0,.3.728A1.1,1.1,0,0,0,84.571,16.852Zm13.115-5.439L96.6,11.334a1.947,1.947,0,0,0-1.992.977V19H91.319V8.434h3.086l.107,1.357a2.548,2.548,0,0,1,2.314-1.553,3.209,3.209,0,0,1,.918.117Z" transform="translate(1029 7837)" fill="#fff"/>
    <path id="Trazado_188141" data-name="Trazado 188141" d="M22.11,14.186a5.193,5.193,0,0,1-.8,2.622,4.833,4.833,0,0,1-2.056,1.763,7,7,0,0,1-3.022.625,5.584,5.584,0,0,1-4.414-1.826,7.54,7.54,0,0,1-1.611-5.156v-.7a8.607,8.607,0,0,1,.728-3.657,5.513,5.513,0,0,1,2.095-2.422,5.844,5.844,0,0,1,3.164-.854,6.129,6.129,0,0,1,4.16,1.362A5.383,5.383,0,0,1,22.14,9.693H18.722a2.547,2.547,0,0,0-.654-1.865,2.691,2.691,0,0,0-1.875-.566,2.048,2.048,0,0,0-1.875.957,6.151,6.151,0,0,0-.625,3.057v1.006a6.806,6.806,0,0,0,.571,3.252,2.091,2.091,0,0,0,1.968.977,2.632,2.632,0,0,0,1.807-.557,2.363,2.363,0,0,0,.664-1.768Zm1.055-.566A6.236,6.236,0,0,1,23.78,10.8a4.4,4.4,0,0,1,1.768-1.9,5.323,5.323,0,0,1,2.705-.664,4.858,4.858,0,0,1,3.74,1.47,5.64,5.64,0,0,1,1.367,4v.117a5.472,5.472,0,0,1-1.372,3.921,4.871,4.871,0,0,1-3.716,1.45,4.927,4.927,0,0,1-3.623-1.353,5.29,5.29,0,0,1-1.475-3.667Zm3.291.205a3.932,3.932,0,0,0,.459,2.148,1.529,1.529,0,0,0,1.357.684q1.758,0,1.8-2.705v-.332q0-2.842-1.816-2.842-1.65,0-1.787,2.451ZM37.921,8.434l.107,1.24a3.633,3.633,0,0,1,3.018-1.436A2.675,2.675,0,0,1,43.751,9.83a3.516,3.516,0,0,1,3.105-1.592q3.213,0,3.3,3.887V19h-3.3V12.33a2.014,2.014,0,0,0-.273-1.182,1.164,1.164,0,0,0-1-.371,1.559,1.559,0,0,0-1.455.869l.01.137V19h-3.3V12.35a2.117,2.117,0,0,0-.264-1.2,1.161,1.161,0,0,0-1.006-.371,1.578,1.578,0,0,0-1.445.869V19H34.835V8.434Zm23.926,5.361a6.372,6.372,0,0,1-1.108,3.931,3.554,3.554,0,0,1-2.993,1.47,3.046,3.046,0,0,1-2.393-1.064v4.932H52.062V8.434h3.076l.1.977a3.046,3.046,0,0,1,2.49-1.172,3.582,3.582,0,0,1,3.037,1.44,6.45,6.45,0,0,1,1.084,3.96Zm-3.291-.205q0-2.812-1.641-2.812a1.549,1.549,0,0,0-1.562.84v4.16a1.6,1.6,0,0,0,1.582.879q1.572,0,1.621-2.715ZM69.249,19a3.716,3.716,0,0,1-.312-.947A3.06,3.06,0,0,1,66.4,19.2a3.749,3.749,0,0,1-2.539-.9,2.875,2.875,0,0,1-1.045-2.271,2.955,2.955,0,0,1,1.27-2.6,6.468,6.468,0,0,1,3.691-.879H68.79v-.559q0-1.462-1.26-1.462a1.03,1.03,0,0,0-1.172,1.158H63.067a2.95,2.95,0,0,1,1.3-2.487A5.479,5.479,0,0,1,67.7,8.238a4.8,4.8,0,0,1,3.193.986,3.429,3.429,0,0,1,1.2,2.705v4.678a4.79,4.79,0,0,0,.449,2.227V19Zm-2.061-2.148a1.836,1.836,0,0,0,1.021-.264,1.653,1.653,0,0,0,.581-.6V14.3h-.957q-1.719,0-1.719,1.543a.942.942,0,0,0,.3.728A1.1,1.1,0,0,0,67.188,16.852ZM80.3,11.412l-1.084-.078a1.947,1.947,0,0,0-1.992.977V19H73.937V8.434h3.086l.107,1.357a2.548,2.548,0,0,1,2.314-1.553,3.209,3.209,0,0,1,.918.117ZM87.149,19a3.716,3.716,0,0,1-.312-.947A3.06,3.06,0,0,1,84.3,19.2a3.749,3.749,0,0,1-2.539-.9,2.875,2.875,0,0,1-1.045-2.271,2.955,2.955,0,0,1,1.27-2.6,6.468,6.468,0,0,1,3.691-.879H86.69v-.559q0-1.462-1.26-1.462a1.03,1.03,0,0,0-1.172,1.158H80.968a2.95,2.95,0,0,1,1.3-2.487A5.479,5.479,0,0,1,85.6,8.238a4.8,4.8,0,0,1,3.193.986,3.429,3.429,0,0,1,1.2,2.705v4.678a4.79,4.79,0,0,0,.449,2.227V19Zm-2.061-2.148a1.836,1.836,0,0,0,1.021-.264,1.653,1.653,0,0,0,.581-.6V14.3h-.957q-1.719,0-1.719,1.543a.942.942,0,0,0,.3.728A1.1,1.1,0,0,0,85.089,16.852ZM98.2,11.412l-1.084-.078a1.947,1.947,0,0,0-1.992.977V19H91.837V8.434h3.086l.107,1.357a2.548,2.548,0,0,1,2.314-1.553,3.209,3.209,0,0,1,.918.117Z" transform="translate(938 7679)" fill="#fff"/>
    <path id="Trazado_188146" data-name="Trazado 188146" d="M31.153,16.344h-4.7L25.636,19H21.974L27.188,4.781h3.223L35.665,19H31.983ZM27.276,13.7h3.057L28.8,8.766Zm18.613.1a6.372,6.372,0,0,1-1.108,3.931,3.554,3.554,0,0,1-2.993,1.47A3.046,3.046,0,0,1,39.4,18.131v4.932H36.1V8.434h3.076l.1.977a3.046,3.046,0,0,1,2.49-1.172,3.582,3.582,0,0,1,3.037,1.44,6.45,6.45,0,0,1,1.084,3.96ZM42.6,13.59q0-2.812-1.641-2.812a1.549,1.549,0,0,0-1.562.84v4.16a1.6,1.6,0,0,0,1.582.879q1.572,0,1.621-2.715ZM50.812,19h-3.3V4h3.3Zm5.5,0h-3.3V8.434h3.3Zm-3.5-13.3a1.482,1.482,0,0,1,.508-1.159,2.149,2.149,0,0,1,2.637,0A1.482,1.482,0,0,1,56.466,5.7a1.482,1.482,0,0,1-.508,1.159,2.149,2.149,0,0,1-2.637,0A1.482,1.482,0,0,1,52.813,5.7ZM62.8,16.656a1.464,1.464,0,0,0,1.074-.376,1.379,1.379,0,0,0,.371-1.05h3.086a3.653,3.653,0,0,1-1.245,2.852A4.631,4.631,0,0,1,62.882,19.2a4.689,4.689,0,0,1-3.633-1.445,5.7,5.7,0,0,1-1.328-4v-.137a6.436,6.436,0,0,1,.591-2.827,4.3,4.3,0,0,1,1.7-1.885,5.081,5.081,0,0,1,2.637-.659,4.573,4.573,0,0,1,3.271,1.143,4.053,4.053,0,0,1,1.211,3.1H64.249a1.806,1.806,0,0,0-.4-1.26,1.382,1.382,0,0,0-1.074-.439q-1.279,0-1.494,1.631a11.507,11.507,0,0,0-.068,1.426,4.52,4.52,0,0,0,.381,2.207A1.319,1.319,0,0,0,62.8,16.656ZM74.679,19a3.716,3.716,0,0,1-.312-.947A3.06,3.06,0,0,1,71.827,19.2a3.749,3.749,0,0,1-2.539-.9,2.875,2.875,0,0,1-1.045-2.271,2.955,2.955,0,0,1,1.27-2.6,6.468,6.468,0,0,1,3.691-.879H74.22v-.559q0-1.462-1.26-1.462a1.03,1.03,0,0,0-1.172,1.158H68.5a2.95,2.95,0,0,1,1.3-2.487,5.479,5.479,0,0,1,3.325-.956,4.8,4.8,0,0,1,3.193.986,3.429,3.429,0,0,1,1.2,2.705v4.678a4.79,4.79,0,0,0,.449,2.227V19Zm-2.061-2.148a1.836,1.836,0,0,0,1.021-.264,1.653,1.653,0,0,0,.581-.6V14.3h-.957q-1.719,0-1.719,1.543a.942.942,0,0,0,.3.728A1.1,1.1,0,0,0,72.618,16.852Zm13.115-5.439-1.084-.078a1.947,1.947,0,0,0-1.992.977V19H79.366V8.434h3.086l.107,1.357a2.548,2.548,0,0,1,2.314-1.553,3.209,3.209,0,0,1,.918.117Z" transform="translate(945 8037)" fill="#fff"/>
    <path id="Trazado_188150" data-name="Trazado 188150" d="M30.538,12.965H25.147v3.4h6.367V19H21.72V4.781h9.814V7.428H25.147v3h5.391Zm6.182,2.119,1.67-6.65h3.467L38.409,19H35.05L31.6,8.434h3.477ZM48.644,19a3.716,3.716,0,0,1-.312-.947A3.06,3.06,0,0,1,45.792,19.2a3.749,3.749,0,0,1-2.539-.9,2.875,2.875,0,0,1-1.045-2.271,2.955,2.955,0,0,1,1.27-2.6,6.468,6.468,0,0,1,3.691-.879h1.016v-.559q0-1.462-1.26-1.462a1.03,1.03,0,0,0-1.172,1.158H42.462a2.95,2.95,0,0,1,1.3-2.487,5.479,5.479,0,0,1,3.325-.956,4.8,4.8,0,0,1,3.193.986,3.429,3.429,0,0,1,1.2,2.705v4.678a4.79,4.79,0,0,0,.449,2.227V19Zm-2.061-2.148a1.836,1.836,0,0,0,1.021-.264,1.653,1.653,0,0,0,.581-.6V14.3h-.957q-1.719,0-1.719,1.543a.942.942,0,0,0,.3.728A1.1,1.1,0,0,0,46.583,16.852ZM56.778,19h-3.3V4h3.3Zm8.32-1.143A3.393,3.393,0,0,1,62.276,19.2a3.328,3.328,0,0,1-2.632-1.011,4.251,4.251,0,0,1-.894-2.905V8.434h3.291V15.3a1.183,1.183,0,0,0,1.318,1.357,1.72,1.72,0,0,0,1.611-.811V8.434h3.311V19H65.2ZM76.036,19a3.716,3.716,0,0,1-.312-.947A3.06,3.06,0,0,1,73.185,19.2a3.749,3.749,0,0,1-2.539-.9A2.875,2.875,0,0,1,69.6,16.021a2.955,2.955,0,0,1,1.27-2.6,6.468,6.468,0,0,1,3.691-.879h1.016v-.559q0-1.462-1.26-1.462a1.03,1.03,0,0,0-1.172,1.158H69.854a2.95,2.95,0,0,1,1.3-2.487,5.479,5.479,0,0,1,3.325-.956,4.8,4.8,0,0,1,3.193.986,3.429,3.429,0,0,1,1.2,2.705v4.678a4.79,4.79,0,0,0,.449,2.227V19Zm-2.061-2.148A1.836,1.836,0,0,0,75,16.588a1.653,1.653,0,0,0,.581-.6V14.3H74.62q-1.719,0-1.719,1.543a.942.942,0,0,0,.3.728A1.1,1.1,0,0,0,73.976,16.852Zm13.115-5.439-1.084-.078a1.947,1.947,0,0,0-1.992.977V19H80.724V8.434H83.81l.107,1.357a2.548,2.548,0,0,1,2.314-1.553,3.209,3.209,0,0,1,.918.117Z" transform="translate(809 8110)" fill="#fff"/>
    <path id="Trazado_188149" data-name="Trazado 188149" d="M23.8,7.428H19.533V19H16.105V7.428H11.916V4.781H23.8Zm7.051,3.984-1.084-.078a1.947,1.947,0,0,0-1.992.977V19H24.484V8.434H27.57l.107,1.357a2.548,2.548,0,0,1,2.314-1.553,3.209,3.209,0,0,1,.918.117ZM37.7,19a3.716,3.716,0,0,1-.312-.947A3.06,3.06,0,0,1,34.846,19.2a3.749,3.749,0,0,1-2.539-.9,2.875,2.875,0,0,1-1.045-2.271,2.955,2.955,0,0,1,1.27-2.6,6.468,6.468,0,0,1,3.691-.879h1.016v-.559q0-1.462-1.26-1.462a1.03,1.03,0,0,0-1.172,1.158H31.516a2.95,2.95,0,0,1,1.3-2.487,5.479,5.479,0,0,1,3.325-.956,4.8,4.8,0,0,1,3.193.986,3.429,3.429,0,0,1,1.2,2.705v4.678a4.79,4.79,0,0,0,.449,2.227V19Zm-2.061-2.148a1.836,1.836,0,0,0,1.021-.264,1.653,1.653,0,0,0,.581-.6V14.3h-.957q-1.719,0-1.719,1.543a.942.942,0,0,0,.3.728A1.1,1.1,0,0,0,35.637,16.852Zm9.746-8.418.107,1.24a3.583,3.583,0,0,1,3.018-1.436,3.015,3.015,0,0,1,2.466.986,4.7,4.7,0,0,1,.845,2.969V19h-3.3V12.33a1.783,1.783,0,0,0-.322-1.177,1.491,1.491,0,0,0-1.172-.376,1.569,1.569,0,0,0-1.436.762V19H42.3V8.434Zm13.789,7.6a.76.76,0,0,0-.439-.674,6.685,6.685,0,0,0-1.67-.527,7.615,7.615,0,0,1-2.031-.718,3.4,3.4,0,0,1-1.221-1.079,2.577,2.577,0,0,1-.42-1.455,2.92,2.92,0,0,1,1.2-2.4,4.948,4.948,0,0,1,3.145-.942,5.482,5.482,0,0,1,3.359.947,2.962,2.962,0,0,1,1.27,2.49h-3.3q0-1.27-1.338-1.27a1.326,1.326,0,0,0-.869.288.892.892,0,0,0-.352.718.819.819,0,0,0,.43.713,4.06,4.06,0,0,0,1.372.449,11.857,11.857,0,0,1,1.655.42,3.007,3.007,0,0,1,2.383,2.939,2.767,2.767,0,0,1-1.284,2.354,5.632,5.632,0,0,1-3.325.908,5.747,5.747,0,0,1-2.422-.488,4.05,4.05,0,0,1-1.66-1.328,3.007,3.007,0,0,1-.6-1.768h3.076a1.272,1.272,0,0,0,.488,1.069,2.009,2.009,0,0,0,1.2.337,1.58,1.58,0,0,0,1.011-.273A.875.875,0,0,0,59.172,16.031ZM64.611,19V10.719H63.078V8.434h1.533v-.84a3.651,3.651,0,0,1,1.064-2.8,4.206,4.206,0,0,1,2.988-1A6.544,6.544,0,0,1,70.207,4l.01,2.422a3.007,3.007,0,0,0-.811-.088q-1.494,0-1.494,1.289v.811h2.061v2.285H67.912V19Zm6.1-5.381A6.236,6.236,0,0,1,71.33,10.8,4.4,4.4,0,0,1,73.1,8.9,5.323,5.323,0,0,1,75.8,8.238a4.858,4.858,0,0,1,3.74,1.47,5.64,5.64,0,0,1,1.367,4v.117a5.472,5.472,0,0,1-1.372,3.921,4.871,4.871,0,0,1-3.716,1.45A4.927,4.927,0,0,1,72.2,17.843a5.29,5.29,0,0,1-1.475-3.667Zm3.291.205a3.932,3.932,0,0,0,.459,2.148,1.529,1.529,0,0,0,1.357.684q1.758,0,1.8-2.705v-.332q0-2.842-1.816-2.842-1.65,0-1.787,2.451Zm14.746-2.412-1.084-.078a1.947,1.947,0,0,0-1.992.977V19H82.385V8.434h3.086l.107,1.357a2.548,2.548,0,0,1,2.314-1.553,3.209,3.209,0,0,1,.918.117Zm4.3-2.979.107,1.24a3.633,3.633,0,0,1,3.018-1.436A2.675,2.675,0,0,1,98.879,9.83a3.517,3.517,0,0,1,3.105-1.592q3.213,0,3.3,3.887V19h-3.3V12.33a2.014,2.014,0,0,0-.273-1.182,1.164,1.164,0,0,0-1-.371,1.559,1.559,0,0,0-1.455.869l.01.137V19h-3.3V12.35a2.117,2.117,0,0,0-.264-1.2,1.161,1.161,0,0,0-1.006-.371,1.578,1.578,0,0,0-1.445.869V19H89.963V8.434ZM113.117,19a3.716,3.716,0,0,1-.312-.947,3.06,3.06,0,0,1-2.539,1.143,3.749,3.749,0,0,1-2.539-.9,2.875,2.875,0,0,1-1.045-2.271,2.955,2.955,0,0,1,1.27-2.6,6.468,6.468,0,0,1,3.691-.879h1.016v-.559q0-1.462-1.26-1.462a1.03,1.03,0,0,0-1.172,1.158h-3.291a2.95,2.95,0,0,1,1.3-2.487,5.479,5.479,0,0,1,3.325-.956,4.8,4.8,0,0,1,3.193.986,3.429,3.429,0,0,1,1.2,2.705v4.678a4.79,4.79,0,0,0,.449,2.227V19Zm-2.061-2.148a1.836,1.836,0,0,0,1.021-.264,1.653,1.653,0,0,0,.581-.6V14.3H111.7q-1.719,0-1.719,1.543a.942.942,0,0,0,.3.728A1.1,1.1,0,0,0,111.057,16.852Zm13.115-5.439-1.084-.078a1.947,1.947,0,0,0-1.992.977V19H117.8V8.434h3.086L121,9.791a2.548,2.548,0,0,1,2.314-1.553,3.209,3.209,0,0,1,.918.117Z" transform="translate(618 8084)" fill="#2c0b4b"/>
    <path id="Trazado_188142" data-name="Trazado 188142" d="M9.15,16.344h-4.7L3.633,19H-.029L5.186,4.781H8.408L13.662,19H9.98ZM5.273,13.7H8.33L6.8,8.766Zm13.74,2.959a1.464,1.464,0,0,0,1.074-.376,1.379,1.379,0,0,0,.371-1.05h3.086A3.653,3.653,0,0,1,22.3,18.082,4.631,4.631,0,0,1,19.092,19.2a4.689,4.689,0,0,1-3.633-1.445,5.7,5.7,0,0,1-1.328-4v-.137a6.436,6.436,0,0,1,.591-2.827,4.3,4.3,0,0,1,1.7-1.885,5.081,5.081,0,0,1,2.637-.659,4.573,4.573,0,0,1,3.271,1.143,4.053,4.053,0,0,1,1.211,3.1H20.459a1.807,1.807,0,0,0-.4-1.26,1.382,1.382,0,0,0-1.074-.439q-1.279,0-1.494,1.631a11.508,11.508,0,0,0-.068,1.426,4.52,4.52,0,0,0,.381,2.207A1.319,1.319,0,0,0,19.014,16.656Zm10.391,0a1.464,1.464,0,0,0,1.074-.376,1.379,1.379,0,0,0,.371-1.05h3.086a3.653,3.653,0,0,1-1.245,2.852A4.631,4.631,0,0,1,29.482,19.2,4.689,4.689,0,0,1,25.85,17.75a5.7,5.7,0,0,1-1.328-4v-.137a6.436,6.436,0,0,1,.591-2.827,4.3,4.3,0,0,1,1.7-1.885,5.081,5.081,0,0,1,2.637-.659,4.573,4.573,0,0,1,3.271,1.143,4.053,4.053,0,0,1,1.211,3.1H30.85a1.807,1.807,0,0,0-.4-1.26,1.382,1.382,0,0,0-1.074-.439q-1.279,0-1.494,1.631a11.508,11.508,0,0,0-.068,1.426,4.52,4.52,0,0,0,.381,2.207A1.319,1.319,0,0,0,29.4,16.656ZM38.8,19H35.5V8.434h3.3ZM35.3,5.7a1.482,1.482,0,0,1,.508-1.159,2.149,2.149,0,0,1,2.637,0A1.482,1.482,0,0,1,38.955,5.7a1.482,1.482,0,0,1-.508,1.159,2.149,2.149,0,0,1-2.637,0A1.482,1.482,0,0,1,35.3,5.7Zm5.107,7.92a6.236,6.236,0,0,1,.615-2.817,4.4,4.4,0,0,1,1.768-1.9A5.323,5.323,0,0,1,45.5,8.238a4.858,4.858,0,0,1,3.74,1.47,5.64,5.64,0,0,1,1.367,4v.117a5.472,5.472,0,0,1-1.372,3.921,4.871,4.871,0,0,1-3.716,1.45,4.927,4.927,0,0,1-3.623-1.353,5.29,5.29,0,0,1-1.475-3.667Zm3.291.205a3.932,3.932,0,0,0,.459,2.148,1.529,1.529,0,0,0,1.357.684q1.758,0,1.8-2.705v-.332q0-2.842-1.816-2.842-1.65,0-1.787,2.451ZM45.947,4h3.477L46.709,7.066l-2.686,0Zm9.131,4.434.107,1.24A3.583,3.583,0,0,1,58.2,8.238a3.015,3.015,0,0,1,2.466.986,4.7,4.7,0,0,1,.845,2.969V19h-3.3V12.33a1.783,1.783,0,0,0-.322-1.177,1.491,1.491,0,0,0-1.172-.376,1.569,1.569,0,0,0-1.436.762V19H51.992V8.434ZM74.268,19a3.716,3.716,0,0,1-.312-.947A3.06,3.06,0,0,1,71.416,19.2a3.749,3.749,0,0,1-2.539-.9,2.875,2.875,0,0,1-1.045-2.271,2.955,2.955,0,0,1,1.27-2.6,6.468,6.468,0,0,1,3.691-.879h1.016v-.559q0-1.462-1.26-1.462a1.03,1.03,0,0,0-1.172,1.158H68.086a2.95,2.95,0,0,1,1.3-2.487,5.479,5.479,0,0,1,3.325-.956,4.8,4.8,0,0,1,3.193.986,3.429,3.429,0,0,1,1.2,2.705v4.678a4.79,4.79,0,0,0,.449,2.227V19Zm-2.061-2.148a1.836,1.836,0,0,0,1.021-.264,1.653,1.653,0,0,0,.581-.6V14.3h-.957q-1.719,0-1.719,1.543a.942.942,0,0,0,.3.728A1.1,1.1,0,0,0,72.207,16.852Zm13.115-5.439-1.084-.078a1.947,1.947,0,0,0-1.992.977V19H78.955V8.434h3.086l.107,1.357a2.548,2.548,0,0,1,2.314-1.553,3.209,3.209,0,0,1,.918.117Zm.615,2.227a7.134,7.134,0,0,1,.527-2.832,4.245,4.245,0,0,1,1.514-1.9,3.99,3.99,0,0,1,2.295-.669,3.173,3.173,0,0,1,2.578,1.113l.117-.918h2.988V18.6a4.455,4.455,0,0,1-.649,2.427,4.167,4.167,0,0,1-1.88,1.582,6.91,6.91,0,0,1-2.852.552,5.961,5.961,0,0,1-2.251-.439,4.063,4.063,0,0,1-1.665-1.143l1.377-1.934a3.018,3.018,0,0,0,2.422,1.084,1.96,1.96,0,0,0,2.188-2.246V18.15A3.09,3.09,0,0,1,90.254,19.2a3.819,3.819,0,0,1-3.125-1.479,6.13,6.13,0,0,1-1.191-3.96Zm3.3.205a3.759,3.759,0,0,0,.488,2.056,1.541,1.541,0,0,0,1.367.757,1.748,1.748,0,0,0,1.553-.713V11.5a1.7,1.7,0,0,0-1.533-.723,1.551,1.551,0,0,0-1.377.786A4.287,4.287,0,0,0,89.238,13.844Zm14.883,4.014A3.393,3.393,0,0,1,101.3,19.2a3.328,3.328,0,0,1-2.632-1.011,4.251,4.251,0,0,1-.894-2.905V8.434h3.291V15.3a1.183,1.183,0,0,0,1.318,1.357,1.72,1.72,0,0,0,1.611-.811V8.434H107.3V19h-3.086Zm8.1-9.424.107,1.24a3.633,3.633,0,0,1,3.018-1.436,2.675,2.675,0,0,1,2.705,1.592,3.517,3.517,0,0,1,3.105-1.592q3.213,0,3.3,3.887V19h-3.3V12.33a2.014,2.014,0,0,0-.273-1.182,1.164,1.164,0,0,0-1-.371,1.559,1.559,0,0,0-1.455.869l.01.137V19h-3.3V12.35a2.117,2.117,0,0,0-.264-1.2,1.161,1.161,0,0,0-1.006-.371,1.578,1.578,0,0,0-1.445.869V19h-3.291V8.434ZM131.445,19.2a5.432,5.432,0,0,1-3.936-1.45,5.008,5.008,0,0,1-1.5-3.774V13.7a6.489,6.489,0,0,1,.6-2.861,4.395,4.395,0,0,1,1.753-1.919,5.292,5.292,0,0,1,2.734-.679,4.574,4.574,0,0,1,3.516,1.382,5.43,5.43,0,0,1,1.289,3.853v1.279h-6.543a2.372,2.372,0,0,0,.771,1.4,2.3,2.3,0,0,0,1.543.508,2.958,2.958,0,0,0,2.441-1.094l1.5,1.777a4.2,4.2,0,0,1-1.743,1.353A5.891,5.891,0,0,1,131.445,19.2Zm-.371-8.418q-1.445,0-1.719,1.914h3.32v-.254a1.63,1.63,0,0,0-.4-1.226A1.593,1.593,0,0,0,131.074,10.777Zm9.17-2.344.107,1.24a3.583,3.583,0,0,1,3.018-1.436,3.015,3.015,0,0,1,2.466.986,4.7,4.7,0,0,1,.845,2.969V19h-3.3V12.33a1.783,1.783,0,0,0-.322-1.177,1.491,1.491,0,0,0-1.172-.376,1.569,1.569,0,0,0-1.436.762V19h-3.291V8.434Zm12.09-2.627V8.434h1.738v2.285h-1.738v4.834a1.234,1.234,0,0,0,.215.83,1.152,1.152,0,0,0,.85.234,4.828,4.828,0,0,0,.82-.059v2.354a6.074,6.074,0,0,1-1.855.283,3.448,3.448,0,0,1-2.51-.8,3.282,3.282,0,0,1-.811-2.432V10.719H147.7V8.434h1.348V5.807ZM161.318,19a3.716,3.716,0,0,1-.312-.947,3.06,3.06,0,0,1-2.539,1.143,3.749,3.749,0,0,1-2.539-.9,2.875,2.875,0,0,1-1.045-2.271,2.955,2.955,0,0,1,1.27-2.6,6.468,6.468,0,0,1,3.691-.879h1.016v-.559q0-1.462-1.26-1.462a1.03,1.03,0,0,0-1.172,1.158h-3.291a2.95,2.95,0,0,1,1.3-2.487,5.479,5.479,0,0,1,3.325-.956,4.8,4.8,0,0,1,3.193.986,3.429,3.429,0,0,1,1.2,2.705v4.678a4.79,4.79,0,0,0,.449,2.227V19Zm-2.061-2.148a1.836,1.836,0,0,0,1.021-.264,1.653,1.653,0,0,0,.581-.6V14.3H159.9q-1.719,0-1.719,1.543a.942.942,0,0,0,.3.728A1.1,1.1,0,0,0,159.258,16.852ZM169.814,5.807V8.434h1.738v2.285h-1.738v4.834a1.234,1.234,0,0,0,.215.83,1.152,1.152,0,0,0,.85.234,4.828,4.828,0,0,0,.82-.059v2.354a6.074,6.074,0,0,1-1.855.283,3.448,3.448,0,0,1-2.51-.8,3.282,3.282,0,0,1-.811-2.432V10.719h-1.348V8.434h1.348V5.807ZM176.318,19h-3.3V8.434h3.3Zm-3.5-13.3a1.482,1.482,0,0,1,.508-1.159,2.149,2.149,0,0,1,2.637,0,1.482,1.482,0,0,1,.508,1.159,1.482,1.482,0,0,1-.508,1.159,2.149,2.149,0,0,1-2.637,0A1.482,1.482,0,0,1,172.822,5.7Zm9.736,9.385,1.67-6.65H187.7L184.248,19h-3.359L177.441,8.434h3.477ZM194.482,19a3.716,3.716,0,0,1-.312-.947,3.06,3.06,0,0,1-2.539,1.143,3.749,3.749,0,0,1-2.539-.9,2.875,2.875,0,0,1-1.045-2.271,2.955,2.955,0,0,1,1.27-2.6,6.468,6.468,0,0,1,3.691-.879h1.016v-.559q0-1.462-1.26-1.462a1.03,1.03,0,0,0-1.172,1.158H188.3a2.95,2.95,0,0,1,1.3-2.487,5.479,5.479,0,0,1,3.325-.956,4.8,4.8,0,0,1,3.193.986,3.429,3.429,0,0,1,1.2,2.705v4.678a4.79,4.79,0,0,0,.449,2.227V19Zm-2.061-2.148a1.836,1.836,0,0,0,1.021-.264,1.653,1.653,0,0,0,.581-.6V14.3h-.957q-1.719,0-1.719,1.543a.942.942,0,0,0,.3.728A1.1,1.1,0,0,0,192.422,16.852Z" transform="translate(1032.99 7570.846)" fill="#12263f"/>
    <path id="Trazado_188151" data-name="Trazado 188151" d="M9.15,16.344h-4.7L3.633,19H-.029L5.186,4.781H8.408L13.662,19H9.98ZM5.273,13.7H8.33L6.8,8.766Zm13.74,2.959a1.464,1.464,0,0,0,1.074-.376,1.379,1.379,0,0,0,.371-1.05h3.086A3.653,3.653,0,0,1,22.3,18.082,4.631,4.631,0,0,1,19.092,19.2a4.689,4.689,0,0,1-3.633-1.445,5.7,5.7,0,0,1-1.328-4v-.137a6.436,6.436,0,0,1,.591-2.827,4.3,4.3,0,0,1,1.7-1.885,5.081,5.081,0,0,1,2.637-.659,4.573,4.573,0,0,1,3.271,1.143,4.053,4.053,0,0,1,1.211,3.1H20.459a1.807,1.807,0,0,0-.4-1.26,1.382,1.382,0,0,0-1.074-.439q-1.279,0-1.494,1.631a11.508,11.508,0,0,0-.068,1.426,4.52,4.52,0,0,0,.381,2.207A1.319,1.319,0,0,0,19.014,16.656Zm10.391,0a1.464,1.464,0,0,0,1.074-.376,1.379,1.379,0,0,0,.371-1.05h3.086a3.653,3.653,0,0,1-1.245,2.852A4.631,4.631,0,0,1,29.482,19.2,4.689,4.689,0,0,1,25.85,17.75a5.7,5.7,0,0,1-1.328-4v-.137a6.436,6.436,0,0,1,.591-2.827,4.3,4.3,0,0,1,1.7-1.885,5.081,5.081,0,0,1,2.637-.659,4.573,4.573,0,0,1,3.271,1.143,4.053,4.053,0,0,1,1.211,3.1H30.85a1.807,1.807,0,0,0-.4-1.26,1.382,1.382,0,0,0-1.074-.439q-1.279,0-1.494,1.631a11.508,11.508,0,0,0-.068,1.426,4.52,4.52,0,0,0,.381,2.207A1.319,1.319,0,0,0,29.4,16.656ZM38.8,19H35.5V8.434h3.3ZM35.3,5.7a1.482,1.482,0,0,1,.508-1.159,2.149,2.149,0,0,1,2.637,0A1.482,1.482,0,0,1,38.955,5.7a1.482,1.482,0,0,1-.508,1.159,2.149,2.149,0,0,1-2.637,0A1.482,1.482,0,0,1,35.3,5.7Zm5.107,7.92a6.236,6.236,0,0,1,.615-2.817,4.4,4.4,0,0,1,1.768-1.9A5.323,5.323,0,0,1,45.5,8.238a4.858,4.858,0,0,1,3.74,1.47,5.64,5.64,0,0,1,1.367,4v.117a5.472,5.472,0,0,1-1.372,3.921,4.871,4.871,0,0,1-3.716,1.45,4.927,4.927,0,0,1-3.623-1.353,5.29,5.29,0,0,1-1.475-3.667Zm3.291.205a3.932,3.932,0,0,0,.459,2.148,1.529,1.529,0,0,0,1.357.684q1.758,0,1.8-2.705v-.332q0-2.842-1.816-2.842-1.65,0-1.787,2.451ZM45.947,4h3.477L46.709,7.066l-2.686,0Zm9.131,4.434.107,1.24A3.583,3.583,0,0,1,58.2,8.238a3.015,3.015,0,0,1,2.466.986,4.7,4.7,0,0,1,.845,2.969V19h-3.3V12.33a1.783,1.783,0,0,0-.322-1.177,1.491,1.491,0,0,0-1.172-.376,1.569,1.569,0,0,0-1.436.762V19H51.992V8.434Zm23.047,5.361a6.372,6.372,0,0,1-1.108,3.931,3.554,3.554,0,0,1-2.993,1.47,3.046,3.046,0,0,1-2.393-1.064v4.932H68.34V8.434h3.076l.1.977A3.046,3.046,0,0,1,74,8.238a3.582,3.582,0,0,1,3.037,1.44,6.45,6.45,0,0,1,1.084,3.96Zm-3.291-.205q0-2.812-1.641-2.812a1.549,1.549,0,0,0-1.562.84v4.16a1.6,1.6,0,0,0,1.582.879q1.572,0,1.621-2.715Zm11.133-2.178-1.084-.078a1.947,1.947,0,0,0-1.992.977V19H79.6V8.434h3.086l.107,1.357a2.548,2.548,0,0,1,2.314-1.553,3.209,3.209,0,0,1,.918.117Zm.42,2.207A6.236,6.236,0,0,1,87,10.8,4.4,4.4,0,0,1,88.77,8.9a5.323,5.323,0,0,1,2.705-.664,4.858,4.858,0,0,1,3.74,1.47,5.64,5.64,0,0,1,1.367,4v.117a5.472,5.472,0,0,1-1.372,3.921,4.871,4.871,0,0,1-3.716,1.45,4.927,4.927,0,0,1-3.623-1.353A5.29,5.29,0,0,1,86.4,14.176Zm3.291.205a3.932,3.932,0,0,0,.459,2.148,1.529,1.529,0,0,0,1.357.684q1.758,0,1.8-2.705v-.332q0-2.842-1.816-2.842-1.65,0-1.787,2.451Zm18.164-.029a6.372,6.372,0,0,1-1.108,3.931,3.554,3.554,0,0,1-2.993,1.47,3.046,3.046,0,0,1-2.393-1.064v4.932H98.057V8.434h3.076l.1.977a3.046,3.046,0,0,1,2.49-1.172,3.582,3.582,0,0,1,3.037,1.44,6.45,6.45,0,0,1,1.084,3.96Zm-3.291-.205q0-2.812-1.641-2.812a1.549,1.549,0,0,0-1.562.84v4.16a1.6,1.6,0,0,0,1.582.879q1.572,0,1.621-2.715Zm4.326.029a6.236,6.236,0,0,1,.615-2.817,4.4,4.4,0,0,1,1.768-1.9,5.323,5.323,0,0,1,2.705-.664,4.858,4.858,0,0,1,3.74,1.47,5.64,5.64,0,0,1,1.367,4v.117a5.472,5.472,0,0,1-1.372,3.921,4.871,4.871,0,0,1-3.716,1.45,4.927,4.927,0,0,1-3.623-1.353,5.29,5.29,0,0,1-1.475-3.667Zm3.291.205a3.932,3.932,0,0,0,.459,2.148,1.529,1.529,0,0,0,1.357.684q1.758,0,1.8-2.705v-.332q0-2.842-1.816-2.842-1.65,0-1.787,2.451Zm13.887,2.207a.76.76,0,0,0-.439-.674,6.685,6.685,0,0,0-1.67-.527,7.615,7.615,0,0,1-2.031-.718,3.4,3.4,0,0,1-1.221-1.079,2.577,2.577,0,0,1-.42-1.455,2.92,2.92,0,0,1,1.2-2.4,4.948,4.948,0,0,1,3.145-.942,5.482,5.482,0,0,1,3.359.947,2.962,2.962,0,0,1,1.27,2.49h-3.3q0-1.27-1.338-1.27a1.326,1.326,0,0,0-.869.288.892.892,0,0,0-.352.718.819.819,0,0,0,.43.713,4.06,4.06,0,0,0,1.372.449,11.857,11.857,0,0,1,1.655.42,3.007,3.007,0,0,1,2.383,2.939,2.767,2.767,0,0,1-1.284,2.354,5.631,5.631,0,0,1-3.325.908,5.747,5.747,0,0,1-2.422-.488,4.05,4.05,0,0,1-1.66-1.328,3.007,3.007,0,0,1-.6-1.768h3.076a1.272,1.272,0,0,0,.488,1.069,2.009,2.009,0,0,0,1.2.337,1.58,1.58,0,0,0,1.011-.273A.875.875,0,0,0,126.055,16.031ZM134.238,19h-3.3V8.434h3.3Zm-3.5-13.3a1.482,1.482,0,0,1,.508-1.159,2.149,2.149,0,0,1,2.637,0,1.482,1.482,0,0,1,.508,1.159,1.482,1.482,0,0,1-.508,1.159,2.149,2.149,0,0,1-2.637,0A1.482,1.482,0,0,1,130.742,5.7Zm9.355.107V8.434h1.738v2.285H140.1v4.834a1.234,1.234,0,0,0,.215.83,1.152,1.152,0,0,0,.85.234,4.828,4.828,0,0,0,.82-.059v2.354a6.074,6.074,0,0,1-1.855.283,3.448,3.448,0,0,1-2.51-.8,3.282,3.282,0,0,1-.811-2.432V10.719h-1.348V8.434h1.348V5.807ZM146.6,19h-3.3V8.434h3.3Zm-3.5-13.3a1.482,1.482,0,0,1,.508-1.159,2.149,2.149,0,0,1,2.637,0,1.482,1.482,0,0,1,.508,1.159,1.482,1.482,0,0,1-.508,1.159,2.149,2.149,0,0,1-2.637,0A1.482,1.482,0,0,1,143.105,5.7Zm9.736,9.385,1.67-6.65h3.467L154.531,19h-3.359L147.725,8.434H151.2ZM164.766,19a3.716,3.716,0,0,1-.312-.947,3.06,3.06,0,0,1-2.539,1.143,3.749,3.749,0,0,1-2.539-.9,2.875,2.875,0,0,1-1.045-2.271,2.955,2.955,0,0,1,1.27-2.6,6.468,6.468,0,0,1,3.691-.879h1.016v-.559q0-1.462-1.26-1.462a1.03,1.03,0,0,0-1.172,1.158h-3.291a2.95,2.95,0,0,1,1.3-2.487,5.479,5.479,0,0,1,3.325-.956,4.8,4.8,0,0,1,3.193.986,3.429,3.429,0,0,1,1.2,2.705v4.678a4.79,4.79,0,0,0,.449,2.227V19Zm-2.061-2.148a1.836,1.836,0,0,0,1.021-.264,1.653,1.653,0,0,0,.581-.6V14.3h-.957q-1.719,0-1.719,1.543a.942.942,0,0,0,.3.728A1.1,1.1,0,0,0,162.705,16.852Z" transform="translate(856 8233)" fill="#12263f"/>
  </g>
</svg>
