<svg xmlns="http://www.w3.org/2000/svg" width="505" height="286.229" viewBox="0 0 505 286.229">
  <g id="Webinar-pana" transform="translate(-22.73 -46.432)">
    <g id="freepik--background-complete--inject-8" transform="translate(27.24 45.528)">
      <path id="Trazado_187294" data-name="Trazado 187294" d="M583.7,202.63H685.7l-16.616,11.991v23.625a4.925,4.925,0,0,1-4.925,4.925H583.7a4.925,4.925,0,0,1-4.925-4.925V207.555a4.925,4.925,0,0,1,4.925-4.925Z" transform="translate(-185.213 -90.161)" fill="#f5f5f5"/>
      <path id="Trazado_187295" data-name="Trazado 187295" d="M591.59,225.849c0,.1,15.385.179,34.363.179s34.363-.079,34.363-.179-15.385-.179-34.363-.179S591.59,225.749,591.59,225.849Z" transform="translate(-188.856 -96.707)" fill="#e0e0e0"/>
      <path id="Trazado_187296" data-name="Trazado 187296" d="M591.59,238.5c0,.1,15.385.179,34.363.179s34.363-.079,34.363-.179-15.385-.179-34.363-.179S591.59,238.406,591.59,238.5Z" transform="translate(-188.856 -100.301)" fill="#e0e0e0"/>
      <rect id="Rectángulo_38668" data-name="Rectángulo 38668" width="4.775" height="15.993" transform="translate(238.78 25.416)" fill="#e0e0e0"/>
      <rect id="Rectángulo_38669" data-name="Rectángulo 38669" width="4.775" height="18.305" transform="translate(198.905 23.104)" fill="#e0e0e0"/>
      <rect id="Rectángulo_38670" data-name="Rectángulo 38670" width="4.775" height="22.121" transform="translate(208.877 19.288)" fill="#e0e0e0"/>
      <rect id="Rectángulo_38671" data-name="Rectángulo 38671" width="4.775" height="20.911" transform="translate(218.842 20.498)" fill="#e0e0e0"/>
      <rect id="Rectángulo_38672" data-name="Rectángulo 38672" width="4.775" height="27.984" transform="translate(228.807 13.425)" fill="#e0e0e0"/>
      <rect id="Rectángulo_38673" data-name="Rectángulo 38673" width="4.775" height="27.848" transform="translate(248.745 13.561)" fill="#e0e0e0"/>
      <rect id="Rectángulo_38674" data-name="Rectángulo 38674" width="4.775" height="18.699" transform="translate(258.718 22.71)" fill="#e0e0e0"/>
      <rect id="Rectángulo_38675" data-name="Rectángulo 38675" width="4.775" height="26.624" transform="translate(268.683 14.785)" fill="#e0e0e0"/>
      <rect id="Rectángulo_38676" data-name="Rectángulo 38676" width="4.775" height="32.616" transform="translate(278.655 8.793)" fill="#e0e0e0"/>
      <rect id="Rectángulo_38677" data-name="Rectángulo 38677" width="4.775" height="26.76" transform="translate(288.621 14.649)" fill="#e0e0e0"/>
      <path id="Trazado_187299" data-name="Trazado 187299" d="M51.479,197.137a19.573,19.573,0,1,1,19.888,19.329A19.573,19.573,0,0,1,51.479,197.137Zm28.929-.473a9.385,9.385,0,1,0-2.632,6.692A9.357,9.357,0,0,0,80.409,196.664Z" transform="translate(-35.408 -82.971)" fill="#f5f5f5"/>
      <path id="Trazado_187300" data-name="Trazado 187300" d="M51.479,197.071A19.644,19.644,0,0,1,70.736,177.09l.165,10.259a9.407,9.407,0,0,0,.279,18.807l.186,10.244a19.637,19.637,0,0,1-19.888-19.329Z" transform="translate(-35.407 -82.905)" fill="#e0e0e0"/>
      <path id="Trazado_187301" data-name="Trazado 187301" d="M75.93,174.878a22.379,22.379,0,0,1,22.909,22.286l-11.955.186c-.093-6.064-4.711-9.879-10.738-9.779Z" transform="translate(-42.354 -82.275)" fill="#ebebeb"/>
      <rect id="Rectángulo_38678" data-name="Rectángulo 38678" width="24.885" height="29.581" transform="translate(118.359 183.207)" fill="#f5f5f5"/>
      <rect id="Rectángulo_38679" data-name="Rectángulo 38679" width="112.446" height="33.368" transform="translate(6.78 181.274)" fill="#e0e0e0"/>
      <path id="Trazado_187302" data-name="Trazado 187302" d="M219.141,301.546H191.35V298.74h27.791a1.432,1.432,0,0,1,1.432,1.432h0a1.432,1.432,0,0,1-1.432,1.375Z" transform="translate(-75.146 -117.466)" fill="#e0e0e0"/>
      <path id="Trazado_187303" data-name="Trazado 187303" d="M219.141,344.236H191.35V341.43h27.791a1.432,1.432,0,0,1,1.432,1.432h0a1.432,1.432,0,0,1-1.432,1.375Z" transform="translate(-75.146 -129.595)" fill="#e0e0e0"/>
      <rect id="Rectángulo_38680" data-name="Rectángulo 38680" width="13.287" height="33.368" transform="translate(97.097 181.274)" fill="#ebebeb"/>
      <rect id="Rectángulo_38681" data-name="Rectángulo 38681" width="13.287" height="33.368" transform="translate(17.468 181.646)" fill="#ebebeb"/>
      <path id="Trazado_187304" data-name="Trazado 187304" d="M219.574,308.21c0,.086-5.384.15-12.027.15s-12.027-.064-12.027-.15,5.383-.15,12.027-.15S219.574,308.132,219.574,308.21Z" transform="translate(-76.33 -120.114)" fill="#e0e0e0"/>
      <path id="Trazado_187305" data-name="Trazado 187305" d="M219.574,314.41c0,.079-5.384.143-12.027.143s-12.027-.064-12.027-.143,5.383-.15,12.027-.15S219.574,314.324,219.574,314.41Z" transform="translate(-76.33 -121.876)" fill="#e0e0e0"/>
      <path id="Trazado_187306" data-name="Trazado 187306" d="M219.574,322.04c0,.079-5.384.143-12.027.143s-12.027-.064-12.027-.143,5.383-.15,12.027-.15S219.574,321.969,219.574,322.04Z" transform="translate(-76.33 -124.043)" fill="#e0e0e0"/>
      <path id="Trazado_187307" data-name="Trazado 187307" d="M219.574,329.663c0,.086-5.384.15-12.027.15s-12.027-.064-12.027-.15,5.383-.143,12.027-.143S219.574,329.584,219.574,329.663Z" transform="translate(-76.33 -126.211)" fill="#e0e0e0"/>
      <path id="Trazado_187308" data-name="Trazado 187308" d="M219.574,337.293c0,.086-5.384.15-12.027.15s-12.027-.064-12.027-.15,5.383-.143,12.027-.143S219.574,337.214,219.574,337.293Z" transform="translate(-76.33 -128.379)" fill="#e0e0e0"/>
      <rect id="Rectángulo_38682" data-name="Rectángulo 38682" width="50.585" height="6.006" transform="translate(39.367 194.99)" fill="#ebebeb"/>
      <rect id="Rectángulo_38683" data-name="Rectángulo 38683" width="25.264" height="18.026" transform="translate(117.729 215.3)" fill="#fafafa"/>
      <rect id="Rectángulo_38684" data-name="Rectángulo 38684" width="107.513" height="19.329" transform="translate(10.502 214.642)" fill="#f5f5f5"/>
      <path id="Trazado_187309" data-name="Trazado 187309" d="M192.78,346.66h27.154a.651.651,0,0,0,.651-.651h0a.659.659,0,0,0-.651-.659H192.78Z" transform="translate(-75.552 -130.709)" fill="#f5f5f5"/>
      <path id="Trazado_187310" data-name="Trazado 187310" d="M192.78,370.53h27.5a.3.3,0,0,1,.3.3v.716a.3.3,0,0,1-.3.3h-27.5V370.53Z" transform="translate(-75.552 -137.862)" fill="#f5f5f5"/>
      <path id="Trazado_187311" data-name="Trazado 187311" d="M218.855,350.99c0,.079-5.6.15-12.492.15s-12.492-.072-12.492-.15,5.591-.15,12.492-.15S218.855,350.912,218.855,350.99Z" transform="translate(-75.862 -132.268)" fill="#e0e0e0"/>
      <path id="Trazado_187312" data-name="Trazado 187312" d="M218.855,355.753c0,.086-5.6.15-12.492.15s-12.492-.064-12.492-.15,5.591-.143,12.492-.143S218.855,355.674,218.855,355.753Z" transform="translate(-75.862 -133.623)" fill="#e0e0e0"/>
      <path id="Trazado_187313" data-name="Trazado 187313" d="M218.855,360.52c0,.079-5.6.143-12.492.143s-12.492-.064-12.492-.143,5.591-.15,12.492-.15S218.855,360.434,218.855,360.52Z" transform="translate(-75.862 -134.976)" fill="#e0e0e0"/>
      <path id="Trazado_187314" data-name="Trazado 187314" d="M218.855,365.28c0,.079-5.6.143-12.492.143s-12.492-.064-12.492-.143,5.591-.15,12.492-.15S218.855,365.194,218.855,365.28Z" transform="translate(-75.862 -136.328)" fill="#e0e0e0"/>
      <rect id="Rectángulo_38685" data-name="Rectángulo 38685" width="25.787" height="48.86" transform="translate(121.037 235.696)" fill="#ebebeb"/>
      <rect id="Rectángulo_38686" data-name="Rectángulo 38686" width="121.037" height="52.976" transform="translate(0 233.978)" fill="#e0e0e0"/>
      <path id="Trazado_187315" data-name="Trazado 187315" d="M224.593,444.986H193.48V441.55h31.113a1.725,1.725,0,0,1,1.718,1.718h0a1.718,1.718,0,0,1-1.718,1.718Z" transform="translate(-75.751 -158.039)" fill="#e0e0e0"/>
      <path id="Trazado_187316" data-name="Trazado 187316" d="M193.48,372.36h32.043a.787.787,0,0,1,.788.787v1.861a.788.788,0,0,1-.788.787H193.48V372.36Z" transform="translate(-75.751 -138.382)" fill="#e0e0e0"/>
      <path id="Trazado_187317" data-name="Trazado 187317" d="M223.892,383.843c0,.086-5.77.15-12.886.15s-12.886-.064-12.886-.15,5.77-.143,12.886-.143S223.892,383.764,223.892,383.843Z" transform="translate(-77.069 -141.604)" fill="#e0e0e0"/>
      <path id="Trazado_187318" data-name="Trazado 187318" d="M223.892,392.6c0,.079-5.77.143-12.886.143s-12.886-.064-12.886-.143,5.77-.15,12.886-.15S223.892,392.514,223.892,392.6Z" transform="translate(-77.069 -144.09)" fill="#e0e0e0"/>
      <path id="Trazado_187319" data-name="Trazado 187319" d="M223.892,401.35c0,.079-5.77.15-12.886.15s-12.886-.072-12.886-.15,5.77-.15,12.886-.15S223.892,401.272,223.892,401.35Z" transform="translate(-77.069 -146.576)" fill="#e0e0e0"/>
      <path id="Trazado_187320" data-name="Trazado 187320" d="M223.892,410.1c0,.086-5.77.15-12.886.15s-12.886-.064-12.886-.15,5.77-.143,12.886-.143S223.892,410.024,223.892,410.1Z" transform="translate(-77.069 -149.064)" fill="#e0e0e0"/>
      <path id="Trazado_187321" data-name="Trazado 187321" d="M223.892,418.86c0,.079-5.77.143-12.886.143s-12.886-.064-12.886-.143,5.77-.15,12.886-.15S223.892,418.774,223.892,418.86Z" transform="translate(-77.069 -151.55)" fill="#e0e0e0"/>
      <path id="Trazado_187322" data-name="Trazado 187322" d="M223.892,427.61c0,.079-5.77.15-12.886.15s-12.886-.072-12.886-.15,5.77-.15,12.886-.15S223.892,427.532,223.892,427.61Z" transform="translate(-77.069 -154.036)" fill="#e0e0e0"/>
      <path id="Trazado_187323" data-name="Trazado 187323" d="M223.892,436.363c0,.086-5.77.15-12.886.15s-12.886-.065-12.886-.15,5.77-.143,12.886-.143S223.892,436.284,223.892,436.363Z" transform="translate(-77.069 -156.525)" fill="#e0e0e0"/>
      <path id="Trazado_187324" data-name="Trazado 187324" d="M82.755,407.778v2.95c0,3.579-1.775,5.577-5.2,5.577s-5.2-2.026-5.2-5.577V399.194c0-3.579,1.775-5.584,5.2-5.584s5.2,2.033,5.2,5.584v2.148H79.462v-2.37c0-1.589-.716-2.191-1.8-2.191s-1.811.6-1.811,2.191v11.977c0,1.589.716,2.148,1.811,2.148s1.8-.566,1.8-2.148v-3.171Z" transform="translate(-41.34 -144.419)" fill="#ebebeb"/>
      <path id="Trazado_187325" data-name="Trazado 187325" d="M89.45,399.194c0-3.579,1.868-5.584,5.29-5.584s5.29,2.033,5.29,5.584v11.533c0,3.579-1.868,5.577-5.29,5.577s-5.29-2.026-5.29-5.577Zm3.486,11.755c0,1.589.716,2.191,1.8,2.191s1.8-.6,1.8-2.191V398.972c0-1.589-.716-2.191-1.8-2.191s-1.8.6-1.8,2.191Z" transform="translate(-46.196 -144.419)" fill="#ebebeb"/>
      <path id="Trazado_187326" data-name="Trazado 187326" d="M107.37,394h3.486v19.014h5.727v3.179H107.37Z" transform="translate(-51.287 -144.53)" fill="#ebebeb"/>
      <path id="Trazado_187327" data-name="Trazado 187327" d="M122,399.194c0-3.579,1.868-5.584,5.29-5.584s5.3,2.033,5.3,5.584v11.533c0,3.579-1.868,5.577-5.3,5.577s-5.29-2.026-5.29-5.577Zm3.486,11.755c0,1.589.716,2.191,1.8,2.191s1.811-.6,1.811-2.191V398.972c0-1.589-.716-2.191-1.811-2.191s-1.8.6-1.8,2.191Z" transform="translate(-55.443 -144.419)" fill="#ebebeb"/>
      <path id="Trazado_187328" data-name="Trazado 187328" d="M143.176,394v17.117c0,1.582.716,2.148,1.8,2.148s1.8-.573,1.8-2.148V394h3.3v16.9c0,3.544-1.775,5.577-5.2,5.577s-5.2-2.033-5.2-5.577V394Z" transform="translate(-60.469 -144.53)" fill="#ebebeb"/>
      <path id="Trazado_187329" data-name="Trazado 187329" d="M164.815,416.193a6.723,6.723,0,0,1-.322-2.728v-3.486c0-2.062-.716-2.821-2.277-2.821h-1.21v9.035H157.52V394h5.262c3.579,0,5.169,1.682,5.169,5.1v1.74c0,2.284-.716,3.773-2.284,4.5,1.747.716,2.312,2.405,2.312,4.718v3.429a6.492,6.492,0,0,0,.387,2.692Zm-3.809-19.014v6.808h1.367c1.3,0,2.09-.566,2.09-2.341v-2.191c0-1.582-.537-2.277-1.775-2.277Z" transform="translate(-65.535 -144.53)" fill="#ebebeb"/>
      <path id="Trazado_187330" data-name="Trazado 187330" d="M84.821,355.739H82.28l.136-.659h5.835l-.143.659H85.573l-1.31,6.543h-.752Z" transform="translate(-44.159 -133.473)" fill="#e0e0e0"/>
      <path id="Trazado_187331" data-name="Trazado 187331" d="M94.6,357.567l-3.952,6.114c-.673,1.031-1.174,1.353-1.954,1.353a1.754,1.754,0,0,1-1.289-.48l.387-.537a1.3,1.3,0,0,0,.959.394c.465,0,.823-.222,1.246-.88l.379-.573-1.346-5.384h.716l1.145,4.6,2.957-4.61Z" transform="translate(-45.616 -134.177)" fill="#e0e0e0"/>
      <path id="Trazado_187332" data-name="Trazado 187332" d="M103.3,359.793a3.05,3.05,0,0,1-3.064,3.222,2.033,2.033,0,0,1-2.062-1.181l-.616,3.129H96.84l1.475-7.41h.716l-.172.866a2.735,2.735,0,0,1,2.148-.909,2.183,2.183,0,0,1,2.291,2.284Zm-.716.043a1.589,1.589,0,0,0-1.783-1.689,2.362,2.362,0,0,0-2.355,2.577,1.575,1.575,0,0,0,1.783,1.682,2.363,2.363,0,0,0,2.334-2.57Z" transform="translate(-48.295 -134.162)" fill="#e0e0e0"/>
      <path id="Trazado_187333" data-name="Trazado 187333" d="M107.049,360.724a3.071,3.071,0,0,1,3.128-3.214,2.22,2.22,0,0,1,2.463,2.284,3.078,3.078,0,0,1-3.128,3.222,2.226,2.226,0,0,1-2.463-2.291Zm4.861-.888a1.589,1.589,0,0,0-1.783-1.69,2.384,2.384,0,0,0-2.348,2.541,1.582,1.582,0,0,0,1.783,1.682,2.37,2.37,0,0,0,2.348-2.534Z" transform="translate(-51.194 -134.163)" fill="#e0e0e0"/>
      <path id="Trazado_187334" data-name="Trazado 187334" d="M122.06,357.557l-.945,4.754c-.379,1.919-1.389,2.706-3.15,2.706a3.451,3.451,0,0,1-2.405-.809l.43-.558a2.864,2.864,0,0,0,2.033.716,2.148,2.148,0,0,0,2.341-1.94l.129-.594a2.792,2.792,0,0,1-2.148.923,2.139,2.139,0,0,1-2.391-2.148,2.992,2.992,0,0,1,3.086-3.071,2.076,2.076,0,0,1,2.112,1.238l.229-1.2Zm-1.231,2.148c0-.988-.666-1.575-1.79-1.575a2.3,2.3,0,0,0-2.355,2.391c0,.988.659,1.575,1.79,1.575a2.3,2.3,0,0,0,2.355-2.37Z" transform="translate(-53.614 -134.168)" fill="#e0e0e0"/>
      <path id="Trazado_187335" data-name="Trazado 187335" d="M129.8,357.507l-.136.716h-.2a2.15,2.15,0,0,0-2.2,2l-.544,2.749h-.716l1.074-5.412h.716l-.222,1.009a2.456,2.456,0,0,1,2.226-1.067Z" transform="translate(-56.582 -134.16)" fill="#e0e0e0"/>
      <path id="Trazado_187336" data-name="Trazado 187336" d="M137.581,357.548l-1.081,5.412h-.716l.172-.852a2.756,2.756,0,0,1-2.1.9,2.183,2.183,0,0,1-2.362-2.291,3.05,3.05,0,0,1,3.057-3.214,2.033,2.033,0,0,1,2.062,1.174l.229-1.131Zm-1.217,2.284a1.589,1.589,0,0,0-1.783-1.69,2.377,2.377,0,0,0-2.341,2.541A1.575,1.575,0,0,0,134,362.366a2.37,2.37,0,0,0,2.348-2.534Z" transform="translate(-58.138 -134.159)" fill="#e0e0e0"/>
      <path id="Trazado_187337" data-name="Trazado 187337" d="M147.227,359.792a3.05,3.05,0,0,1-3.064,3.221,2.033,2.033,0,0,1-2.062-1.181l-.616,3.129h-.716l1.468-7.409h.716l-.172.866a2.721,2.721,0,0,1,2.1-.909,2.191,2.191,0,0,1,2.341,2.284Zm-.716.043a1.589,1.589,0,0,0-1.783-1.689,2.362,2.362,0,0,0-2.362,2.577,1.575,1.575,0,0,0,1.775,1.682,2.362,2.362,0,0,0,2.348-2.57Z" transform="translate(-60.776 -134.161)" fill="#e0e0e0"/>
      <path id="Trazado_187338" data-name="Trazado 187338" d="M156.7,358.435a3.135,3.135,0,0,1-.057.616l-.616,3.078h-.716l.623-3.085a3.214,3.214,0,0,0,.05-.494c0-.773-.465-1.217-1.432-1.217a2.1,2.1,0,0,0-2.2,1.9l-.58,2.9h-.716l1.525-7.639h.716l-.608,3.035a2.664,2.664,0,0,1,2.069-.852C156.028,356.652,156.7,357.311,156.7,358.435Z" transform="translate(-63.699 -133.305)" fill="#e0e0e0"/>
      <path id="Trazado_187339" data-name="Trazado 187339" d="M165.65,357.57l-3.937,6.114c-.673,1.031-1.174,1.346-1.954,1.346a1.754,1.754,0,0,1-1.289-.48l.394-.537a1.267,1.267,0,0,0,.952.394c.465,0,.823-.222,1.246-.88l.387-.573L160.1,357.57h.716l1.117,4.61,2.957-4.61Z" transform="translate(-65.804 -134.18)" fill="#e0e0e0"/>
      <path id="Trazado_187340" data-name="Trazado 187340" d="M43.209,46.79H153.02l-17.9,12.886V85.069a5.3,5.3,0,0,1-5.3,5.3H43.195a5.3,5.3,0,0,1-5.3-5.3V52.095a5.3,5.3,0,0,1,5.319-5.3Z" transform="translate(-31.547 -45.886)" fill="#f5f5f5"/>
      <path id="Trazado_187341" data-name="Trazado 187341" d="M155.524,71.783c0,.107-16.559.193-36.983.193s-36.99-.093-36.99-.193,16.559-.193,36.99-.193S155.524,71.676,155.524,71.783Z" transform="translate(-43.951 -52.932)" fill="#e0e0e0"/>
      <path id="Trazado_187342" data-name="Trazado 187342" d="M155.524,85.4c0,.107-16.559.193-36.983.193s-36.99-.086-36.99-.193,16.559-.193,36.99-.193S155.524,85.3,155.524,85.4Z" transform="translate(-43.951 -56.802)" fill="#e0e0e0"/>
    </g>
    <g id="freepik--Table--inject-8" transform="translate(22.73 332.289)">
      <path id="Trazado_187343" data-name="Trazado 187343" d="M524.244,446.276c0,.107-112.281.186-250.742.186s-250.771-.079-250.771-.186,112.252-.186,250.771-.186S524.244,446.176,524.244,446.276Z" transform="translate(-22.73 -446.09)" fill="#263238"/>
    </g>
    <g id="freepik--Plants--inject-8" transform="translate(41.014 211.507)">
      <path id="Trazado_187344" data-name="Trazado 187344" d="M645.266,370.274s-18.978-21.835-26.137-43.67-3.758-19.329-3.758-19.329,9.664,21.219,17,31.464,20.446,25.271,20.446,25.271Z" transform="translate(-209.156 -285.846)" fill="#455a64"/>
      <path id="Trazado_187345" data-name="Trazado 187345" d="M661.908,311.771a1.1,1.1,0,0,0-2.055.716c1.153,7.674,3.658,25.679,3.579,37.355-.129,15.17,0,21.033,0,21.033h7.875s-1.432-31.356-3.186-40.921C666.876,323.269,664.249,315.823,661.908,311.771Z" transform="translate(-222.018 -286.984)" fill="#455a64"/>
      <path id="Trazado_187346" data-name="Trazado 187346" d="M668.75,367.262a83.76,83.76,0,0,0,6.5-23.582c.651-5.584-.515-13.13-2.241-23.2a62.8,62.8,0,0,1-1-11.161,1.883,1.883,0,0,1,3.536-.888c.952,1.7,3.715,7.517,4.417,11.154,1.911,9.944,4.073,14.919,2.42,24.34s-7.775,23.968-7.775,23.968Z" transform="translate(-224.55 -285.919)" fill="#455a64"/>
      <path id="Trazado_187347" data-name="Trazado 187347" d="M678.68,363.122s20.84-44.779,22.286-51.423,6.35-21.949,6.93-21.083,1.432,8.956-2.312,18.2S685.8,364.482,685.8,364.482H678.68" transform="translate(-227.372 -281.127)" fill="#455a64"/>
      <path id="Trazado_187348" data-name="Trazado 187348" d="M651.173,366.055a4.814,4.814,0,0,1-.587-.4c-.365-.279-.931-.673-1.611-1.231a72.121,72.121,0,0,1-5.6-4.947,93.781,93.781,0,0,1-15.12-19.4,126.8,126.8,0,0,1-10.316-22.35c-1.045-2.971-1.811-5.405-2.305-7.1-.258-.838-.437-1.5-.558-1.947a3.755,3.755,0,0,1-.157-.716,4.44,4.44,0,0,1,.243.666l.637,1.926c.544,1.675,1.353,4.095,2.434,7.044a135.7,135.7,0,0,0,10.409,22.236,97.722,97.722,0,0,0,14.969,19.422c2.226,2.219,4.138,3.9,5.484,5.011.666.58,1.21,1,1.561,1.3A4.382,4.382,0,0,1,651.173,366.055Z" transform="translate(-209.257 -286.065)" fill="#263238"/>
      <path id="Trazado_187349" data-name="Trazado 187349" d="M666.621,345.915a8,8,0,0,1-.186-1.31c-.1-.931-.229-2.148-.379-3.579-.329-3.035-.845-7.209-1.582-11.8s-1.561-8.72-2.2-11.7c-.308-1.432-.566-2.62-.759-3.529a7.971,7.971,0,0,1-.236-1.31,7.637,7.637,0,0,1,.4,1.267c.236.823.544,2.019.9,3.5.716,2.964,1.589,7.095,2.327,11.7s1.2,8.791,1.432,11.834c.129,1.525.208,2.756.243,3.579A6.436,6.436,0,0,1,666.621,345.915Z" transform="translate(-222.428 -287.409)" fill="#263238"/>
      <path id="Trazado_187350" data-name="Trazado 187350" d="M674.728,308.35a3.345,3.345,0,0,1,.243.573c.165.422.372.974.63,1.661s.587,1.611.895,2.67.716,2.234,1.009,3.58l.515,2.1c.179.716.3,1.511.458,2.305.344,1.589.551,3.315.8,5.126a76.347,76.347,0,0,1-.845,23.668c-.379,1.79-.716,3.493-1.167,5.054-.215.78-.394,1.546-.623,2.262s-.451,1.432-.666,2.069c-.4,1.324-.88,2.477-1.267,3.5s-.759,1.9-1.081,2.6l-.716,1.611a3.1,3.1,0,0,1-.287.551,3.172,3.172,0,0,1,.208-.587l.659-1.647c.3-.716.659-1.582,1.009-2.613s.823-2.191,1.2-3.515c.2-.659.415-1.346.637-2.062s.387-1.482.594-2.262c.437-1.561.716-3.257,1.124-5.011a79.218,79.218,0,0,0,.845-23.546c-.243-1.8-.437-3.522-.759-5.1-.157-.795-.272-1.568-.437-2.3s-.329-1.432-.487-2.1c-.279-1.346-.659-2.534-.945-3.579s-.565-1.947-.816-2.677-.408-1.26-.544-1.689A3.214,3.214,0,0,1,674.728,308.35Z" transform="translate(-225.653 -286.176)" fill="#263238"/>
      <path id="Trazado_187351" data-name="Trazado 187351" d="M709,291.89a.537.537,0,0,1,0,.2,4.759,4.759,0,0,1-.093.58c-.093.508-.207,1.267-.408,2.234a81.308,81.308,0,0,1-2.148,8.061c-1.074,3.365-2.456,7.3-4.145,11.641s-3.637,9.056-5.484,14.082-3.329,9.922-4.689,14.361-2.62,8.448-3.859,11.741a75.665,75.665,0,0,1-3.286,7.66c-.429.888-.816,1.546-1.059,2l-.294.508a.714.714,0,0,1-.114.172.8.8,0,0,1,.072-.193l.258-.53c.222-.473.58-1.145.981-2.04.838-1.775,1.969-4.381,3.15-7.689s2.434-7.295,3.766-11.748,2.771-9.364,4.653-14.4,3.823-9.758,5.527-14.082,3.157-8.247,4.224-11.59,1.8-6.092,2.248-8c.229-.952.372-1.7.494-2.205.057-.229.1-.415.136-.573A.653.653,0,0,1,709,291.89Z" transform="translate(-228.718 -281.499)" fill="#263238"/>
      <path id="Trazado_187352" data-name="Trazado 187352" d="M628.2,277.873a1.8,1.8,0,0,0-2.957,1.833,51.019,51.019,0,0,0,2.62,6.729c2.864,6.092,11.283,27.92,15.22,39.926s9.485,34.363,9.485,34.363l8.412-1.36s-7.7-36.761-15.177-50.041C639.73,298.705,633.688,283.328,628.2,277.873Z" transform="translate(-212.168 -277.376)" fill="#455a64"/>
      <path id="Trazado_187353" data-name="Trazado 187353" d="M653.41,356.28a4.91,4.91,0,0,1,.437,1.01c.25.659.587,1.618.966,2.821.773,2.4,1.725,5.727,2.677,9.471s1.747,7.116,2.3,9.572c.258,1.16.465,2.148.637,2.914a5.619,5.619,0,0,1,.172,1.081,5.122,5.122,0,0,1-.344-1.038c-.2-.766-.458-1.732-.766-2.864l-2.427-9.564c-.952-3.723-1.854-7.08-2.549-9.493l-.83-2.864A5.459,5.459,0,0,1,653.41,356.28Z" transform="translate(-220.192 -299.793)" fill="#263238"/>
      <path id="Trazado_187354" data-name="Trazado 187354" d="M657.182,360.194a1.015,1.015,0,0,1-.043-.222,5.21,5.21,0,0,0-.1-.666c-.086-.58-.165-1.432-.344-2.549-.308-2.2-.859-5.391-1.761-9.271A134.486,134.486,0,0,0,651,334.049c-1.725-5.011-3.887-10.366-6.343-15.943-4.947-11.132-9.887-21-13.137-28.3-1.639-3.644-2.914-6.615-3.751-8.691-.43-1.031-.716-1.84-.945-2.391-.093-.258-.172-.458-.236-.63a.8.8,0,0,1-.065-.215,1.765,1.765,0,0,1,.108.2c.064.136.165.365.279.608l1.017,2.362c.888,2.047,2.2,5.011,3.88,8.591,3.315,7.266,8.3,17.11,13.258,28.256,2.455,5.584,4.61,10.982,6.321,15.986a128.068,128.068,0,0,1,3.859,13.523,94.288,94.288,0,0,1,1.625,9.307c.15,1.11.2,1.976.265,2.563,0,.272.036.487.05.666A.912.912,0,0,1,657.182,360.194Z" transform="translate(-212.553 -277.519)" fill="#263238"/>
      <path id="Trazado_187355" data-name="Trazado 187355" d="M671.558,377.884a9.751,9.751,0,0,1-.286-1.432c-.165-.988-.387-2.291-.651-3.866-.58-3.257-1.432-7.746-2.735-12.628s-2.685-9.242-3.773-12.364l-1.289-3.68a8.524,8.524,0,0,1-.444-1.375,9.455,9.455,0,0,1,.608,1.31c.358.852.867,2.1,1.432,3.651a121.75,121.75,0,0,1,3.909,12.356,129.023,129.023,0,0,1,2.613,12.693c.244,1.639.422,2.971.516,3.894A9.614,9.614,0,0,1,671.558,377.884Z" transform="translate(-222.741 -295.889)" fill="#263238"/>
      <rect id="Rectángulo_38687" data-name="Rectángulo 38687" width="32.831" height="39.997" transform="translate(433.246 80.785)" fill="#7e57c2"/>
      <g id="Grupo_124258" data-name="Grupo 124258" transform="translate(433.246 80.785)" opacity="0.3">
        <rect id="Rectángulo_38688" data-name="Rectángulo 38688" width="32.831" height="39.997"/>
      </g>
      <rect id="Rectángulo_38689" data-name="Rectángulo 38689" width="29.123" height="39.997" transform="translate(426.481 80.785)" fill="#7e57c2"/>
      <path id="Trazado_187356" data-name="Trazado 187356" d="M78.067,369.731a17.319,17.319,0,0,0-18.785.15c-5.169,3.615-7.8,10.187-7.567,16.466s3.286,14,8.992,17.31l16.752-.072a22.494,22.494,0,0,0,9.221-16.9A19.542,19.542,0,0,0,78.067,369.731Z" transform="translate(-49.244 -302.849)" fill="#455a64"/>
      <path id="Trazado_187357" data-name="Trazado 187357" d="M76.35,404.538a7.56,7.56,0,0,1-.1-1.432c0-1.031-.072-2.348-.115-3.93-.086-3.315-.215-7.875-.437-12.951s-.494-9.636-.716-12.951c-.093-1.575-.172-2.864-.236-3.923a7.459,7.459,0,0,1,0-1.432,7.943,7.943,0,0,1,.229,1.432c.115.924.251,2.262.408,3.916.3,3.307.63,7.875.859,12.951s.294,9.658.279,12.979c0,1.661,0,3-.057,3.93A7.874,7.874,0,0,1,76.35,404.538Z" transform="translate(-55.782 -303.1)" fill="#263238"/>
      <path id="Trazado_187358" data-name="Trazado 187358" d="M52.483,391.86c0,.143-.924.193-2.033.1s-2-.286-1.99-.43.924-.193,2.033-.107S52.5,391.71,52.483,391.86Z" transform="translate(-48.324 -309.765)" fill="#263238"/>
      <path id="Trazado_187359" data-name="Trazado 187359" d="M53.212,383.555c-.064.136-.845-.079-1.754-.487s-1.6-.838-1.539-.974.845.086,1.754.487S53.269,383.447,53.212,383.555Z" transform="translate(-48.737 -307.115)" fill="#263238"/>
      <path id="Trazado_187360" data-name="Trazado 187360" d="M57.279,377.215c-.079.122-.959-.293-1.876-1.052s-1.5-1.554-1.389-1.647.838.494,1.725,1.231S57.358,377.086,57.279,377.215Z" transform="translate(-49.898 -304.971)" fill="#263238"/>
      <path id="Trazado_187361" data-name="Trazado 187361" d="M62.1,371.5c-.136.057-.558-.6-.945-1.475s-.594-1.632-.458-1.7.558.6.945,1.482S62.225,371.442,62.1,371.5Z" transform="translate(-51.787 -303.215)" fill="#263238"/>
      <path id="Trazado_187362" data-name="Trazado 187362" d="M68.617,367.468c-.136.057-.587-.644-.895-1.618s-.329-1.818-.186-1.84.408.716.716,1.675S68.753,367.4,68.617,367.468Z" transform="translate(-53.719 -301.989)" fill="#263238"/>
      <path id="Trazado_187363" data-name="Trazado 187363" d="M79.382,364.409c.143.05.057.651-.186,1.346s-.558,1.21-.716,1.16-.057-.644.186-1.339S79.246,364.359,79.382,364.409Z" transform="translate(-56.831 -302.101)" fill="#263238"/>
      <path id="Trazado_187364" data-name="Trazado 187364" d="M86.914,367.812c.1.107-.265.609-.816,1.117s-1.074.83-1.174.716.265-.609.809-1.117S86.813,367.7,86.914,367.812Z" transform="translate(-58.678 -303.063)" fill="#263238"/>
      <path id="Trazado_187365" data-name="Trazado 187365" d="M93.78,372.318c.086.122-.358.566-.988,1s-1.21.673-1.3.551.365-.566,1-1S93.7,372.2,93.78,372.318Z" transform="translate(-60.547 -304.34)" fill="#263238"/>
      <path id="Trazado_187366" data-name="Trazado 187366" d="M98.325,379.034c.057.136-.637.566-1.561.959s-1.718.6-1.775.465.644-.565,1.568-.952S98.267,378.9,98.325,379.034Z" transform="translate(-61.542 -306.246)" fill="#263238"/>
      <path id="Trazado_187367" data-name="Trazado 187367" d="M100.32,386.337c0,.143-.716.358-1.6.465s-1.632.086-1.654-.064.716-.351,1.589-.465S100.3,386.186,100.32,386.337Z" transform="translate(-62.134 -308.294)" fill="#263238"/>
      <path id="Trazado_187368" data-name="Trazado 187368" d="M101.357,394.855c-.057.136-.816-.064-1.689-.444s-1.546-.8-1.489-.938.823.064,1.7.444S101.422,394.719,101.357,394.855Z" transform="translate(-62.448 -310.347)" fill="#263238"/>
      <path id="Trazado_187369" data-name="Trazado 187369" d="M100.334,402.256c-.05.136-1.009-.093-2.012-.752s-1.6-1.432-1.5-1.539.838.473,1.79,1.088S100.384,402.134,100.334,402.256Z" transform="translate(-62.061 -312.2)" fill="#263238"/>
      <path id="Trazado_187370" data-name="Trazado 187370" d="M96.654,409.109c-.086.115-.852-.329-1.582-1.124s-1.124-1.582-1.009-1.668.716.551,1.432,1.3S96.754,408.994,96.654,409.109Z" transform="translate(-61.274 -314.006)" fill="#263238"/>
      <path id="Trazado_187371" data-name="Trazado 187371" d="M57.856,411.04c.064.129-.716.716-1.8,1.231a5.609,5.609,0,0,1-2.062.766c-.093-.115.716-.716,1.79-1.238S57.784,410.911,57.856,411.04Z" transform="translate(-49.895 -315.343)" fill="#263238"/>
      <path id="Trazado_187372" data-name="Trazado 187372" d="M54.661,404.653c.057.136-.587.558-1.432.945s-1.6.594-1.661.458.587-.558,1.432-.945S54.6,404.517,54.661,404.653Z" transform="translate(-49.205 -313.524)" fill="#263238"/>
      <path id="Trazado_187373" data-name="Trazado 187373" d="M51.885,398.961c0,.143-.773.379-1.775.523s-1.818.136-1.84,0,.773-.379,1.768-.515S51.864,398.825,51.885,398.961Z" transform="translate(-48.269 -311.891)" fill="#263238"/>
      <path id="Trazado_187374" data-name="Trazado 187374" d="M60.318,395.873c.043.143-.716.5-1.754.616s-1.868-.064-1.854-.208.816-.208,1.79-.322S60.275,395.73,60.318,395.873Z" transform="translate(-50.667 -311.023)" fill="#263238"/>
      <path id="Trazado_187375" data-name="Trazado 187375" d="M67.606,388.9c.043.136-.573.451-1.432.53s-1.489-.1-1.475-.244.659-.208,1.432-.286S67.563,388.753,67.606,388.9Z" transform="translate(-52.937 -309.035)" fill="#263238"/>
      <path id="Trazado_187376" data-name="Trazado 187376" d="M68.988,382.944c-.05.143-.716.036-1.489-.229s-1.36-.594-1.31-.716.716-.036,1.489.236S69.038,382.807,68.988,382.944Z" transform="translate(-53.36 -307.084)" fill="#263238"/>
      <path id="Trazado_187377" data-name="Trazado 187377" d="M72.2,376.931c-.1.107-.558-.193-.888-.766s-.358-1.11-.215-1.146.387.379.716.881S72.307,376.83,72.2,376.931Z" transform="translate(-54.732 -305.116)" fill="#263238"/>
      <path id="Trazado_187378" data-name="Trazado 187378" d="M68.59,400.785c.036.143-.537.408-1.289.594a4.821,4.821,0,0,1-1.081.158l-.1-.315c.193,0,.315,0,.344.036s-.057.15-.215.272l-.107-.315a5.009,5.009,0,0,1,1.038-.358C67.924,400.678,68.554,400.642,68.59,400.785Z" transform="translate(-53.341 -312.412)" fill="#263238"/>
      <path id="Trazado_187379" data-name="Trazado 187379" d="M69.618,410.713c.05.136-.716.551-1.647.931s-1.783.573-1.833.437.716-.558,1.639-.931S69.575,410.577,69.618,410.713Z" transform="translate(-53.346 -315.245)" fill="#263238"/>
      <path id="Trazado_187380" data-name="Trazado 187380" d="M62.161,406.3c.05.136-.444.43-1.1.651s-1.217.294-1.267.15.444-.43,1.1-.652S62.089,406.157,62.161,406.3Z" transform="translate(-51.544 -313.983)" fill="#263238"/>
      <path id="Trazado_187381" data-name="Trazado 187381" d="M62.306,385.661c0,.143-.888.057-1.868-.294s-1.7-.823-1.639-.952.859.107,1.818.444S62.342,385.54,62.306,385.661Z" transform="translate(-51.26 -307.776)" fill="#263238"/>
      <path id="Trazado_187382" data-name="Trazado 187382" d="M81.887,383.985c.086.122-.394.58-1.067,1.024s-1.289.716-1.375.58.4-.58,1.074-1.024S81.809,383.842,81.887,383.985Z" transform="translate(-57.124 -307.653)" fill="#263238"/>
      <path id="Trazado_187383" data-name="Trazado 187383" d="M82.969,393.878c0,.143-.48.372-1.131.508s-1.2.129-1.238,0,.48-.372,1.131-.508S82.933,393.735,82.969,393.878Z" transform="translate(-57.454 -310.445)" fill="#263238"/>
      <path id="Trazado_187384" data-name="Trazado 187384" d="M83.907,404.537c-.064.129-.795-.072-1.625-.458a3.49,3.49,0,0,1-1.432-.945c0-.136.795.072,1.625.458S83.964,404.4,83.907,404.537Z" transform="translate(-57.526 -313.092)" fill="#263238"/>
      <path id="Trazado_187385" data-name="Trazado 187385" d="M81.874,415.176c-.115.1-.587-.286-1.052-.859s-.716-1.11-.637-1.2.58.293,1.052.866S81.988,415.076,81.874,415.176Z" transform="translate(-57.333 -315.936)" fill="#263238"/>
      <path id="Trazado_187386" data-name="Trazado 187386" d="M81.275,376.635c.093.115-.222.508-.759.773s-1.031.286-1.067.143.351-.372.83-.616S81.2,376.521,81.275,376.635Z" transform="translate(-57.127 -305.566)" fill="#263238"/>
      <path id="Trazado_187387" data-name="Trazado 187387" d="M90.244,386.654c.05.136-.573.48-1.432.6s-1.539-.043-1.532-.186.666-.236,1.432-.344S90.194,386.518,90.244,386.654Z" transform="translate(-59.352 -308.403)" fill="#263238"/>
      <path id="Trazado_187388" data-name="Trazado 187388" d="M88.325,377.663c.064.129-.551.573-1.432.852s-1.632.279-1.654.136.659-.379,1.489-.651S88.254,377.527,88.325,377.663Z" transform="translate(-58.773 -305.855)" fill="#263238"/>
      <path id="Trazado_187389" data-name="Trazado 187389" d="M91.69,400.291a6.365,6.365,0,0,1-4.482-.823,8.688,8.688,0,0,1,2.277.294A6.513,6.513,0,0,1,91.69,400.291Z" transform="translate(-59.331 -312.054)" fill="#263238"/>
      <path id="Trazado_187390" data-name="Trazado 187390" d="M88.9,412.605c-.086.115-.866-.344-1.639-1.124s-1.224-1.532-1.131-1.647.716.515,1.5,1.274S88.974,412.491,88.9,412.605Z" transform="translate(-59.021 -315.004)" fill="#263238"/>
      <path id="Trazado_187391" data-name="Trazado 187391" d="M70.2,367a24.339,24.339,0,0,0-4.689,3.708,22.909,22.909,0,0,0-5.842,12.886,29.209,29.209,0,0,0,.351,7.911,62.689,62.689,0,0,0,1.482,6.35c.515,1.783.988,3.214,1.3,4.21a10.484,10.484,0,0,1,.451,1.561,8.419,8.419,0,0,1-.644-1.489c-.379-.974-.909-2.391-1.468-4.174a52.72,52.72,0,0,1-1.6-6.372,28.163,28.163,0,0,1-.4-8.054,22.529,22.529,0,0,1,6.1-13.115,16.576,16.576,0,0,1,3.494-2.706,8.9,8.9,0,0,1,1.074-.558A1.575,1.575,0,0,1,70.2,367Z" transform="translate(-51.323 -302.839)" fill="#263238"/>
      <path id="Trazado_187392" data-name="Trazado 187392" d="M81.77,404.093c-.122-.064,1.2-2.09,2.4-5.727A32.494,32.494,0,0,0,85.6,383.6a27.811,27.811,0,0,0-2.277-7.925,18.77,18.77,0,0,0-3.88-5.412,14.406,14.406,0,0,0-3.809-2.405c-.988-.408-1.582-.508-1.575-.551a1.427,1.427,0,0,1,.437,0,7.6,7.6,0,0,1,1.21.322,13.143,13.143,0,0,1,3.98,2.319,18.249,18.249,0,0,1,4.081,5.477,27.34,27.34,0,0,1,2.362,8.018,31.414,31.414,0,0,1-1.611,14.969c-.3.924-.716,1.711-.981,2.427a12.5,12.5,0,0,1-.888,1.761A11.454,11.454,0,0,1,81.77,404.093Z" transform="translate(-55.597 -302.92)" fill="#263238"/>
      <path id="Trazado_187393" data-name="Trazado 187393" d="M55.89,416.93H85.371l.179,5.9H55.89Z" transform="translate(-50.434 -317.024)" fill="#7e57c2"/>
      <path id="Trazado_187394" data-name="Trazado 187394" d="M59.39,421.05l1.69,18.012H82.635l1.732-17.811Z" transform="translate(-51.429 -318.194)" fill="#7e57c2"/>
      <path id="Trazado_187395" data-name="Trazado 187395" d="M85.552,425.165c0,.15-6.636.265-14.826.265s-14.826-.115-14.826-.265,6.636-.265,14.826-.265S85.552,425.014,85.552,425.165Z" transform="translate(-50.437 -319.288)" fill="#263238"/>
      <path id="Trazado_187396" data-name="Trazado 187396" d="M84.111,432.22a4.436,4.436,0,0,1-.63,1.131,16.56,16.56,0,0,1-2.291,2.7l-.136.129-.129-.143a42.377,42.377,0,0,0-5.784-5.054h.329l-2.563,2.248-3.028,2.62-.165.15-.172-.143-4.918-4.138.286-.036c-1.017,1.246-1.876,2.284-2.549,3.114a6.806,6.806,0,0,1-1,1.088,8.024,8.024,0,0,1,.823-1.231l2.405-3.214.129-.165.165.129,5.011,4.052h-.329l3.014-2.649,2.57-2.241.158-.136.172.122a37.877,37.877,0,0,1,5.727,5.219h-.272a28.845,28.845,0,0,0,3.179-3.551Z" transform="translate(-51.988 -320.859)" fill="#263238"/>
    </g>
    <g id="freepik--Device--inject-8" transform="translate(93.94 107.268)">
      <rect id="Rectángulo_38690" data-name="Rectángulo 38690" width="332.935" height="220.167" rx="14.57" transform="translate(10.925 0)" fill="#455a64"/>
      <path id="Trazado_187397" data-name="Trazado 187397" d="M122.229,419.44h360.7v6.522A12.743,12.743,0,0,1,470.19,438.7H134.943A12.743,12.743,0,0,1,122.2,425.962V419.44Z" transform="translate(-122.2 -213.498)" fill="#455a64"/>
      <path id="Trazado_187398" data-name="Trazado 187398" d="M324.15,416.56l4.474,7.123h62.984l4.152-7.123Z" transform="translate(-179.575 -212.68)" fill="#263238"/>
      <path id="Trazado_187399" data-name="Trazado 187399" d="M467.531,416.475c0,.122-73.895.215-165.021.215s-165.05-.093-165.05-.215,73.88-.215,165.05-.215S467.531,416.353,467.531,416.475Z" transform="translate(-126.535 -212.595)" fill="#263238"/>
      <rect id="Rectángulo_38691" data-name="Rectángulo 38691" width="312.56" height="185.403" rx="3.27" transform="translate(20.46 12.657)" fill="#ebebeb"/>
      <path id="Trazado_187400" data-name="Trazado 187400" d="M462.87,340.625H150.31l.336-171.815H462.87Z" transform="translate(-130.186 -142.293)" fill="#fff"/>
      <path id="Trazado_187401" data-name="Trazado 187401" d="M184.607,158.477a2.5,2.5,0,1,1-2.5-2.477,2.5,2.5,0,0,1,2.5,2.477Z" transform="translate(-138.51 -138.654)" fill="#263238"/>
      <path id="Trazado_187402" data-name="Trazado 187402" d="M163.477,158.477A2.5,2.5,0,1,1,161,156,2.5,2.5,0,0,1,163.477,158.477Z" transform="translate(-132.507 -138.654)" fill="#263238"/>
      <path id="Trazado_187403" data-name="Trazado 187403" d="M173.617,158.468a2.491,2.491,0,1,1-.73-1.769A2.5,2.5,0,0,1,173.617,158.468Z" transform="translate(-135.388 -138.645)" fill="#263238"/>
      <rect id="Rectángulo_38692" data-name="Rectángulo 38692" width="312.897" height="16.594" transform="translate(20.124 181.737)" fill="#263238"/>
      <path id="Trazado_187404" data-name="Trazado 187404" d="M165.787,398.746v.53H163.3v-.415l1.339-1.274a.934.934,0,0,0,.387-.716c0-.308-.215-.487-.63-.487a.945.945,0,0,0-.787.351l-.444-.337a1.575,1.575,0,0,1,1.289-.558c.716,0,1.21.365,1.21.966a1.346,1.346,0,0,1-.566,1.067l-.9.859Z" transform="translate(-133.837 -206.792)" fill="#fff"/>
      <path id="Trazado_187405" data-name="Trazado 187405" d="M167.3,397.4a.4.4,0,1,1,.394.4.387.387,0,0,1-.394-.4Zm0,1.84a.4.4,0,1,1,.182.391A.4.4,0,0,1,167.3,399.241Z" transform="translate(-135.012 -207.123)" fill="#fff"/>
      <path id="Trazado_187406" data-name="Trazado 187406" d="M170.069,395.914v3.379h-.623V396.43h-.716v-.53Z" transform="translate(-135.419 -206.81)" fill="#fff"/>
      <path id="Trazado_187407" data-name="Trazado 187407" d="M174.534,398.556h-.6v.766h-.608v-.766H171.47v-.408L173.138,396h.673l-1.575,2.083h1.11v-.68h.587v.68h.6Z" transform="translate(-136.198 -206.839)" fill="#fff"/>
      <rect id="Rectángulo_38693" data-name="Rectángulo 38693" width="256.463" height="1.167" transform="translate(43.856 190.364)" fill="#fff"/>
      <rect id="Rectángulo_38694" data-name="Rectángulo 38694" width="80.145" height="3.121" transform="translate(43.662 189.111)" fill="#7e57c2"/>
      <path id="Trazado_187408" data-name="Trazado 187408" d="M295.663,396.952a3.9,3.9,0,1,1-3.9-3.9A3.9,3.9,0,0,1,295.663,396.952Z" transform="translate(-169.265 -206.001)" fill="#7e57c2"/>
      <path id="Trazado_187409" data-name="Trazado 187409" d="M549.658,397.509a1.124,1.124,0,0,1-1.231,1.11c-.924,0-1.432-.594-1.432-1.682a1.6,1.6,0,0,1,1.661-1.8,1.718,1.718,0,0,1,.888.222l-.236.472a1.117,1.117,0,0,0-.637-.165c-.637,0-1.038.394-1.038,1.16h0a1.146,1.146,0,0,1,.9-.351,1.052,1.052,0,0,1,1.124,1.031Zm-.608,0c0-.351-.265-.573-.673-.573a.616.616,0,0,0-.716.58c0,.315.251.566.716.566a.58.58,0,0,0,.673-.544Z" transform="translate(-242.883 -206.594)" fill="#fff"/>
      <path id="Trazado_187410" data-name="Trazado 187410" d="M551.149,396.65a.4.4,0,1,1,.182.391A.4.4,0,0,1,551.149,396.65Zm0,1.84a.4.4,0,1,1,.182.391A.4.4,0,0,1,551.149,398.49Z" transform="translate(-244.065 -206.894)" fill="#fff"/>
      <path id="Trazado_187411" data-name="Trazado 187411" d="M552.82,396.86c0-1.11.609-1.74,1.432-1.74s1.432.63,1.432,1.74-.609,1.74-1.432,1.74S552.82,397.969,552.82,396.86Zm2.191,0c0-.816-.315-1.188-.78-1.188s-.78.372-.78,1.188.322,1.2.78,1.2S555.011,397.676,555.011,396.86Z" transform="translate(-244.541 -206.589)" fill="#fff"/>
      <path id="Trazado_187412" data-name="Trazado 187412" d="M557.35,396.86c0-1.11.609-1.74,1.432-1.74s1.432.63,1.432,1.74-.609,1.74-1.432,1.74S557.35,397.969,557.35,396.86Zm2.2,0c0-.816-.322-1.188-.787-1.188s-.773.372-.773,1.188.315,1.2.773,1.2S559.548,397.676,559.548,396.86Z" transform="translate(-245.828 -206.589)" fill="#fff"/>
      <path id="Trazado_187413" data-name="Trazado 187413" d="M568.464,395.922H567.29V392.55h3.372v1.167h-2.2Z" transform="translate(-248.652 -205.859)" fill="#fff"/>
      <path id="Trazado_187414" data-name="Trazado 187414" d="M570.662,402.065H567.29V398.7h1.167v2.2h2.2Z" transform="translate(-248.652 -207.606)" fill="#fff"/>
      <path id="Trazado_187415" data-name="Trazado 187415" d="M578.165,402.062H574.8v-1.167h2.191V398.69h1.174Z" transform="translate(-250.785 -207.603)" fill="#fff"/>
      <path id="Trazado_187416" data-name="Trazado 187416" d="M578.162,395.915h-1.167v-2.2h-2.2V392.55h3.372Z" transform="translate(-250.783 -205.859)" fill="#fff"/>
      <path id="Trazado_187417" data-name="Trazado 187417" d="M199.224,183.08H180.8l-9.206,15.957,9.206,15.95h18.427l9.206-15.95Z" transform="translate(-136.232 -146.347)" fill="#ebebeb"/>
      <path id="Trazado_187418" data-name="Trazado 187418" d="M185.339,202.707a16.265,16.265,0,0,1-2.248-2.907,5.563,5.563,0,0,1-.766-3.537,19.635,19.635,0,0,0,.465-2.1c.072-.988-.344-2.019,0-2.942.544-1.432,2.484-1.668,3.665-2.663.916-.78,1.367-2.04,2.377-2.692a4.474,4.474,0,0,1,3.057-.415,11.277,11.277,0,0,0,3.128.272,21.08,21.08,0,0,0,2.148-.58,2.942,2.942,0,0,1,2.148.15,1.432,1.432,0,0,1,.587,1.911,2.38,2.38,0,0,1,3.071,1.668,3.58,3.58,0,0,1-1.353,3.529,7.875,7.875,0,0,1-3.651,1.489,15.166,15.166,0,0,1-10.9-1.7" transform="translate(-139.271 -146.896)" fill="#263238"/>
      <path id="Trazado_187419" data-name="Trazado 187419" d="M203.4,207.8c-.122-2.284-.759-6.966-1.389-11.2a8.834,8.834,0,0,0-9.307-7.517h-.458c-4.9.616-7.109,5.119-6.357,10.023l1.432,17.575H199.28s-.286-3.086-.286-3.114S203.662,212.521,203.4,207.8Z" transform="translate(-140.255 -148.047)" fill="#ffbe9d"/>
      <path id="Trazado_187420" data-name="Trazado 187420" d="M201.748,222.679a11.075,11.075,0,0,1-6.278-1.339s1.69,3.3,6.371,2.563Z" transform="translate(-143.016 -157.217)" fill="#eb996e"/>
      <path id="Trazado_187421" data-name="Trazado 187421" d="M205.817,205.026a.666.666,0,0,1-.6.716.637.637,0,0,1-.716-.558.673.673,0,0,1,.6-.716.637.637,0,0,1,.716.558Z" transform="translate(-145.581 -152.422)" fill="#263238"/>
      <path id="Trazado_187422" data-name="Trazado 187422" d="M206.2,202.661c-.079.093-.616-.251-1.346-.2s-1.231.451-1.317.365,0-.2.258-.387a1.876,1.876,0,0,1,1.045-.4,1.761,1.761,0,0,1,1.074.272C206.15,202.468,206.236,202.618,206.2,202.661Z" transform="translate(-145.299 -151.732)" fill="#263238"/>
      <path id="Trazado_187423" data-name="Trazado 187423" d="M196.237,205.714a.716.716,0,0,1-.6.716.651.651,0,0,1-.716-.566.716.716,0,0,1,.6-.716.651.651,0,0,1,.716.566Z" transform="translate(-142.86 -152.616)" fill="#263238"/>
      <path id="Trazado_187424" data-name="Trazado 187424" d="M196.24,203.518c-.079.093-.616-.251-1.346-.2s-1.231.444-1.317.365,0-.2.258-.387a1.861,1.861,0,0,1,2.148-.136C196.19,203.317,196.276,203.475,196.24,203.518Z" transform="translate(-142.469 -151.973)" fill="#263238"/>
      <path id="Trazado_187425" data-name="Trazado 187425" d="M201.2,208.622a4.744,4.744,0,0,1,1.167-.294c.186,0,.358-.079.379-.208a.945.945,0,0,0-.158-.537l-.644-1.375a24.805,24.805,0,0,1-1.482-3.579,24.114,24.114,0,0,1,1.768,3.486c.215.48.422.945.623,1.382a1.138,1.138,0,0,1,.143.716.487.487,0,0,1-.286.294,1.433,1.433,0,0,1-.315.064A4.7,4.7,0,0,1,201.2,208.622Z" transform="translate(-144.434 -151.902)" fill="#263238"/>
      <path id="Trazado_187426" data-name="Trazado 187426" d="M195.982,199.588c-.057.2-.787.157-1.632.322s-1.518.437-1.647.265.057-.272.322-.487a2.771,2.771,0,0,1,1.2-.508,2.685,2.685,0,0,1,1.3.064C195.839,199.352,196.011,199.495,195.982,199.588Z" transform="translate(-142.218 -150.907)" fill="#263238"/>
      <path id="Trazado_187427" data-name="Trazado 187427" d="M205.7,199.724c-.122.172-.63.036-1.231.064s-1.1.186-1.231,0,0-.251.222-.422a1.682,1.682,0,0,1,.981-.336,1.74,1.74,0,0,1,1,.265C205.667,199.473,205.752,199.638,205.7,199.724Z" transform="translate(-145.209 -150.878)" fill="#263238"/>
      <path id="Trazado_187428" data-name="Trazado 187428" d="M185.6,207.973c-.086,0-3.315-.716-2.992,2.484s3.816,2.148,3.809,2.076S185.6,207.973,185.6,207.973Z" transform="translate(-139.357 -153.4)" fill="#ffbe9d"/>
      <path id="Trazado_187429" data-name="Trazado 187429" d="M185.311,211.859a1.015,1.015,0,0,1-.136.093.566.566,0,0,1-.422.05,1.389,1.389,0,0,1-.766-1.181,1.79,1.79,0,0,1,.079-.816.644.644,0,0,1,.379-.48.293.293,0,0,1,.344.122c.057.086.043.158.057.158s.064-.057,0-.193a.365.365,0,0,0-.143-.186.408.408,0,0,0-.322-.05.809.809,0,0,0-.537.558,1.918,1.918,0,0,0-.1.916,1.432,1.432,0,0,0,.952,1.31.615.615,0,0,0,.508-.136C185.354,211.966,185.354,211.859,185.311,211.859Z" transform="translate(-139.68 -153.814)" fill="#eb996e"/>
      <path id="Trazado_187430" data-name="Trazado 187430" d="M201.564,191.86c-.222,1.282-2.828,2.463-5.011,2.4-1.99-.057-2.978-1.045-4.417-1.747a2.417,2.417,0,0,0-2.148-.243c-1,.165-1.525,1.346-2.083,2.2,1.074,2.341.637,5.061.179,7.6a1.26,1.26,0,0,1-.322.766,1.031,1.031,0,0,1-1.31-.193,4.023,4.023,0,0,1-1.017-2.047,13.378,13.378,0,0,1-.315-5.247,9.041,9.041,0,0,1,2.148-4.732,8.591,8.591,0,0,1,5.863-2.67,10.559,10.559,0,0,1,6.25,1.768,6.293,6.293,0,0,1,2.148,2.148" transform="translate(-140.04 -147.725)" fill="#263238"/>
      <path id="Trazado_187431" data-name="Trazado 187431" d="M201.135,212.987l-1.647-.766a.551.551,0,0,0-.3-.072.451.451,0,0,0-.279.193,1.518,1.518,0,0,0-.186,1.675,1.281,1.281,0,0,0,1.546.566,1.754,1.754,0,0,0,.909-1.546Z" transform="translate(-143.892 -154.606)" fill="#eb996e"/>
      <path id="Trazado_187432" data-name="Trazado 187432" d="M200.195,214.594a1.118,1.118,0,0,1-.966.086,1.532,1.532,0,0,1-.852-.716,1.568,1.568,0,0,1-.107-1.346,1.569,1.569,0,0,1,.68-.809.458.458,0,0,1,.43,0c.379.208.63.387.881.544.48.322.766.544.716.587s-.358-.093-.873-.358l-.881-.458h-.129a1.345,1.345,0,0,0-.2.165,1.245,1.245,0,0,0-.3.473,1.289,1.289,0,0,0,.057,1.045,1.339,1.339,0,0,0,.644.609A3.936,3.936,0,0,0,200.195,214.594Z" transform="translate(-143.782 -154.494)" fill="#263238"/>
      <path id="Trazado_187433" data-name="Trazado 187433" d="M197.535,203.963a2.8,2.8,0,0,0-.172-.8,3.365,3.365,0,0,0-1.239-1.768,3.207,3.207,0,1,0,0,5.147,3.365,3.365,0,0,0,1.238-1.768c.143-.508.136-.809.172-.809s0,.079,0,.222a2.514,2.514,0,0,1-.064.623,3.322,3.322,0,0,1-1.21,1.94,3.522,3.522,0,1,1,0-5.562,3.321,3.321,0,0,1,1.21,1.94,2.484,2.484,0,0,1,.064.623C197.556,203.891,197.549,203.963,197.535,203.963Z" transform="translate(-141.63 -151.28)" fill="#263238"/>
      <path id="Trazado_187434" data-name="Trazado 187434" d="M208.834,203.558a6.156,6.156,0,0,0-.172-.78,3.258,3.258,0,0,0-1.2-1.718,3.121,3.121,0,1,0,0,5.011,3.257,3.257,0,0,0,1.2-1.718c.143-.494.136-.788.172-.788s0,.072,0,.215a2.708,2.708,0,0,1-.057.609,3.265,3.265,0,0,1-1.181,1.89,3.436,3.436,0,1,1,0-5.426,3.279,3.279,0,0,1,1.181,1.9,2.642,2.642,0,0,1,.057.609C208.856,203.487,208.849,203.558,208.834,203.558Z" transform="translate(-144.891 -151.19)" fill="#263238"/>
      <path id="Trazado_187435" data-name="Trazado 187435" d="M201.7,203.691c-.072.064-.394-.143-.823-.129s-.716.222-.816.158.2-.515.809-.53S201.795,203.634,201.7,203.691Z" transform="translate(-144.316 -152.061)" fill="#263238"/>
      <path id="Trazado_187436" data-name="Trazado 187436" d="M189.972,204.7c.064.079-.566.651-1.4,1.274a4.8,4.8,0,0,1-1.618.974c-.064-.079.566-.651,1.4-1.274A4.732,4.732,0,0,1,189.972,204.7Z" transform="translate(-140.597 -152.49)" fill="#263238"/>
      <path id="Trazado_187437" data-name="Trazado 187437" d="M269.318,205.066c0,.1-8.283.186-18.5.186s-18.5-.086-18.5-.186,8.283-.186,18.5-.186S269.318,204.966,269.318,205.066Z" transform="translate(-153.486 -152.541)" fill="#263238"/>
      <path id="Trazado_187438" data-name="Trazado 187438" d="M252.294,210.473c0,.1-4.4.186-9.822.186s-9.822-.086-9.822-.186,4.4-.193,9.822-.193S252.294,210.366,252.294,210.473Z" transform="translate(-153.579 -154.075)" fill="#263238"/>
    </g>
    <g id="freepik--Character--inject-8" transform="translate(179.41 96.472)">
      <path id="Trazado_187439" data-name="Trazado 187439" d="M435.315,245.09A28.192,28.192,0,0,1,448.6,262.272c3.458,12.371,14.031,44.586,14.031,44.586s6.042,7.109,6.686,12.371-.644,18-2.592,20.374a5.462,5.462,0,0,1-4.711,1.983l-25.436-2.413L426.56,272.108Z" transform="translate(-294.14 -153.169)" fill="#7e57c2"/>
      <path id="Trazado_187440" data-name="Trazado 187440" d="M312.293,239.9s-18.191,5.727-22.723,10.667l14.891,69.27L304.2,341.7h86.251c0-1.081.773-72.578.773-72.578l5.176-28.056-30.633-5.391-6.042-4.754-34.1,1.732-5.183,5.176Z" transform="translate(-255.22 -149.143)" fill="#7e57c2"/>
      <g id="Grupo_124259" data-name="Grupo 124259" transform="translate(49.097 149.476)" opacity="0.3">
        <path id="Trazado_187441" data-name="Trazado 187441" d="M325.082,326.863c-.265-.587-.652-1.224-1.281-1.353-1.038-.215-1.732,1.009-2.083,2.012a91.319,91.319,0,0,1-11.326,22.114l-.222,10.638c5.011-4.231,9.98-8.763,13.187-14.5S327.76,332.848,325.082,326.863Z" transform="translate(-310.17 -325.485)"/>
      </g>
      <path id="Trazado_187442" data-name="Trazado 187442" d="M275.938,258.36s-5.992,8.168-8.476,13.5-23.109,50.113-24.34,54.745-4.439,19.193,4.975,22.572h19.379l19.444-39.324,1-45.638Z" transform="translate(-241.589 -156.939)" fill="#7e57c2"/>
      <path id="Trazado_187443" data-name="Trazado 187443" d="M270.09,344.292a8.567,8.567,0,0,0-1.324-.888,15.031,15.031,0,0,0-4.066-1.475,19.571,19.571,0,0,0-2.964-.415,11.812,11.812,0,0,0-3.429.243,12.65,12.65,0,0,0-6.522,4.095,17.784,17.784,0,0,0-3.694,6.866,34.259,34.259,0,0,0-1.16,6.336c-.186,1.833-.251,3.329-.315,4.353,0,.487-.057.881-.072,1.188a1.5,1.5,0,0,1-.057.415,3.121,3.121,0,0,1,0-.415v-1.188c0-1.038.043-2.527.193-4.374a33.049,33.049,0,0,1,1.1-6.443,17.812,17.812,0,0,1,3.744-7.016,12.887,12.887,0,0,1,6.729-4.181,11.7,11.7,0,0,1,3.494-.193,18.858,18.858,0,0,1,3,.465,14.141,14.141,0,0,1,4.081,1.6,7.161,7.161,0,0,1,.966.716A2.027,2.027,0,0,1,270.09,344.292Z" transform="translate(-242.978 -180.459)" fill="#263238"/>
      <path id="Trazado_187444" data-name="Trazado 187444" d="M266.63,334.546a2.514,2.514,0,0,1,.651-.1,11.57,11.57,0,0,1,1.8,0,14.965,14.965,0,0,1,2.642.394,15.748,15.748,0,0,1,5.877,2.806,14.648,14.648,0,0,1,1.969,1.8,11.571,11.571,0,0,1,1.11,1.432,2.449,2.449,0,0,1,.329.573c-.057.043-.587-.716-1.632-1.8a17.593,17.593,0,0,0-1.983-1.711,17.9,17.9,0,0,0-2.749-1.647,18.88,18.88,0,0,0-3.007-1.1,17.2,17.2,0,0,0-2.577-.458C267.568,334.539,266.63,334.618,266.63,334.546Z" transform="translate(-248.703 -178.545)" fill="#263238"/>
      <path id="Trazado_187445" data-name="Trazado 187445" d="M282.232,331.292a4,4,0,0,1-.895-.064c-.573-.072-1.4-.157-2.427-.236a41.463,41.463,0,0,0-15.843,1.9c-.981.315-1.768.594-2.305.8a4.521,4.521,0,0,1-.852.279,3.584,3.584,0,0,1,.795-.415c.523-.25,1.3-.565,2.277-.916a36.568,36.568,0,0,1,15.957-1.9c1.024.107,1.854.229,2.42.351a4.713,4.713,0,0,1,.874.208Z" transform="translate(-246.794 -177.446)" fill="#263238"/>
      <path id="Trazado_187446" data-name="Trazado 187446" d="M358.094,267.461a1.019,1.019,0,0,1-.2-.236l-.53-.716-1.947-2.692c-1.668-2.362-4-5.656-6.744-9.521l.3-.043c-1.045,3.064-2.2,6.443-3.408,10.023l-.079.222-.2-.129-.4-.258a20.633,20.633,0,0,1-4.217-3.579,25.1,25.1,0,0,1-3.014-4.166,35.128,35.128,0,0,1-3.315-8,55.839,55.839,0,0,1-1.253-5.727c-.115-.644-.2-1.167-.272-1.561a2.469,2.469,0,0,0-.093-.394.34.34,0,0,0-.043-.136,10.873,10.873,0,0,1,.551,2.069,56.536,56.536,0,0,0,1.367,5.656,35.36,35.36,0,0,0,3.358,7.918,25.559,25.559,0,0,0,2.985,4.095,20.311,20.311,0,0,0,4.138,3.494l.394.258-.272.1c1.224-3.579,2.384-6.937,3.443-10.023l.107-.315.193.272c2.692,3.9,5.011,7.223,6.636,9.6.78,1.16,1.432,2.083,1.868,2.756l.48.716A1.688,1.688,0,0,1,358.094,267.461Z" transform="translate(-267.468 -151.879)" fill="#263238"/>
      <g id="Grupo_124260" data-name="Grupo 124260" transform="translate(112.891 148.649)" opacity="0.3">
        <path id="Trazado_187447" data-name="Trazado 187447" d="M399.459,324.33a39.244,39.244,0,0,0,5.011,23.238c4.009,6.973,9.894,13.194,17.217,16.53.236-7.109-.107-15.485.129-22.594Z" transform="translate(-399.281 -324.33)"/>
      </g>
      <path id="Trazado_187448" data-name="Trazado 187448" d="M397.741,304.535s-3.136.866-.787,7.288,3.136,6.028,4.7,12.027,3.393,11.454,6.128,14.876,12.922,10.309,12.922,10.309l9.135-8.591s-1.5-6.443-1.145-10.781,1.274-15.034,1.145-16.888-2.09-6.264-2.09-6.264v-3.035l-4.7-14.447s-2.613-1.174-3.522,3l-1.568-4.431s-2.477-.394-3.129,4.7.523,12.134.523,12.134l-1.31,8.87-1.954,6.006-1.7.258s-2.556-.716-3.952-5.505S401.263,303.49,397.741,304.535Z" transform="translate(-285.481 -165.243)" fill="#ffbe9d"/>
      <path id="Trazado_187449" data-name="Trazado 187449" d="M434.963,335.776a1.857,1.857,0,0,0-.043-.322,9.047,9.047,0,0,1-.064-.959c-.05-.873-.115-2.083-.193-3.579-.143-3.114-.336-7.453-.566-12.514l.036.107a1.84,1.84,0,0,0-1.847-.487,2.714,2.714,0,0,0-1.69,1.246c-.8,1.281-.845,2.957-1.1,4.567-.494,3.658-.966,7.159-1.4,10.316-.215,1.589-.444,3.093-.752,4.489a28.365,28.365,0,0,1-1.138,3.809,30.685,30.685,0,0,0-.981,3.1,9.639,9.639,0,0,0-.294,2.4,7.626,7.626,0,0,0,.358,2.047,3.166,3.166,0,0,1-.215-.5,5.389,5.389,0,0,1-.286-1.539,9.129,9.129,0,0,1,.236-2.47,27.906,27.906,0,0,1,.938-3.136,29.246,29.246,0,0,0,1.074-3.787c.294-1.382.515-2.864.716-4.467.415-3.179.881-6.658,1.367-10.323.115-.809.2-1.618.344-2.42a6.377,6.377,0,0,1,.8-2.3,3.078,3.078,0,0,1,1.926-1.389,2.148,2.148,0,0,1,2.2.6l.036.05v.057c.179,5.061.329,9.4.437,12.521,0,1.51.065,2.72.093,3.579v.959A1.61,1.61,0,0,1,434.963,335.776Z" transform="translate(-293.637 -173.761)" fill="#eb996e"/>
      <path id="Trazado_187450" data-name="Trazado 187450" d="M431.253,315.076a3.579,3.579,0,0,1-.387-.816,21.776,21.776,0,0,1-.766-2.334,24.112,24.112,0,0,1-.651-3.579,10.409,10.409,0,0,1-.043-2.148,4.674,4.674,0,0,1,.787-2.234,3.207,3.207,0,0,1,1.675-1.26l.136-.036.072.122c1.324,2.334,2.477,4.4,3.279,5.878l.938,1.754a2.793,2.793,0,0,1,.3.659,3.256,3.256,0,0,1-.415-.594l-1.031-1.7c-.859-1.432-2.055-3.486-3.386-5.813l.208.086a2.864,2.864,0,0,0-1.468,1.117,4.3,4.3,0,0,0-.716,2.062,10.322,10.322,0,0,0,0,2.1,26.856,26.856,0,0,0,.566,3.58c.229,1,.48,1.8.644,2.355A4.2,4.2,0,0,1,431.253,315.076Z" transform="translate(-294.938 -169.527)" fill="#eb996e"/>
      <path id="Trazado_187451" data-name="Trazado 187451" d="M428.783,313.259a3.349,3.349,0,0,1-.086-.838c0-.616-.057-1.374-.093-2.269-.057-1.919-.122-4.567-.157-7.5a64.85,64.85,0,0,1,.115-7.51,11.8,11.8,0,0,1,.487-2.234,2.606,2.606,0,0,1,.336-.773,20.955,20.955,0,0,0-.565,3.035c-.179,1.9,0,4.546,0,7.474s.057,5.577.05,7.5v2.277A3.844,3.844,0,0,1,428.783,313.259Z" transform="translate(-294.659 -166.536)" fill="#eb996e"/>
      <path id="Trazado_187452" data-name="Trazado 187452" d="M418.149,349.383c-.05-.043.523-.716,1.224-1.94a16.3,16.3,0,0,0,1.067-2.226,18.357,18.357,0,0,0,.816-2.907,18.031,18.031,0,0,0,.25-3.007,16.646,16.646,0,0,0-.215-2.456c-.236-1.4-.537-2.226-.473-2.248a2.147,2.147,0,0,1,.258.566,10.32,10.32,0,0,1,.472,1.632,13.95,13.95,0,0,1,.3,2.5,14.786,14.786,0,0,1-1.1,6.049,13.989,13.989,0,0,1-1.153,2.234,10.259,10.259,0,0,1-1.009,1.36C418.328,349.24,418.17,349.4,418.149,349.383Z" transform="translate(-291.749 -178.599)" fill="#eb996e"/>
      <path id="Trazado_187453" data-name="Trazado 187453" d="M437.689,349l7.925,2.749s7.574-3.916,12.793,0,9.751,14.232,8.319,18.406c0,0-3.579,4.453-6.343,5.1s-13.395-1.933-17.826-2.864-12.077-5.9-12.077-5.9Z" transform="translate(-295.254 -182.69)" fill="#ffbe9d"/>
      <path id="Trazado_187454" data-name="Trazado 187454" d="M441.739,358.176a3.168,3.168,0,0,1-.086-.716c0-.537-.065-1.174-.107-1.919-.086-1.618-.193-3.852-.229-6.329s.036-4.718.179-6.336c.072-.809.165-1.432.243-1.911a2.382,2.382,0,0,1,.165-.716c.057,0-.064,1-.143,2.62s-.107,3.844-.072,6.314.086,4.6.115,6.321v1.919a2.349,2.349,0,0,1-.064.752Z" transform="translate(-298.33 -180.204)" fill="#eb996e"/>
      <path id="Trazado_187455" data-name="Trazado 187455" d="M469.863,350.138a25.267,25.267,0,0,0-2.634-2.377,14.511,14.511,0,0,0-16.065-.88,25.866,25.866,0,0,0-2.864,2.069,4.238,4.238,0,0,1,.651-.716,13.126,13.126,0,0,1,2.1-1.589,14.253,14.253,0,0,1,16.365.909,12.576,12.576,0,0,1,1.9,1.811A4.039,4.039,0,0,1,469.863,350.138Z" transform="translate(-300.316 -181.409)" fill="#263238"/>
      <path id="Trazado_187456" data-name="Trazado 187456" d="M467.886,341.96a15.831,15.831,0,0,0-3.3-1.818,14.561,14.561,0,0,0-8.92-.265,20.85,20.85,0,0,0-4.618,1.919,21.9,21.9,0,0,0-3.343,2.362c-.888.759-1.568,1.432-2.033,1.883a5.73,5.73,0,0,1-.752.716,4.931,4.931,0,0,1,.644-.8,24.75,24.75,0,0,1,1.969-1.983,20.563,20.563,0,0,1,3.343-2.456,19.83,19.83,0,0,1,4.689-1.983,14.26,14.26,0,0,1,9.12.379,10.585,10.585,0,0,1,2.441,1.375c.265.193.444.379.58.494A.785.785,0,0,1,467.886,341.96Z" transform="translate(-299.356 -179.838)" fill="#263238"/>
      <path id="Trazado_187457" data-name="Trazado 187457" d="M467.354,334.65c0,.072-1.432-.351-3.708-.659a29.1,29.1,0,0,0-4.059-.258,31.88,31.88,0,0,0-4.961.444,32.452,32.452,0,0,0-4.818,1.274,28.568,28.568,0,0,0-3.73,1.632c-2.055,1.074-3.214,1.947-3.257,1.883a5.081,5.081,0,0,1,.795-.63,9.109,9.109,0,0,1,.981-.673c.394-.251.838-.544,1.353-.816a27.466,27.466,0,0,1,3.744-1.718,29.479,29.479,0,0,1,4.868-1.317,30.119,30.119,0,0,1,5.011-.422,26.821,26.821,0,0,1,4.1.336c.58.072,1.1.208,1.546.3a11.084,11.084,0,0,1,1.16.3A5.908,5.908,0,0,1,467.354,334.65Z" transform="translate(-298.759 -178.255)" fill="#263238"/>
      <path id="Trazado_187458" data-name="Trazado 187458" d="M384.537,237.23a6.577,6.577,0,0,1,.544,2.1,20.258,20.258,0,0,1-.3,6.15,35.245,35.245,0,0,1-1.024,4.3,32.616,32.616,0,0,1-2.076,4.761c-1.711,3.293-3.859,6.88-6.35,10.738l-.286.451v-8.483l.279.136-6.722,5.362.057-.086a70.333,70.333,0,0,0-2.921,16.072c-.659,8.712-.129,17.045.279,24.605s.587,14.382.823,20.109.43,10.352.6,13.552c.1,1.589.172,2.821.222,3.68,0,.408.05.716.064.959a1.759,1.759,0,0,1,0,.329,1.6,1.6,0,0,0-.05-.322c-.05-.215-.057-.551-.1-.959-.079-.838-.179-2.076-.286-3.68-.215-3.193-.465-7.825-.716-13.552s-.558-12.535-.9-20.1-.966-15.907-.308-24.648a70,70,0,0,1,3-16.158v-.05h.043l6.7-5.376.279-.229v8.3l-.294-.093c4.918-7.624,8.92-14.253,9.536-19.616a21.026,21.026,0,0,0,.387-6.1,10.939,10.939,0,0,0-.294-1.589A5.709,5.709,0,0,1,384.537,237.23Z" transform="translate(-276.672 -150.936)" fill="#263238"/>
      <path id="Trazado_187459" data-name="Trazado 187459" d="M373.482,366.22h-.229a2.012,2.012,0,1,0,.258,0Z" transform="translate(-278.46 -187.582)" fill="#fff"/>
      <path id="Trazado_187460" data-name="Trazado 187460" d="M373.485,327.68h-.229a2,2,0,1,0,.258,0Z" transform="translate(-278.463 -176.633)" fill="#fff"/>
      <path id="Trazado_187461" data-name="Trazado 187461" d="M373.2,291.6a2.02,2.02,0,0,0,.265-4.03H373.2a2.019,2.019,0,1,0,0,4.038Z" transform="translate(-278.406 -165.237)" fill="#fff"/>
      <path id="Trazado_187462" data-name="Trazado 187462" d="M327.058,170.654a51.9,51.9,0,0,1-6.865-8.856,16.665,16.665,0,0,1-2.32-10.738c.358-2.148,1.274-4.224,1.432-6.443.2-3.007-1.06-6.15,0-8.963,1.661-4.41,7.6-5.09,11.189-8.133,2.8-2.37,4.159-6.214,7.238-8.2,2.692-1.747,6.15-1.7,9.307-1.26s6.364,1.253,9.543.823a61.2,61.2,0,0,0,6.608-1.768c2.212-.551,4.7-.716,6.665.458s3.086,3.945,1.79,5.827c3.68-1.7,8.355,1.174,9.364,5.1s-1.009,8.168-4.131,10.738-7.159,3.794-11.132,4.546c-11.268,2.148-23.5.923-33.218-5.176" transform="translate(-263.214 -116.69)" fill="#263238"/>
      <path id="Trazado_187463" data-name="Trazado 187463" d="M369.685,212.048c-.551-4.3-1-7.825-1.031-8.269,0,0,14.261-3.207,13.473-17.625-.379-6.973-2.327-21.262-4.245-34.17a26.889,26.889,0,0,0-28.407-22.909l-1.432.086c-14.926,1.883-21.677,15.614-19.386,30.49l8.061,49.876s3.436,11.032,10.789,12.943l9.307,13.258L358.345,230l6.916-6.028a27.253,27.253,0,0,0,3.415-5.076,11.14,11.14,0,0,0,1.009-6.851Z" transform="translate(-266.201 -120.191)" fill="#ffbe9d"/>
      <path id="Trazado_187464" data-name="Trazado 187464" d="M377.113,231.548a33.6,33.6,0,0,1-19.143-4.088s5.14,10.073,19.429,7.818Z" transform="translate(-274.653 -148.16)" fill="#eb996e"/>
      <path id="Trazado_187465" data-name="Trazado 187465" d="M389.495,177.725a2.069,2.069,0,0,1-1.847,2.212,1.969,1.969,0,0,1-2.241-1.718,2.055,2.055,0,0,1,1.854-2.226,1.969,1.969,0,0,1,2.234,1.732Z" transform="translate(-282.446 -133.532)" fill="#263238"/>
      <path id="Trazado_187466" data-name="Trazado 187466" d="M390.7,170.527c-.236.286-1.876-.766-4.088-.608s-3.737,1.367-4.023,1.124c-.122-.107.107-.609.78-1.174a5.634,5.634,0,0,1,3.193-1.224,5.4,5.4,0,0,1,3.279.823C390.556,169.926,390.813,170.4,390.7,170.527Z" transform="translate(-281.638 -131.446)" fill="#263238"/>
      <path id="Trazado_187467" data-name="Trazado 187467" d="M360.275,179.82a2.055,2.055,0,0,1-1.847,2.205,1.962,1.962,0,0,1-2.241-1.711,2.069,2.069,0,0,1,1.84-2.212,1.976,1.976,0,0,1,2.248,1.718Z" transform="translate(-274.145 -134.131)" fill="#263238"/>
      <path id="Trazado_187468" data-name="Trazado 187468" d="M360.338,173.132c-.243.286-1.876-.766-4.088-.609s-3.766,1.367-4.023,1.11c-.129-.107.1-.608.773-1.174a5.677,5.677,0,0,1,3.2-1.224,5.391,5.391,0,0,1,3.272.823C360.187,172.53,360.452,173,360.338,173.132Z" transform="translate(-273.012 -132.182)" fill="#263238"/>
      <path id="Trazado_187469" data-name="Trazado 187469" d="M375.431,188.784a14.861,14.861,0,0,1,3.579-.895c.558-.093,1.088-.243,1.16-.63a2.9,2.9,0,0,0-.494-1.654l-1.962-4.2c-2.728-5.971-4.746-10.9-4.5-11.01s2.649,4.646,5.384,10.624l1.89,4.224a3.293,3.293,0,0,1,.444,2.2,1.432,1.432,0,0,1-.873.888,3.853,3.853,0,0,1-.952.2A14.872,14.872,0,0,1,375.431,188.784Z" transform="translate(-278.978 -131.948)" fill="#263238"/>
      <path id="Trazado_187470" data-name="Trazado 187470" d="M359.555,161.161c-.179.623-2.405.48-5.011.966s-4.632,1.339-5.011.823c-.172-.251.157-.838.966-1.482a8.87,8.87,0,0,1,7.61-1.36C359.118,160.431,359.634,160.875,359.555,161.161Z" transform="translate(-272.243 -128.931)" fill="#263238"/>
      <path id="Trazado_187471" data-name="Trazado 187471" d="M389.187,161.589c-.351.53-1.911.115-3.751.208s-3.365.566-3.758.064c-.172-.243.043-.766.716-1.289a5.455,5.455,0,0,1,6.049-.215C389.1,160.83,389.345,161.3,389.187,161.589Z" transform="translate(-281.372 -128.865)" fill="#263238"/>
      <path id="Trazado_187472" data-name="Trazado 187472" d="M327.874,186.556c-.251-.086-10.094-2.262-9.121,7.567s11.612,6.622,11.612,6.343S327.874,186.556,327.874,186.556Z" transform="translate(-263.492 -136.464)" fill="#ffbe9d"/>
      <path id="Trazado_187473" data-name="Trazado 187473" d="M327.011,198.564c-.05,0-.157.136-.437.294a1.7,1.7,0,0,1-1.274.158c-1.081-.279-2.148-1.84-2.341-3.579a5.73,5.73,0,0,1,.236-2.5,2,2,0,0,1,1.16-1.432.881.881,0,0,1,1.06.372c.157.265.115.465.165.473s.193-.179.079-.58a1.117,1.117,0,0,0-.451-.58,1.331,1.331,0,0,0-1-.2,2.42,2.42,0,0,0-1.632,1.7,5.806,5.806,0,0,0-.322,2.8c.258,1.976,1.432,3.73,2.914,3.995a1.84,1.84,0,0,0,1.546-.415C327.018,198.8,327.068,198.578,327.011,198.564Z" transform="translate(-264.491 -137.791)" fill="#eb996e"/>
      <path id="Trazado_187474" data-name="Trazado 187474" d="M376.548,137.586c-.673,3.916-8.591,7.5-15.191,7.309-6.064-.179-9.063-3.186-13.466-5.326-2.792-1.353-2.792-1.353-6.579-.716-3.057.494-4.646,4.109-6.364,6.686,3.272,7.159,1.947,15.435.558,23.166a3.908,3.908,0,0,1-1,2.348c-1.1.974-2.863.394-3.98-.6-1.74-1.6-2.534-3.959-3.1-6.25a40.434,40.434,0,0,1-.974-15.986,27.7,27.7,0,0,1,6.643-14.461A26.245,26.245,0,0,1,351,125.6a32.215,32.215,0,0,1,19.057,5.412,19.181,19.181,0,0,1,6.515,6.565" transform="translate(-265.59 -119.216)" fill="#263238"/>
      <path id="Trazado_187475" data-name="Trazado 187475" d="M375.228,201.982l-5.011-2.334a1.653,1.653,0,0,0-.909-.229,1.432,1.432,0,0,0-.866.587,4.646,4.646,0,0,0-.558,5.119,3.923,3.923,0,0,0,4.7,1.732c1.775-.716,2.634-2.8,2.778-4.718Z" transform="translate(-277.321 -140.193)" fill="#eb996e"/>
      <path id="Trazado_187476" data-name="Trazado 187476" d="M372.514,206.983c0,.043-.236.186-.716.294a4.339,4.339,0,0,1-2.148-.158,4.474,4.474,0,0,1-2.484-2.069,4.6,4.6,0,0,1-.308-3.952,4.789,4.789,0,0,1,1.16-1.754,4.6,4.6,0,0,1,.816-.616,1.289,1.289,0,0,1,.58-.179,1.331,1.331,0,0,1,.58.107,8.919,8.919,0,0,1,.78.444l.68.422,1.224.759a11.329,11.329,0,0,1,2.327,1.661,10.881,10.881,0,0,1-2.592-1.2l-1.267-.716-.716-.394c-.243-.122-.5-.286-.716-.372a.53.53,0,0,0-.551.057,3.9,3.9,0,0,0-.659.523,4.3,4.3,0,0,0-.974,1.489,4.037,4.037,0,0,0,.215,3.358,4.137,4.137,0,0,0,2.069,1.9,5.048,5.048,0,0,0,1.94.365C372.227,206.976,372.492,206.933,372.514,206.983Z" transform="translate(-277.091 -139.946)" fill="#263238"/>
      <path id="Trazado_187477" data-name="Trazado 187477" d="M364.447,174.629a17.5,17.5,0,0,0-.394-2.491,10.151,10.151,0,0,0-13.309-6.994,9.65,9.65,0,0,0-2.556,1.382,9.307,9.307,0,0,0-2.148,2.148,10.023,10.023,0,0,0,0,11.92,9.306,9.306,0,0,0,2.148,2.148,9.652,9.652,0,0,0,2.556,1.382,10.18,10.18,0,0,0,13.309-6.994,17.688,17.688,0,0,0,.394-2.484.55.55,0,0,1,0,.165v.487a4.162,4.162,0,0,1-.057.795,8,8,0,0,1-.193,1.074,9.827,9.827,0,0,1-1.11,2.77,10.359,10.359,0,0,1-12.464,4.51,9.845,9.845,0,0,1-2.642-1.432,9.708,9.708,0,0,1-2.219-2.212,10.381,10.381,0,0,1,0-12.349,9.546,9.546,0,0,1,2.212-2.212,9.844,9.844,0,0,1,2.642-1.432,10.366,10.366,0,0,1,12.464,4.51,9.83,9.83,0,0,1,1.11,2.771,8.007,8.007,0,0,1,.193,1.074,4.168,4.168,0,0,1,.057.795v.487A.626.626,0,0,1,364.447,174.629Z" transform="translate(-270.606 -130.185)" fill="#263238"/>
      <path id="Trazado_187478" data-name="Trazado 187478" d="M398.9,173.389a17.686,17.686,0,0,0-.379-2.427,9.973,9.973,0,0,0-3.651-5.419,9.7,9.7,0,0,0-4.152-1.826,9.872,9.872,0,0,0-5.169.437,9.623,9.623,0,0,0-2.484,1.339,9.43,9.43,0,0,0-2.076,2.09,9.8,9.8,0,0,0,0,11.612,9.249,9.249,0,0,0,2.076,2.083,9.436,9.436,0,0,0,2.484,1.346,9.943,9.943,0,0,0,5.169.437,9.7,9.7,0,0,0,4.152-1.826,9.972,9.972,0,0,0,3.651-5.419,17.712,17.712,0,0,0,.379-2.427,3.951,3.951,0,0,1,0,.637,4.685,4.685,0,0,1-.057.78,7.739,7.739,0,0,1-.186,1.045,10.087,10.087,0,0,1-7.875,7.517,10.158,10.158,0,1,1,0-19.959,10.087,10.087,0,0,1,7.875,7.517,7.74,7.74,0,0,1,.186,1.045,4.686,4.686,0,0,1,.057.78A3.952,3.952,0,0,1,398.9,173.389Z" transform="translate(-280.548 -129.913)" fill="#263238"/>
      <path id="Trazado_187479" data-name="Trazado 187479" d="M377,173.808c-.043.036-.279-.158-.716-.365a4.059,4.059,0,0,0-1.8-.394,3.915,3.915,0,0,0-1.783.458c-.43.222-.659.43-.716.387s.129-.315.558-.616a3.508,3.508,0,0,1,3.852-.064A1.654,1.654,0,0,1,377,173.808Z" transform="translate(-278.632 -132.594)" fill="#263238"/>
      <path id="Trazado_187480" data-name="Trazado 187480" d="M341.2,176.73a45.237,45.237,0,0,1-4.482,3.579,45.812,45.812,0,0,1-4.711,3.286,43.164,43.164,0,0,1,4.489-3.579A44.5,44.5,0,0,1,341.2,176.73Z" transform="translate(-267.278 -133.747)" fill="#263238"/>
      <g id="Grupo_124261" data-name="Grupo 124261" transform="translate(65.282 89.573)" opacity="0.3">
        <path id="Trazado_187481" data-name="Trazado 187481" d="M332.937,241.81c-1,9.715,2.7,19.974,10.5,25.858a2.338,2.338,0,0,0,2.1.659,2.291,2.291,0,0,0,1.088-1.117,18.985,18.985,0,0,0,2.319-12.485c-1.231,3.25-2.291,6.443-3.536,9.836C338.621,260.438,334.369,251.675,332.937,241.81Z" transform="translate(-332.778 -241.81)"/>
      </g>
      <path id="Trazado_187482" data-name="Trazado 187482" d="M369.87,263.55l5.727-2.09.945,9.672s6.171-11.247,8.727-16.373,1.238-14.189,1.238-14.189.909,7.875-5.269,17.948l-4.668,7.589V258.16Z" transform="translate(-278.034 -151.885)" opacity="0.3"/>
      <g id="Grupo_124262" data-name="Grupo 124262" transform="translate(5.203 159.604)" opacity="0.3">
        <path id="Trazado_187483" data-name="Trazado 187483" d="M269,340.848a15.262,15.262,0,0,0-8.283-1.038,15.942,15.942,0,0,0-8.247,3.121,9.13,9.13,0,0,0-3.579,7.782l.286.036c2-5.4,5.963-9.307,11.082-9.8a16.664,16.664,0,0,1,13.6,5.555C273.486,343.7,271.524,342.043,269,340.848Z" transform="translate(-248.856 -339.633)"/>
      </g>
      <g id="Grupo_124263" data-name="Grupo 124263" transform="translate(148.757 162.281)" opacity="0.3">
        <path id="Trazado_187484" data-name="Trazado 187484" d="M470.542,347.4a13.08,13.08,0,0,0-7.388-3.8,16.566,16.566,0,0,0-13.774,3.988l1.088-.888a17.388,17.388,0,0,1,9.178-2.491,13.251,13.251,0,0,1,8.741,3.494c2.148,2.033,3.429,4.789,4.653,7.474A9.357,9.357,0,0,0,470.542,347.4Z" transform="translate(-449.38 -343.372)"/>
      </g>
      <path id="Trazado_187485" data-name="Trazado 187485" d="M427.45,278.547a3.9,3.9,0,0,1,.258-.78c.222-.566.494-1.26.809-2.083.716-1.754,1.646-4.174,2.649-6.873s1.868-5.154,2.491-6.93l.716-2.112a3.734,3.734,0,0,1,.315-.759,2.974,2.974,0,0,1-.179.8c-.136.515-.351,1.246-.63,2.148-.558,1.8-1.389,4.3-2.391,6.98s-2,5.119-2.756,6.844c-.372.866-.716,1.561-.924,2.04A3.282,3.282,0,0,1,427.45,278.547Z" transform="translate(-294.393 -157.123)" fill="#263238"/>
      <path id="Trazado_187486" data-name="Trazado 187486" d="M300.133,281.211c-.1,0-.881-3.386-1.74-7.61s-1.475-7.624-1.4-7.682.873,3.386,1.732,7.61S300.233,281.19,300.133,281.211Z" transform="translate(-257.329 -159.086)" fill="#263238"/>
      <path id="Trazado_187487" data-name="Trazado 187487" d="M298.45,328.264c.229.115-2.62-22.307-2.62-22.307s1.8-17.017,2.806-17.8v-6.006s2.785-1.682,3.529,1.038c0,0,2.47-2.148,2.864,2.957s.523,10.316.523,10.316l5.491,13.731.9.458s1.181-10.738,1.868-12.342,1.16-5.434,3.759-4.854,2.821,2.728,2.355,6.235-1.052,7.159-.83,9.407,1.246,7.252.931,11.218-2.491,8.147-4.768,11.082-6.636,9.013-9,10.839C305.495,342.875,298.45,328.264,298.45,328.264Z" transform="translate(-256.999 -163.55)" fill="#ffbe9d"/>
      <path id="Trazado_187488" data-name="Trazado 187488" d="M302.356,312.715a4.294,4.294,0,0,1,0-.959c.043-.716.107-1.561.179-2.606.165-2.2.422-5.233.716-8.591.157-1.668.308-3.257.444-4.718a8.407,8.407,0,0,0,0-2.026,2.863,2.863,0,0,0-.716-1.546,3.064,3.064,0,0,0-2.241-.981,6.346,6.346,0,0,0-.938.115.872.872,0,0,1,.229-.115,2.419,2.419,0,0,1,.716-.15,3.15,3.15,0,0,1,2.441.952,3.064,3.064,0,0,1,.795,1.682,8.207,8.207,0,0,1,0,2.1c-.129,1.432-.272,3.057-.415,4.725-.308,3.35-.608,6.379-.845,8.591l-.294,2.6A5.441,5.441,0,0,1,302.356,312.715Z" transform="translate(-258.127 -166.25)" fill="#eb996e"/>
      <path id="Trazado_187489" data-name="Trazado 187489" d="M306.243,308.469a7.792,7.792,0,0,0-.974,1.768,29.672,29.672,0,0,0-.909,4.839c-.3,1.919-.587,3.651-.816,4.9a10.743,10.743,0,0,1-.444,2.012,11.961,11.961,0,0,1,.186-2.055c.158-1.26.408-3,.716-4.918a22.464,22.464,0,0,1,1.038-4.875,4.687,4.687,0,0,1,.78-1.3C306.057,308.563,306.228,308.455,306.243,308.469Z" transform="translate(-259.064 -171.175)" fill="#eb996e"/>
      <path id="Trazado_187490" data-name="Trazado 187490" d="M304.67,283.39a2.5,2.5,0,0,1,.193.716c.1.458.222,1.124.358,1.954.272,1.654.573,3.952.766,6.507s.229,4.875.2,6.55c0,.838-.036,1.518-.072,1.983a2.509,2.509,0,0,1-.086.716,23.95,23.95,0,0,1-.107-2.706c-.036-1.675-.122-3.98-.308-6.522s-.444-4.839-.651-6.5A22.846,22.846,0,0,1,304.67,283.39Z" transform="translate(-259.51 -164.05)" fill="#eb996e"/>
      <path id="Trazado_187491" data-name="Trazado 187491" d="M325.493,312.352a1.976,1.976,0,0,1-1.847.158c-1.052-.315-1.539-1.124-1.432-1.16a9.8,9.8,0,0,0,1.554.8A10.448,10.448,0,0,0,325.493,312.352Z" transform="translate(-264.491 -171.993)" fill="#eb996e"/>
      <path id="Trazado_187492" data-name="Trazado 187492" d="M286.477,342.87l-14.5,6.1h-8.648s-8.548,2.67-9.865,10.688-1.5,12.134,2.255,13.129,14.375,1.1,19.637-.644,19.05-12.886,19.05-12.886l1.324-8.047Z" transform="translate(-244.717 -180.948)" fill="#ffbe9d"/>
      <path id="Trazado_187493" data-name="Trazado 187493" d="M302.938,350.022a3.847,3.847,0,0,1-.415-.379,9.23,9.23,0,0,1-.938-1.2,16.3,16.3,0,0,1-2.026-4.589,27.208,27.208,0,0,1-.895-4.925,9.309,9.309,0,0,1-.057-2.076,13.974,13.974,0,0,1,.315,2.04,36.464,36.464,0,0,0,1,4.861,19.247,19.247,0,0,0,1.89,4.553C302.458,349.385,302.988,349.972,302.938,350.022Z" transform="translate(-257.778 -179.238)" fill="#eb996e"/>
      <path id="Trazado_187494" data-name="Trazado 187494" d="M310.9,350.913a15.126,15.126,0,0,0,.823-3.107,10.023,10.023,0,0,0-1.947-7.288c-.881-1.231-1.876-2.305-2.713-3.35A15.866,15.866,0,0,1,305.1,334.2a7.824,7.824,0,0,1-.716-2.291,2.913,2.913,0,0,1,0-.873,10.239,10.239,0,0,0,.988,3.042,16.688,16.688,0,0,0,2,2.864c.838,1.016,1.84,2.09,2.742,3.35a10.422,10.422,0,0,1,1.811,3.973,10.1,10.1,0,0,1,.093,3.579,9.4,9.4,0,0,1-.659,2.305c-.115.258-.222.451-.293.58S310.909,350.921,310.9,350.913Z" transform="translate(-259.421 -177.587)" fill="#eb996e"/>
      <path id="Trazado_187495" data-name="Trazado 187495" d="M279.572,304.821a72.7,72.7,0,0,1-3.537-6.443,70.989,70.989,0,0,1-3.207-6.608,72.736,72.736,0,0,1,3.537,6.443A71.822,71.822,0,0,1,279.572,304.821Z" transform="translate(-250.463 -166.431)" fill="#fff"/>
      <path id="Trazado_187496" data-name="Trazado 187496" d="M315,269.311a44.508,44.508,0,0,1,2.183-5.369,46.135,46.135,0,0,1,2.527-5.212,45.97,45.97,0,0,1-2.183,5.369A45.4,45.4,0,0,1,315,269.311Z" transform="translate(-262.445 -157.044)" fill="#fff"/>
      <path id="Trazado_187497" data-name="Trazado 187497" d="M344.633,294.176a33.092,33.092,0,0,1-3.293-3.68,33.428,33.428,0,0,1-3-3.916,31.878,31.878,0,0,1,3.286,3.68A33.066,33.066,0,0,1,344.633,294.176Z" transform="translate(-269.076 -164.956)" fill="#fff"/>
      <path id="Trazado_187498" data-name="Trazado 187498" d="M339.74,326.882a28.553,28.553,0,0,1,2.477-3.737A27.353,27.353,0,0,1,345,319.63a28.006,28.006,0,0,1-2.477,3.737A26.148,26.148,0,0,1,339.74,326.882Z" transform="translate(-269.474 -174.346)" fill="#fff"/>
      <path id="Trazado_187499" data-name="Trazado 187499" d="M328.044,371.636a7.107,7.107,0,0,1-.838-1.432c-.472-.916-1.081-2.2-1.7-3.637s-1.11-2.778-1.432-3.744a7.225,7.225,0,0,1-.458-1.6,7.415,7.415,0,0,1,.716,1.511l1.539,3.687c.594,1.367,1.124,2.606,1.589,3.673a7.425,7.425,0,0,1,.58,1.546Z" transform="translate(-264.894 -186.162)" fill="#fff"/>
      <path id="Trazado_187500" data-name="Trazado 187500" d="M354.571,355.548a26.594,26.594,0,0,1-4.346-.651,25.881,25.881,0,0,1-4.3-1.017,51.875,51.875,0,0,1,8.591,1.668Z" transform="translate(-271.233 -184.076)" fill="#fff"/>
      <path id="Trazado_187501" data-name="Trazado 187501" d="M380,309.555a52.181,52.181,0,0,1,4.138-4.739,53.676,53.676,0,0,1,4.424-4.5,53.891,53.891,0,0,1-4.145,4.746A54.848,54.848,0,0,1,380,309.555Z" transform="translate(-280.912 -168.86)" fill="#fff"/>
      <path id="Trazado_187502" data-name="Trazado 187502" d="M398.01,365.708c-.079.072-2.391-2.613-5.169-5.978s-4.961-6.157-4.882-6.221,2.391,2.613,5.169,5.978S398.075,365.644,398.01,365.708Z" transform="translate(-283.173 -183.971)" fill="#fff"/>
      <path id="Trazado_187503" data-name="Trazado 187503" d="M261.882,346.12c.05.1-2.062,1.174-4.367,2.942s-3.909,3.515-3.995,3.436a5.1,5.1,0,0,1,.974-1.217,22.023,22.023,0,0,1,2.792-2.513,22.346,22.346,0,0,1,3.164-2.019A5.388,5.388,0,0,1,261.882,346.12Z" transform="translate(-244.978 -181.872)" fill="#fff"/>
      <path id="Trazado_187504" data-name="Trazado 187504" d="M271.98,324a15.26,15.26,0,0,1-1.682,2.864,15.032,15.032,0,0,1-2,2.663,15.43,15.43,0,0,1,1.682-2.864A14.82,14.82,0,0,1,271.98,324Z" transform="translate(-249.177 -175.587)" fill="#fff"/>
      <path id="Trazado_187505" data-name="Trazado 187505" d="M291.424,343.291a9.457,9.457,0,0,1-1.389-6.121c.107,0,.143,1.432.537,3.1S291.524,343.241,291.424,343.291Z" transform="translate(-255.335 -179.329)" fill="#fff"/>
      <path id="Trazado_187506" data-name="Trazado 187506" d="M292.54,276.793a11,11,0,0,1-2.756.58,10.6,10.6,0,0,1-2.814.208,11.1,11.1,0,0,1,2.763-.58,10.919,10.919,0,0,1,2.806-.208Z" transform="translate(-254.482 -162.171)" fill="#fff"/>
      <path id="Trazado_187507" data-name="Trazado 187507" d="M306.7,252.07a21.939,21.939,0,0,1-5.011,2.778,10.963,10.963,0,0,1,2.413-1.554A11.357,11.357,0,0,1,306.7,252.07Z" transform="translate(-258.664 -155.152)" fill="#fff"/>
      <path id="Trazado_187508" data-name="Trazado 187508" d="M345.826,259.8a49.9,49.9,0,0,1-5.226-6.865A49.9,49.9,0,0,1,345.826,259.8Z" transform="translate(-269.718 -155.396)" fill="#fff"/>
      <path id="Trazado_187509" data-name="Trazado 187509" d="M395.951,284.618a17.532,17.532,0,0,1-4.331-6.959c.107-.043.873,1.625,2.076,3.537S396.037,284.547,395.951,284.618Z" transform="translate(-284.213 -162.422)" fill="#fff"/>
      <path id="Trazado_187510" data-name="Trazado 187510" d="M415.363,293.64a41.723,41.723,0,0,1-3.293,7.252,22.148,22.148,0,0,1,1.482-3.7A21.017,21.017,0,0,1,415.363,293.64Z" transform="translate(-290.023 -166.962)" fill="#fff"/>
      <path id="Trazado_187511" data-name="Trazado 187511" d="M416.571,264.4a38.472,38.472,0,0,1-3.622-4.052,39.636,39.636,0,0,1-3.329-4.3A79.369,79.369,0,0,1,416.571,264.4Z" transform="translate(-289.327 -156.282)" fill="#fff"/>
      <path id="Trazado_187512" data-name="Trazado 187512" d="M390.154,243.891a16.823,16.823,0,0,1-.322-3.465,16.3,16.3,0,0,1,.05-3.486,16.828,16.828,0,0,1,.322,3.465,15.751,15.751,0,0,1-.05,3.486Z" transform="translate(-283.685 -150.853)" fill="#fff"/>
      <path id="Trazado_187513" data-name="Trazado 187513" d="M410.471,245.34a27.5,27.5,0,0,1-4.424.78,27.1,27.1,0,0,1-4.467.408,27.494,27.494,0,0,1,4.424-.78A27.036,27.036,0,0,1,410.471,245.34Z" transform="translate(-287.043 -153.24)" fill="#fff"/>
      <path id="Trazado_187514" data-name="Trazado 187514" d="M449.253,268.622a45.083,45.083,0,0,1-2.663-5.068,44.306,44.306,0,0,1-2.32-5.233,83.21,83.21,0,0,1,4.983,10.3Z" transform="translate(-299.171 -156.927)" fill="#fff"/>
      <path id="Trazado_187515" data-name="Trazado 187515" d="M445,293.155a46.538,46.538,0,0,1,1.618-8.075,23.22,23.22,0,0,1-.623,4.073A22.59,22.59,0,0,1,445,293.155Z" transform="translate(-299.379 -164.53)" fill="#fff"/>
      <path id="Trazado_187516" data-name="Trazado 187516" d="M460.686,310.585a45.264,45.264,0,0,1-2.148-5.5,45.815,45.815,0,0,1-1.768-5.627,87.9,87.9,0,0,1,3.916,11.125Z" transform="translate(-302.723 -168.615)" fill="#fff"/>
      <path id="Trazado_187517" data-name="Trazado 187517" d="M457.182,324.473a9.922,9.922,0,0,1-3.615-1.3,9.592,9.592,0,0,1-3.057-2.319c.072-.086,1.389,1,3.236,1.99S457.218,324.366,457.182,324.473Z" transform="translate(-300.944 -174.693)" fill="#fff"/>
      <path id="Trazado_187518" data-name="Trazado 187518" d="M481.116,348.781a20.437,20.437,0,0,1-2.226-5.011A20.446,20.446,0,0,1,481.116,348.781Z" transform="translate(-309.007 -181.204)" fill="#fff"/>
      <path id="Trazado_187519" data-name="Trazado 187519" d="M350.906,382.916a14.259,14.259,0,0,1-.558-3.171,14.478,14.478,0,0,1-.186-3.214,13.446,13.446,0,0,1,.594,3.2A13.977,13.977,0,0,1,350.906,382.916Z" transform="translate(-272.429 -190.511)" fill="#fff"/>
      <path id="Trazado_187520" data-name="Trazado 187520" d="M419.14,381.3a13.35,13.35,0,0,1,.465-3.1,13.536,13.536,0,0,1,.838-3.021,13.106,13.106,0,0,1-.473,3.1,13.311,13.311,0,0,1-.83,3.021Z" transform="translate(-292.032 -190.128)" fill="#fff"/>
    </g>
    <g id="freepik--speech-bubble--inject-8" transform="translate(315.818 89.295)">
      <path id="Trazado_187521" data-name="Trazado 187521" d="M432.16,163.071l6.329-11.053a29.681,29.681,0,1,1,7.109,7.875h0Z" transform="translate(-432.139 -106.675)" fill="#fafafa"/>
      <path id="Trazado_187522" data-name="Trazado 187522" d="M432.151,163.059,445.589,160h.136l-.086-.115h0l-.129.122a30.586,30.586,0,0,0,6.1,3.68,29.681,29.681,0,0,0,8.133,2.32,26.613,26.613,0,0,0,4.7.236c.809-.043,1.625-.064,2.455-.129l2.506-.379a29.906,29.906,0,0,0,23.546-23.353,30.367,30.367,0,0,0-.351-13.194,29.3,29.3,0,0,0-6.357-12.17l-1.224-1.4c-.4-.451-.873-.816-1.3-1.231a11.628,11.628,0,0,0-1.346-1.174l-1.432-1.06a11.946,11.946,0,0,0-1.475-.974l-1.5-.916-1.575-.766a14.952,14.952,0,0,0-1.589-.716,30.4,30.4,0,0,0-13.294-2.04,29.208,29.208,0,0,0-12.17,3.579,30.068,30.068,0,0,0-14.1,17.346,31.931,31.931,0,0,0-1.289,9.643,29.351,29.351,0,0,0,1.432,8.326,30.275,30.275,0,0,0,2.971,6.386v-.093c-3.966,7.109-5.906,10.581-6.214,11.125.315-.537,2.305-3.988,6.364-11.039v-.086a29.807,29.807,0,0,1-2.878-6.364,29.307,29.307,0,0,1-1.432-8.269,32.045,32.045,0,0,1,1.31-9.55,29.861,29.861,0,0,1,13.967-17.11,28.857,28.857,0,0,1,12.063-3.579,29.974,29.974,0,0,1,13.13,2.026,14.564,14.564,0,0,1,1.568.716l1.561.759,1.5.931a12.427,12.427,0,0,1,1.432.959l1.432,1.052c.48.344.88.773,1.324,1.16a13.777,13.777,0,0,1,1.289,1.217l1.2,1.31a29.044,29.044,0,0,1,6.286,12.048,29.838,29.838,0,0,1,.351,13.029,29.17,29.17,0,0,1-4.94,11.333A29.631,29.631,0,0,1,469.342,165.4l-2.477.387c-.823.064-1.632.093-2.434.136a26.85,26.85,0,0,1-4.653-.215,29.582,29.582,0,0,1-8.09-2.248,30.311,30.311,0,0,1-6.078-3.622l-.551-.422.422.551h0l.05-.143Z" transform="translate(-432.13 -106.664)" fill="#263238"/>
      <path id="Trazado_187523" data-name="Trazado 187523" d="M487.4,145.4a2.864,2.864,0,1,0,.839-2.061A2.864,2.864,0,0,0,487.4,145.4Z" transform="translate(-447.832 -116.845)" fill="#263238"/>
      <path id="Trazado_187524" data-name="Trazado 187524" d="M471.21,145.4a2.864,2.864,0,1,0,.826-2.048A2.864,2.864,0,0,0,471.21,145.4Z" transform="translate(-443.233 -116.845)" fill="#263238"/>
      <path id="Trazado_187525" data-name="Trazado 187525" d="M454.913,143.951a2.864,2.864,0,1,0,1.753-1.36A2.864,2.864,0,0,0,454.913,143.951Z" transform="translate(-438.498 -116.843)" fill="#263238"/>
    </g>
  </g>
</svg>
