<svg xmlns="http://www.w3.org/2000/svg" width="1030" height="317" viewBox="0 0 1030 317">
  <g id="Grupo_124313" data-name="Grupo 124313" transform="translate(-285 -5216)">
    <path id="Trazado_188113" data-name="Trazado 188113" d="M22,0h986a22,22,0,0,1,22,22V295a22,22,0,0,1-22,22H22A22,22,0,0,1,0,295V22A22,22,0,0,1,22,0Z" transform="translate(285 5216)" fill="#ffe39f" opacity="0.15"/>
    <g id="Grupo_124254" data-name="Grupo 124254" transform="translate(100.237 16)">
      <g id="Grupo_124253" data-name="Grupo 124253" transform="translate(266.938 4312.527)">
        <g id="Grupo_57996" data-name="Grupo 57996" transform="translate(657.405 928.663)">
          <g id="Grupo_57995" data-name="Grupo 57995" transform="translate(0 0)">
            <g id="Grupo_57990" data-name="Grupo 57990" transform="translate(2.86 2.863)">
              <path id="Trazado_112166" data-name="Trazado 112166" d="M137.9,252.534A114.667,114.667,0,0,1,93.275,32.267a114.666,114.666,0,0,1,89.241,211.256A113.832,113.832,0,0,1,137.9,252.534Zm0-228.087A113.478,113.478,0,0,0,93.739,242.429,113.478,113.478,0,0,0,182.058,33.362,112.747,112.747,0,0,0,137.9,24.447Z" transform="translate(-23.257 -23.257)" fill="#afafaf"/>
            </g>
            <g id="Grupo_57991" data-name="Grupo 57991" transform="translate(17.435 17.438)">
              <path id="Trazado_112167" data-name="Trazado 112167" d="M147.219,68.473h0l6.731-6.731,6.731-6.731a99.426,99.426,0,0,0-70.756-29.3v9.516A65.7,65.7,0,0,0,32.946,68.157h0A81.744,81.744,0,0,1,46.628,57.248l.524-.333c2.137-1.333,4.333-2.559,6.57-3.684l.036-.018a81.4,81.4,0,0,1,72.327,0l.054.03q1.643.821,3.249,1.72l.428.244c.922.518,1.833,1.065,2.732,1.625l.857.536q1.116.714,2.214,1.47c.333.226.661.458.994.69a81.954,81.954,0,0,1,10.284,8.63l.232.411Z" transform="translate(10.142 -25.706)" fill="#ff6b00"/>
              <path id="Trazado_112168" data-name="Trazado 112168" d="M68.157,158.365a81.5,81.5,0,0,1-10.909-13.682l-.333-.524q-2-3.2-3.684-6.57l-.018-.036a81.4,81.4,0,0,1,0-72.327l.03-.054q.821-1.643,1.72-3.249l.244-.423c.518-.922,1.065-1.833,1.625-2.738l.536-.857c.476-.744.964-1.476,1.47-2.208.226-.333.458-.667.69-1a81.951,81.951,0,0,1,8.63-10.284l.411-.226-.1-.1h0l-6.731-6.731L55.011,30.63a99.44,99.44,0,0,0-29.3,70.762h9.516a65.693,65.693,0,0,0,32.935,56.973Z" transform="translate(-25.706 -1.325)" fill="#ffd05c"/>
              <path id="Trazado_112169" data-name="Trazado 112169" d="M144.159,63.779q-3.2,2-6.57,3.684l-.036.018a80.6,80.6,0,0,1-36.161,8.475,80.629,80.629,0,0,1-36.167-8.475l-.054-.024q-1.643-.821-3.249-1.726l-.423-.238q-1.384-.786-2.738-1.625c-.286-.179-.571-.363-.857-.542-.744-.476-1.476-.964-2.208-1.464q-.5-.339-1-.7a81.448,81.448,0,0,1-10.284-8.63l-.226-.4-.1.089h0l-6.731,6.731L30.63,65.683a99.421,99.421,0,0,0,70.762,29.311V85.478a65.713,65.713,0,0,0,56.973-32.935v-.006a81.2,81.2,0,0,1-13.682,10.909Z" transform="translate(-1.325 105.139)" fill="#ffb600"/>
              <path id="Trazado_112170" data-name="Trazado 112170" d="M85.478,89.925A65.708,65.708,0,0,0,52.537,32.946h0A81.444,81.444,0,0,1,63.446,46.628l.333.524c1.333,2.137,2.565,4.333,3.684,6.57l.018.036a80.629,80.629,0,0,1,8.475,36.167,80.6,80.6,0,0,1-8.475,36.161l-.024.054q-.821,1.643-1.726,3.249l-.238.428q-.786,1.384-1.625,2.732c-.179.286-.363.571-.542.857q-.714,1.116-1.464,2.214c-.232.333-.458.661-.7.994a81.957,81.957,0,0,1-8.63,10.284l-.4.232.089.089h0l6.731,6.731,6.731,6.731A99.407,99.407,0,0,0,94.994,89.925Z" transform="translate(105.139 10.142)" fill="#ff8d3b"/>
            </g>
            <circle id="Elipse_6296" data-name="Elipse 6296" cx="71.945" cy="71.945" r="71.945" transform="translate(45.555 45.558)" fill="#f6f6f6"/>
            <g id="Grupo_57993" data-name="Grupo 57993" transform="translate(26.952 26.954)" opacity="0.05" style="mix-blend-mode: multiply;isolation: isolate">
              <path id="Trazado_112171" data-name="Trazado 112171" d="M32.946,60.24h0A81.744,81.744,0,0,1,46.628,49.331L47.152,49c2.137-1.333,4.333-2.559,6.57-3.684l.036-.018a81.4,81.4,0,0,1,72.327,0l.054.03q1.643.821,3.249,1.72l.428.244c.922.518,1.833,1.065,2.732,1.625l.857.536q1.116.714,2.214,1.47c.333.226.661.458.994.69A81.955,81.955,0,0,1,146.9,60.24l.232.411.089-.1h0l6.731-6.731h0A90.267,90.267,0,0,0,89.925,27.3c-.506,0-1.006.012-1.512.018A65.72,65.72,0,0,0,32.946,60.24Z" transform="translate(0.626 -27.305)" fill="#ff6b00"/>
              <path id="Trazado_112172" data-name="Trazado 112172" d="M60.24,152.765h0a81.5,81.5,0,0,1-10.909-13.682L49,138.559q-2-3.2-3.684-6.57l-.018-.036a81.4,81.4,0,0,1,0-72.327l.03-.054q.821-1.643,1.72-3.249l.244-.423c.518-.922,1.065-1.833,1.625-2.738l.536-.857c.476-.744.964-1.476,1.47-2.208.226-.333.458-.667.69-.994a81.584,81.584,0,0,1,8.63-10.29l.411-.226-.1-.1h0l-6.731-6.731A90.281,90.281,0,0,0,27.3,95.792h0c0,.5.012,1.006.018,1.506A65.7,65.7,0,0,0,60.24,152.765Z" transform="translate(-27.305 -5.242)"/>
              <path id="Trazado_112173" data-name="Trazado 112173" d="M152.765,52.543h0a81.466,81.466,0,0,1-13.682,10.9l-.524.333q-3.2,2-6.57,3.684l-.036.018a80.6,80.6,0,0,1-36.161,8.475,80.629,80.629,0,0,1-36.167-8.475l-.054-.024q-1.643-.821-3.249-1.726l-.423-.238q-1.384-.786-2.738-1.625c-.286-.179-.571-.363-.857-.542-.744-.476-1.476-.964-2.208-1.464-.333-.226-.667-.458-.994-.7a81.534,81.534,0,0,1-10.29-8.624l-.226-.411-.1.1-6.731,6.725A90.261,90.261,0,0,0,95.792,85.478h0c.5,0,1.006-.012,1.506-.024A65.686,65.686,0,0,0,152.765,52.543Z" transform="translate(-5.242 95.623)"/>
              <path id="Trazado_112174" data-name="Trazado 112174" d="M85.478,89.925h0v-.006c0-.5-.012-1-.024-1.5A65.7,65.7,0,0,0,52.537,32.946h0A81.444,81.444,0,0,1,63.446,46.628l.333.524c1.333,2.137,2.565,4.333,3.684,6.57l.018.036a80.629,80.629,0,0,1,8.475,36.167,80.6,80.6,0,0,1-8.475,36.161l-.024.054q-.821,1.643-1.726,3.249l-.238.428q-.786,1.384-1.625,2.732c-.179.286-.363.571-.542.857q-.714,1.116-1.464,2.214c-.232.333-.458.661-.7.994a81.957,81.957,0,0,1-8.63,10.284l-.4.232.089.1,6.731,6.725A90.247,90.247,0,0,0,85.478,89.925Z" transform="translate(95.623 0.626)"/>
            </g>
            <path id="Trazado_112176" data-name="Trazado 112176" d="M45.327,29.525A3.374,3.374,0,1,1,48.7,26.15,3.376,3.376,0,0,1,45.327,29.525Z" transform="translate(72.174 -22.776)" fill="#ff6b00"/>
            <path id="Trazado_112178" data-name="Trazado 112178" d="M56.5,34.153a3.373,3.373,0,1,1,4.767,0A3.369,3.369,0,0,1,56.5,34.153Z" transform="translate(139.313 5.037)" fill="#ff8d3b"/>
            <circle id="Elipse_6297" data-name="Elipse 6297" cx="3.374" cy="3.374" r="3.374" transform="translate(228.252 114.128)" fill="#ffb580"/>
            <path id="Trazado_112181" data-name="Trazado 112181" d="M56.5,56.5a3.371,3.371,0,1,1,0,4.767A3.362,3.362,0,0,1,56.5,56.5Z" transform="translate(139.313 139.315)" fill="#fdd6b9"/>
            <path id="Trazado_112183" data-name="Trazado 112183" d="M45.327,61.129A3.374,3.374,0,1,1,41.953,64.5,3.376,3.376,0,0,1,45.327,61.129Z" transform="translate(72.174 167.124)" fill="#ffb600"/>
            <path id="Trazado_112185" data-name="Trazado 112185" d="M34.153,56.5a3.373,3.373,0,1,1-4.773,0A3.373,3.373,0,0,1,34.153,56.5Z" transform="translate(5.035 139.315)" fill="#fcc849"/>
            <circle id="Elipse_6298" data-name="Elipse 6298" cx="3.374" cy="3.374" r="3.374" transform="translate(0 114.128)" fill="#ffd05c"/>
            <path id="Trazado_112188" data-name="Trazado 112188" d="M34.153,34.153a3.375,3.375,0,1,1,0-4.773A3.38,3.38,0,0,1,34.153,34.153Z" transform="translate(5.035 5.037)" fill="#ffe39f"/>
          </g>
        </g>
        <path id="Trazado_188112" data-name="Trazado 188112" d="M11.565,19V4.781h4.58a6.737,6.737,0,0,1,3.389.854,6.006,6.006,0,0,1,2.349,2.412,7.283,7.283,0,0,1,.854,3.491v.654a7.325,7.325,0,0,1-.825,3.5,6.032,6.032,0,0,1-2.324,2.422A6.589,6.589,0,0,1,16.242,19ZM14.992,7.428v8.936h1.191a2.666,2.666,0,0,0,2.266-1.05,5.145,5.145,0,0,0,.791-3.12v-.615a5.1,5.1,0,0,0-.791-3.105,2.713,2.713,0,0,0-2.3-1.045ZM29.455,19.2a5.432,5.432,0,0,1-3.936-1.45,5.008,5.008,0,0,1-1.5-3.774V13.7a6.489,6.489,0,0,1,.6-2.861,4.395,4.395,0,0,1,1.753-1.919A5.292,5.292,0,0,1,29.1,8.238,4.574,4.574,0,0,1,32.619,9.62a5.43,5.43,0,0,1,1.289,3.853v1.279H27.365a2.372,2.372,0,0,0,.771,1.4,2.3,2.3,0,0,0,1.543.508,2.958,2.958,0,0,0,2.441-1.094l1.5,1.777a4.2,4.2,0,0,1-1.743,1.353A5.891,5.891,0,0,1,29.455,19.2Zm-.371-8.418q-1.445,0-1.719,1.914h3.32v-.254a1.63,1.63,0,0,0-.4-1.226A1.593,1.593,0,0,0,29.084,10.777Zm11.68,5.254a.76.76,0,0,0-.439-.674,6.685,6.685,0,0,0-1.67-.527,7.615,7.615,0,0,1-2.031-.718A3.4,3.4,0,0,1,35.4,13.033a2.577,2.577,0,0,1-.42-1.455,2.92,2.92,0,0,1,1.2-2.4,4.948,4.948,0,0,1,3.145-.942,5.482,5.482,0,0,1,3.359.947,2.962,2.962,0,0,1,1.27,2.49h-3.3q0-1.27-1.338-1.27a1.326,1.326,0,0,0-.869.288.892.892,0,0,0-.352.718.819.819,0,0,0,.43.713,4.06,4.06,0,0,0,1.372.449,11.857,11.857,0,0,1,1.655.42,3.007,3.007,0,0,1,2.383,2.939,2.767,2.767,0,0,1-1.284,2.354,5.632,5.632,0,0,1-3.325.908,5.747,5.747,0,0,1-2.422-.488,4.05,4.05,0,0,1-1.66-1.328,3.007,3.007,0,0,1-.6-1.768h3.076a1.272,1.272,0,0,0,.488,1.069,2.009,2.009,0,0,0,1.2.337,1.58,1.58,0,0,0,1.011-.273A.875.875,0,0,0,40.764,16.031Zm14.521-2.236a6.372,6.372,0,0,1-1.108,3.931,3.554,3.554,0,0,1-2.993,1.47,3.046,3.046,0,0,1-2.393-1.064v4.932H45.5V8.434h3.076l.1.977a3.046,3.046,0,0,1,2.49-1.172A3.582,3.582,0,0,1,54.2,9.679a6.45,6.45,0,0,1,1.084,3.96Zm-3.291-.205q0-2.812-1.641-2.812a1.549,1.549,0,0,0-1.562.84v4.16a1.6,1.6,0,0,0,1.582.879q1.572,0,1.621-2.715Zm11.035,4.268A3.393,3.393,0,0,1,60.207,19.2a3.328,3.328,0,0,1-2.632-1.011,4.251,4.251,0,0,1-.894-2.905V8.434h3.291V15.3a1.183,1.183,0,0,0,1.318,1.357,1.72,1.72,0,0,0,1.611-.811V8.434h3.311V19H63.127Zm10.1,1.338a5.432,5.432,0,0,1-3.936-1.45,5.008,5.008,0,0,1-1.5-3.774V13.7a6.489,6.489,0,0,1,.6-2.861,4.395,4.395,0,0,1,1.753-1.919,5.292,5.292,0,0,1,2.734-.679A4.574,4.574,0,0,1,76.291,9.62a5.43,5.43,0,0,1,1.289,3.853v1.279H71.037a2.372,2.372,0,0,0,.771,1.4,2.3,2.3,0,0,0,1.543.508,2.958,2.958,0,0,0,2.441-1.094l1.5,1.777a4.2,4.2,0,0,1-1.743,1.353A5.891,5.891,0,0,1,73.127,19.2Zm-.371-8.418q-1.445,0-1.719,1.914h3.32v-.254a1.63,1.63,0,0,0-.4-1.226A1.593,1.593,0,0,0,72.756,10.777ZM72.717,3.99h3.477L73.479,7.057l-2.686,0ZM84.436,16.031A.76.76,0,0,0,84,15.357a6.685,6.685,0,0,0-1.67-.527,7.615,7.615,0,0,1-2.031-.718,3.4,3.4,0,0,1-1.221-1.079,2.577,2.577,0,0,1-.42-1.455,2.92,2.92,0,0,1,1.2-2.4A4.948,4.948,0,0,1,83,8.238a5.482,5.482,0,0,1,3.359.947,2.962,2.962,0,0,1,1.27,2.49h-3.3q0-1.27-1.338-1.27a1.326,1.326,0,0,0-.869.288.892.892,0,0,0-.352.718.819.819,0,0,0,.43.713,4.06,4.06,0,0,0,1.372.449,11.857,11.857,0,0,1,1.655.42,3.007,3.007,0,0,1,2.383,2.939,2.767,2.767,0,0,1-1.284,2.354A5.631,5.631,0,0,1,83,19.2a5.747,5.747,0,0,1-2.422-.488,4.05,4.05,0,0,1-1.66-1.328,3.007,3.007,0,0,1-.6-1.768H81.4a1.272,1.272,0,0,0,.488,1.069,2.009,2.009,0,0,0,1.2.337,1.58,1.58,0,0,0,1.011-.273A.875.875,0,0,0,84.436,16.031Zm9.277-2.393A6.455,6.455,0,0,1,94.8,9.684a3.568,3.568,0,0,1,3.027-1.445,3.035,3.035,0,0,1,2.383,1.113V4h3.3V19h-2.959l-.166-1.133A3.116,3.116,0,0,1,97.8,19.2a3.562,3.562,0,0,1-2.988-1.445A6.659,6.659,0,0,1,93.713,13.639ZM97,13.844q0,2.813,1.641,2.813a1.62,1.62,0,0,0,1.563-.918V11.715a1.576,1.576,0,0,0-1.543-.937q-1.523,0-1.65,2.461ZM110.49,19.2a5.432,5.432,0,0,1-3.936-1.45,5.008,5.008,0,0,1-1.5-3.774V13.7a6.489,6.489,0,0,1,.6-2.861A4.395,4.395,0,0,1,107.4,8.917a5.292,5.292,0,0,1,2.734-.679,4.574,4.574,0,0,1,3.516,1.382,5.43,5.43,0,0,1,1.289,3.853v1.279H108.4a2.372,2.372,0,0,0,.771,1.4,2.3,2.3,0,0,0,1.543.508,2.958,2.958,0,0,0,2.441-1.094l1.5,1.777a4.2,4.2,0,0,1-1.743,1.353A5.891,5.891,0,0,1,110.49,19.2Zm-.371-8.418q-1.445,0-1.719,1.914h3.32v-.254a1.63,1.63,0,0,0-.4-1.226A1.593,1.593,0,0,0,110.119,10.777ZM29.216,46a3.716,3.716,0,0,1-.312-.947A3.06,3.06,0,0,1,26.364,46.2a3.749,3.749,0,0,1-2.539-.9,2.875,2.875,0,0,1-1.045-2.271,2.955,2.955,0,0,1,1.27-2.6,6.468,6.468,0,0,1,3.691-.879h1.016v-.559q0-1.462-1.26-1.462a1.03,1.03,0,0,0-1.172,1.158H23.034a2.95,2.95,0,0,1,1.3-2.487,5.479,5.479,0,0,1,3.325-.956,4.8,4.8,0,0,1,3.193.986,3.429,3.429,0,0,1,1.2,2.705v4.678a4.79,4.79,0,0,0,.449,2.227V46Zm-2.061-2.148a1.836,1.836,0,0,0,1.021-.264,1.653,1.653,0,0,0,.581-.6V41.3H27.8q-1.719,0-1.719,1.543a.942.942,0,0,0,.3.728A1.1,1.1,0,0,0,27.155,43.852Zm16.533-3.057a6.372,6.372,0,0,1-1.108,3.931,3.554,3.554,0,0,1-2.993,1.47,3.046,3.046,0,0,1-2.393-1.064v4.932H33.9V35.434H36.98l.1.977a3.046,3.046,0,0,1,2.49-1.172,3.582,3.582,0,0,1,3.037,1.44,6.45,6.45,0,0,1,1.084,3.96ZM40.4,40.59q0-2.812-1.641-2.812a1.549,1.549,0,0,0-1.562.84v4.16a1.6,1.6,0,0,0,1.582.879q1.572,0,1.621-2.715ZM51.53,38.412l-1.084-.078a1.947,1.947,0,0,0-1.992.977V46H45.163V35.434h3.086l.107,1.357a2.548,2.548,0,0,1,2.314-1.553,3.209,3.209,0,0,1,.918.117ZM57.644,46.2a5.432,5.432,0,0,1-3.936-1.45,5.008,5.008,0,0,1-1.5-3.774V40.7a6.489,6.489,0,0,1,.6-2.861,4.395,4.395,0,0,1,1.753-1.919,5.292,5.292,0,0,1,2.734-.679,4.574,4.574,0,0,1,3.516,1.382A5.43,5.43,0,0,1,62.1,40.473v1.279H55.554a2.372,2.372,0,0,0,.771,1.4,2.3,2.3,0,0,0,1.543.508,2.958,2.958,0,0,0,2.441-1.094l1.5,1.777a4.2,4.2,0,0,1-1.743,1.353A5.891,5.891,0,0,1,57.644,46.2Zm-.371-8.418q-1.445,0-1.719,1.914h3.32v-.254a1.63,1.63,0,0,0-.4-1.226A1.593,1.593,0,0,0,57.273,37.777Zm9.17-2.344.107,1.24a3.583,3.583,0,0,1,3.018-1.436,3.015,3.015,0,0,1,2.466.986,4.7,4.7,0,0,1,.845,2.969V46h-3.3V39.33a1.783,1.783,0,0,0-.322-1.177,1.491,1.491,0,0,0-1.172-.376,1.569,1.569,0,0,0-1.436.762V46H63.357V35.434Zm7.842,5.205a6.455,6.455,0,0,1,1.084-3.955A3.568,3.568,0,0,1,78.4,35.238a3.035,3.035,0,0,1,2.383,1.113V31h3.3V46H81.12l-.166-1.133A3.116,3.116,0,0,1,78.376,46.2a3.562,3.562,0,0,1-2.988-1.445A6.659,6.659,0,0,1,74.284,40.639Zm3.291.205q0,2.813,1.641,2.813a1.62,1.62,0,0,0,1.563-.918V38.715a1.576,1.576,0,0,0-1.543-.937q-1.523,0-1.65,2.461ZM91.062,46.2a5.432,5.432,0,0,1-3.936-1.45,5.008,5.008,0,0,1-1.5-3.774V40.7a6.489,6.489,0,0,1,.6-2.861,4.395,4.395,0,0,1,1.753-1.919,5.292,5.292,0,0,1,2.734-.679,4.574,4.574,0,0,1,3.516,1.382,5.43,5.43,0,0,1,1.289,3.853v1.279H88.972a2.372,2.372,0,0,0,.771,1.4,2.3,2.3,0,0,0,1.543.508,2.958,2.958,0,0,0,2.441-1.094l1.5,1.777a4.2,4.2,0,0,1-1.743,1.353A5.891,5.891,0,0,1,91.062,46.2Zm-.371-8.418q-1.445,0-1.719,1.914h3.32v-.254a1.63,1.63,0,0,0-.4-1.226A1.593,1.593,0,0,0,90.691,37.777Zm12.539.635-1.084-.078a1.947,1.947,0,0,0-1.992.977V46H96.862V35.434h3.086l.107,1.357a2.548,2.548,0,0,1,2.314-1.553,3.209,3.209,0,0,1,.918.117Z" transform="translate(711.905 1019.665)" fill="#12263f"/>
      </g>
      <path id="Trazado_187233" data-name="Trazado 187233" d="M-7347.448-10330.6v-12.41l42.134-.4v-10.483l54.21,45.814-54.21,45v-10.166l-42.134.4v-12.364" transform="translate(7816.211 15667.389)" fill="none" stroke="#7926cb" stroke-width="2"/>
      <path id="Trazado_187234" data-name="Trazado 187234" d="M-7347.448-10330.6v-12.41l42.134-.4v-10.483l54.21,45.814-54.21,45v-10.166l-42.134.4v-12.364" transform="translate(8174.448 15667.389)" fill="none" stroke="#7926cb" stroke-width="2"/>
      <g id="Rectángulo_38656" data-name="Rectángulo 38656" transform="translate(565 5336)" fill="#ff8d3b" stroke="#7926cb" stroke-width="2">
        <rect width="280" height="46" rx="5" stroke="none"/>
        <rect x="1" y="1" width="278" height="44" rx="4" fill="none"/>
      </g>
      <path id="Trazado_188111" data-name="Trazado 188111" d="M33.025,4.781,36.2,14.674l3.164-9.893h4.512V19H40.438V15.68l.332-6.8L37.332,19H35.066L31.619,8.873l.332,6.807V19H28.523V4.781ZM49.373,19h-3.3V8.434h3.3Zm-3.5-13.3a1.482,1.482,0,0,1,.508-1.159,2.149,2.149,0,0,1,2.637,0A1.482,1.482,0,0,1,49.529,5.7a1.482,1.482,0,0,1-.508,1.159,2.149,2.149,0,0,1-2.637,0A1.482,1.482,0,0,1,45.877,5.7ZM56.512,19.2a5.432,5.432,0,0,1-3.936-1.45,5.008,5.008,0,0,1-1.5-3.774V13.7a6.489,6.489,0,0,1,.6-2.861,4.395,4.395,0,0,1,1.753-1.919,5.292,5.292,0,0,1,2.734-.679A4.574,4.574,0,0,1,59.676,9.62a5.43,5.43,0,0,1,1.289,3.853v1.279H54.422a2.372,2.372,0,0,0,.771,1.4,2.3,2.3,0,0,0,1.543.508,2.958,2.958,0,0,0,2.441-1.094l1.5,1.777a4.2,4.2,0,0,1-1.743,1.353A5.891,5.891,0,0,1,56.512,19.2Zm-.371-8.418q-1.445,0-1.719,1.914h3.32v-.254a1.63,1.63,0,0,0-.4-1.226A1.593,1.593,0,0,0,56.141,10.777Zm9.17-2.344.107,1.24a3.583,3.583,0,0,1,3.018-1.436,3.015,3.015,0,0,1,2.466.986,4.7,4.7,0,0,1,.845,2.969V19h-3.3V12.33a1.783,1.783,0,0,0-.322-1.177,1.491,1.491,0,0,0-1.172-.376,1.569,1.569,0,0,0-1.436.762V19H62.225V8.434ZM77.4,5.807V8.434h1.738v2.285H77.4v4.834a1.234,1.234,0,0,0,.215.83,1.152,1.152,0,0,0,.85.234,4.828,4.828,0,0,0,.82-.059v2.354a6.074,6.074,0,0,1-1.855.283,3.448,3.448,0,0,1-2.51-.8,3.282,3.282,0,0,1-.811-2.432V10.719H72.762V8.434h1.348V5.807Zm9.424,5.605-1.084-.078a1.947,1.947,0,0,0-1.992.977V19H80.457V8.434h3.086l.107,1.357a2.548,2.548,0,0,1,2.314-1.553,3.209,3.209,0,0,1,.918.117ZM93.67,19a3.716,3.716,0,0,1-.312-.947A3.06,3.06,0,0,1,90.818,19.2a3.749,3.749,0,0,1-2.539-.9,2.875,2.875,0,0,1-1.045-2.271,2.955,2.955,0,0,1,1.27-2.6,6.468,6.468,0,0,1,3.691-.879h1.016v-.559q0-1.462-1.26-1.462a1.03,1.03,0,0,0-1.172,1.158H87.488a2.95,2.95,0,0,1,1.3-2.487,5.479,5.479,0,0,1,3.325-.956,4.8,4.8,0,0,1,3.193.986,3.429,3.429,0,0,1,1.2,2.705v4.678a4.79,4.79,0,0,0,.449,2.227V19Zm-2.061-2.148a1.836,1.836,0,0,0,1.021-.264,1.653,1.653,0,0,0,.581-.6V14.3h-.957q-1.719,0-1.719,1.543a.942.942,0,0,0,.3.728A1.1,1.1,0,0,0,91.609,16.852Zm12.256-.82a.76.76,0,0,0-.439-.674,6.685,6.685,0,0,0-1.67-.527,7.615,7.615,0,0,1-2.031-.718A3.4,3.4,0,0,1,98.5,13.033a2.577,2.577,0,0,1-.42-1.455,2.92,2.92,0,0,1,1.2-2.4,4.948,4.948,0,0,1,3.145-.942,5.482,5.482,0,0,1,3.359.947,2.962,2.962,0,0,1,1.27,2.49h-3.3q0-1.27-1.338-1.27a1.326,1.326,0,0,0-.869.288.892.892,0,0,0-.352.718.819.819,0,0,0,.43.713,4.06,4.06,0,0,0,1.372.449,11.857,11.857,0,0,1,1.655.42,3.007,3.007,0,0,1,2.383,2.939,2.767,2.767,0,0,1-1.284,2.354,5.631,5.631,0,0,1-3.325.908,5.747,5.747,0,0,1-2.422-.488,4.05,4.05,0,0,1-1.66-1.328,3.007,3.007,0,0,1-.6-1.768h3.076a1.272,1.272,0,0,0,.488,1.069,2.009,2.009,0,0,0,1.2.337,1.58,1.58,0,0,0,1.011-.273A.875.875,0,0,0,103.865,16.031ZM119.51,19a3.716,3.716,0,0,1-.312-.947,3.06,3.06,0,0,1-2.539,1.143,3.749,3.749,0,0,1-2.539-.9,2.875,2.875,0,0,1-1.045-2.271,2.955,2.955,0,0,1,1.27-2.6,6.468,6.468,0,0,1,3.691-.879h1.016v-.559q0-1.462-1.26-1.462a1.03,1.03,0,0,0-1.172,1.158h-3.291a2.95,2.95,0,0,1,1.3-2.487,5.479,5.479,0,0,1,3.325-.956,4.8,4.8,0,0,1,3.193.986,3.429,3.429,0,0,1,1.2,2.705v4.678a4.79,4.79,0,0,0,.449,2.227V19Zm-2.061-2.148a1.836,1.836,0,0,0,1.021-.264,1.653,1.653,0,0,0,.581-.6V14.3h-.957q-1.719,0-1.719,1.543a.942.942,0,0,0,.3.728A1.1,1.1,0,0,0,117.449,16.852Zm16.533-3.057a6.372,6.372,0,0,1-1.108,3.931,3.554,3.554,0,0,1-2.993,1.47,3.046,3.046,0,0,1-2.393-1.064v4.932H124.2V8.434h3.076l.1.977a3.046,3.046,0,0,1,2.49-1.172,3.582,3.582,0,0,1,3.037,1.44,6.45,6.45,0,0,1,1.084,3.96Zm-3.291-.205q0-2.812-1.641-2.812a1.549,1.549,0,0,0-1.562.84v4.16a1.6,1.6,0,0,0,1.582.879q1.572,0,1.621-2.715Zm11.133-2.178-1.084-.078a1.947,1.947,0,0,0-1.992.977V19h-3.291V8.434h3.086l.107,1.357a2.548,2.548,0,0,1,2.314-1.553,3.209,3.209,0,0,1,.918.117Zm6.113,7.783A5.432,5.432,0,0,1,144,17.745a5.008,5.008,0,0,1-1.5-3.774V13.7a6.489,6.489,0,0,1,.6-2.861,4.395,4.395,0,0,1,1.753-1.919,5.292,5.292,0,0,1,2.734-.679A4.574,4.574,0,0,1,151.1,9.62a5.43,5.43,0,0,1,1.289,3.853v1.279h-6.543a2.372,2.372,0,0,0,.771,1.4,2.3,2.3,0,0,0,1.543.508,2.958,2.958,0,0,0,2.441-1.094l1.5,1.777a4.2,4.2,0,0,1-1.743,1.353A5.891,5.891,0,0,1,147.938,19.2Zm-.371-8.418q-1.445,0-1.719,1.914h3.32v-.254a1.63,1.63,0,0,0-.4-1.226A1.593,1.593,0,0,0,147.566,10.777Zm9.17-2.344.107,1.24a3.583,3.583,0,0,1,3.018-1.436,3.015,3.015,0,0,1,2.466.986,4.7,4.7,0,0,1,.845,2.969V19h-3.3V12.33a1.783,1.783,0,0,0-.322-1.177,1.491,1.491,0,0,0-1.172-.376,1.569,1.569,0,0,0-1.436.762V19H153.65V8.434Zm7.842,5.205a6.455,6.455,0,0,1,1.084-3.955,3.568,3.568,0,0,1,3.027-1.445,3.035,3.035,0,0,1,2.383,1.113V4h3.3V19h-2.959l-.166-1.133A3.116,3.116,0,0,1,168.67,19.2a3.562,3.562,0,0,1-2.988-1.445A6.659,6.659,0,0,1,164.578,13.639Zm3.291.205q0,2.813,1.641,2.813a1.62,1.62,0,0,0,1.563-.918V11.715a1.576,1.576,0,0,0-1.543-.937q-1.523,0-1.65,2.461Zm7.959-.225a6.236,6.236,0,0,1,.615-2.817,4.4,4.4,0,0,1,1.768-1.9,5.323,5.323,0,0,1,2.705-.664,4.858,4.858,0,0,1,3.74,1.47,5.64,5.64,0,0,1,1.367,4v.117a5.472,5.472,0,0,1-1.372,3.921,4.871,4.871,0,0,1-3.716,1.45,4.927,4.927,0,0,1-3.623-1.353,5.29,5.29,0,0,1-1.475-3.667Zm3.291.205a3.932,3.932,0,0,0,.459,2.148,1.529,1.529,0,0,0,1.357.684q1.758,0,1.8-2.705v-.332q0-2.842-1.816-2.842-1.65,0-1.787,2.451Z" transform="translate(598 5346)" fill="#fff"/>
      <g id="Grupo_57997" data-name="Grupo 57997" transform="translate(-417.643 4312.337)">
        <g id="Grupo_57996-2" data-name="Grupo 57996" transform="translate(657.405 928.663)">
          <g id="Grupo_57995-2" data-name="Grupo 57995" transform="translate(0 0)">
            <g id="Grupo_57990-2" data-name="Grupo 57990" transform="translate(2.86 2.863)">
              <path id="Trazado_112166-2" data-name="Trazado 112166" d="M137.9,252.534A114.667,114.667,0,0,1,93.275,32.267a114.666,114.666,0,0,1,89.241,211.256A113.832,113.832,0,0,1,137.9,252.534Zm0-228.087A113.478,113.478,0,0,0,93.739,242.429,113.478,113.478,0,0,0,182.058,33.362,112.747,112.747,0,0,0,137.9,24.447Z" transform="translate(-23.257 -23.257)" fill="#fff" stroke="#e3e3e3" stroke-width="3"/>
            </g>
            <g id="Grupo_57991-2" data-name="Grupo 57991" transform="translate(17.435 17.438)">
              <path id="Trazado_112167-2" data-name="Trazado 112167" d="M147.219,68.473h0l6.731-6.731,6.731-6.731a99.426,99.426,0,0,0-70.756-29.3v9.516A65.7,65.7,0,0,0,32.946,68.157h0A81.744,81.744,0,0,1,46.628,57.248l.524-.333c2.137-1.333,4.333-2.559,6.57-3.684l.036-.018a81.4,81.4,0,0,1,72.327,0l.054.03q1.643.821,3.249,1.72l.428.244c.922.518,1.833,1.065,2.732,1.625l.857.536q1.116.714,2.214,1.47c.333.226.661.458.994.69a81.954,81.954,0,0,1,10.284,8.63l.232.411Z" transform="translate(10.142 -25.706)" fill="#ff6b00"/>
              <path id="Trazado_112168-2" data-name="Trazado 112168" d="M68.157,158.365a81.5,81.5,0,0,1-10.909-13.682l-.333-.524q-2-3.2-3.684-6.57l-.018-.036a81.4,81.4,0,0,1,0-72.327l.03-.054q.821-1.643,1.72-3.249l.244-.423c.518-.922,1.065-1.833,1.625-2.738l.536-.857c.476-.744.964-1.476,1.47-2.208.226-.333.458-.667.69-1a81.951,81.951,0,0,1,8.63-10.284l.411-.226-.1-.1h0l-6.731-6.731L55.011,30.63a99.44,99.44,0,0,0-29.3,70.762h9.516a65.693,65.693,0,0,0,32.935,56.973Z" transform="translate(-25.706 -1.325)" fill="#ffd05c"/>
              <path id="Trazado_112169-2" data-name="Trazado 112169" d="M144.159,63.779q-3.2,2-6.57,3.684l-.036.018a80.6,80.6,0,0,1-36.161,8.475,80.629,80.629,0,0,1-36.167-8.475l-.054-.024q-1.643-.821-3.249-1.726l-.423-.238q-1.384-.786-2.738-1.625c-.286-.179-.571-.363-.857-.542-.744-.476-1.476-.964-2.208-1.464q-.5-.339-1-.7a81.448,81.448,0,0,1-10.284-8.63l-.226-.4-.1.089h0l-6.731,6.731L30.63,65.683a99.421,99.421,0,0,0,70.762,29.311V85.478a65.713,65.713,0,0,0,56.973-32.935v-.006a81.2,81.2,0,0,1-13.682,10.909Z" transform="translate(-1.325 105.139)" fill="#ffb600"/>
              <path id="Trazado_112170-2" data-name="Trazado 112170" d="M85.478,89.925A65.708,65.708,0,0,0,52.537,32.946h0A81.444,81.444,0,0,1,63.446,46.628l.333.524c1.333,2.137,2.565,4.333,3.684,6.57l.018.036a80.629,80.629,0,0,1,8.475,36.167,80.6,80.6,0,0,1-8.475,36.161l-.024.054q-.821,1.643-1.726,3.249l-.238.428q-.786,1.384-1.625,2.732c-.179.286-.363.571-.542.857q-.714,1.116-1.464,2.214c-.232.333-.458.661-.7.994a81.957,81.957,0,0,1-8.63,10.284l-.4.232.089.089h0l6.731,6.731,6.731,6.731A99.407,99.407,0,0,0,94.994,89.925Z" transform="translate(105.139 10.142)" fill="#ff8d3b"/>
            </g>
            <circle id="Elipse_6296-2" data-name="Elipse 6296" cx="71.945" cy="71.945" r="71.945" transform="translate(45.555 45.558)" fill="#f6f6f6"/>
            <g id="Grupo_57993-2" data-name="Grupo 57993" transform="translate(26.952 26.954)" opacity="0.05" style="mix-blend-mode: multiply;isolation: isolate">
              <path id="Trazado_112171-2" data-name="Trazado 112171" d="M32.946,60.24h0A81.744,81.744,0,0,1,46.628,49.331L47.152,49c2.137-1.333,4.333-2.559,6.57-3.684l.036-.018a81.4,81.4,0,0,1,72.327,0l.054.03q1.643.821,3.249,1.72l.428.244c.922.518,1.833,1.065,2.732,1.625l.857.536q1.116.714,2.214,1.47c.333.226.661.458.994.69A81.955,81.955,0,0,1,146.9,60.24l.232.411.089-.1h0l6.731-6.731h0A90.267,90.267,0,0,0,89.925,27.3c-.506,0-1.006.012-1.512.018A65.72,65.72,0,0,0,32.946,60.24Z" transform="translate(0.626 -27.305)" fill="#ff6b00"/>
              <path id="Trazado_112172-2" data-name="Trazado 112172" d="M60.24,152.765h0a81.5,81.5,0,0,1-10.909-13.682L49,138.559q-2-3.2-3.684-6.57l-.018-.036a81.4,81.4,0,0,1,0-72.327l.03-.054q.821-1.643,1.72-3.249l.244-.423c.518-.922,1.065-1.833,1.625-2.738l.536-.857c.476-.744.964-1.476,1.47-2.208.226-.333.458-.667.69-.994a81.584,81.584,0,0,1,8.63-10.29l.411-.226-.1-.1h0l-6.731-6.731A90.281,90.281,0,0,0,27.3,95.792h0c0,.5.012,1.006.018,1.506A65.7,65.7,0,0,0,60.24,152.765Z" transform="translate(-27.305 -5.242)"/>
              <path id="Trazado_112173-2" data-name="Trazado 112173" d="M152.765,52.543h0a81.466,81.466,0,0,1-13.682,10.9l-.524.333q-3.2,2-6.57,3.684l-.036.018a80.6,80.6,0,0,1-36.161,8.475,80.629,80.629,0,0,1-36.167-8.475l-.054-.024q-1.643-.821-3.249-1.726l-.423-.238q-1.384-.786-2.738-1.625c-.286-.179-.571-.363-.857-.542-.744-.476-1.476-.964-2.208-1.464-.333-.226-.667-.458-.994-.7a81.534,81.534,0,0,1-10.29-8.624l-.226-.411-.1.1-6.731,6.725A90.261,90.261,0,0,0,95.792,85.478h0c.5,0,1.006-.012,1.506-.024A65.686,65.686,0,0,0,152.765,52.543Z" transform="translate(-5.242 95.623)"/>
              <path id="Trazado_112174-2" data-name="Trazado 112174" d="M85.478,89.925h0v-.006c0-.5-.012-1-.024-1.5A65.7,65.7,0,0,0,52.537,32.946h0A81.444,81.444,0,0,1,63.446,46.628l.333.524c1.333,2.137,2.565,4.333,3.684,6.57l.018.036a80.629,80.629,0,0,1,8.475,36.167,80.6,80.6,0,0,1-8.475,36.161l-.024.054q-.821,1.643-1.726,3.249l-.238.428q-.786,1.384-1.625,2.732c-.179.286-.363.571-.542.857q-.714,1.116-1.464,2.214c-.232.333-.458.661-.7.994a81.957,81.957,0,0,1-8.63,10.284l-.4.232.089.1,6.731,6.725A90.247,90.247,0,0,0,85.478,89.925Z" transform="translate(95.623 0.626)"/>
            </g>
            <path id="Trazado_112176-2" data-name="Trazado 112176" d="M45.327,29.525A3.374,3.374,0,1,1,48.7,26.15,3.376,3.376,0,0,1,45.327,29.525Z" transform="translate(72.174 -22.776)" fill="#ff6b00"/>
            <path id="Trazado_112178-2" data-name="Trazado 112178" d="M56.5,34.153a3.373,3.373,0,1,1,4.767,0A3.369,3.369,0,0,1,56.5,34.153Z" transform="translate(139.313 5.037)" fill="#ff8d3b"/>
            <circle id="Elipse_6297-2" data-name="Elipse 6297" cx="3.374" cy="3.374" r="3.374" transform="translate(228.252 114.128)" fill="#ffb580"/>
            <path id="Trazado_112181-2" data-name="Trazado 112181" d="M56.5,56.5a3.371,3.371,0,1,1,0,4.767A3.362,3.362,0,0,1,56.5,56.5Z" transform="translate(139.313 139.315)" fill="#fdd6b9"/>
            <path id="Trazado_112183-2" data-name="Trazado 112183" d="M45.327,61.129A3.374,3.374,0,1,1,41.953,64.5,3.376,3.376,0,0,1,45.327,61.129Z" transform="translate(72.174 167.124)" fill="#ffb600"/>
            <path id="Trazado_112185-2" data-name="Trazado 112185" d="M34.153,56.5a3.373,3.373,0,1,1-4.773,0A3.373,3.373,0,0,1,34.153,56.5Z" transform="translate(5.035 139.315)" fill="#fcc849"/>
            <circle id="Elipse_6298-2" data-name="Elipse 6298" cx="3.374" cy="3.374" r="3.374" transform="translate(0 114.128)" fill="#ffd05c"/>
            <path id="Trazado_112188-2" data-name="Trazado 112188" d="M34.153,34.153a3.375,3.375,0,1,1,0-4.773A3.38,3.38,0,0,1,34.153,34.153Z" transform="translate(5.035 5.037)" fill="#ffe39f"/>
          </g>
        </g>
        <path id="Trazado_188110" data-name="Trazado 188110" d="M32.292,16.344h-4.7L26.775,19H23.112L28.327,4.781H31.55L36.8,19H33.122ZM28.415,13.7h3.057L29.939,8.766ZM40.241,8.434l.107,1.24a3.583,3.583,0,0,1,3.018-1.436,3.015,3.015,0,0,1,2.466.986,4.7,4.7,0,0,1,.845,2.969V19h-3.3V12.33a1.783,1.783,0,0,0-.322-1.177,1.491,1.491,0,0,0-1.172-.376,1.569,1.569,0,0,0-1.436.762V19H37.155V8.434Zm12.09-2.627V8.434h1.738v2.285H52.331v4.834a1.234,1.234,0,0,0,.215.83,1.152,1.152,0,0,0,.85.234,4.828,4.828,0,0,0,.82-.059v2.354a6.074,6.074,0,0,1-1.855.283,3.448,3.448,0,0,1-2.51-.8,3.282,3.282,0,0,1-.811-2.432V10.719H47.692V8.434H49.04V5.807ZM60.476,19.2a5.432,5.432,0,0,1-3.936-1.45,5.008,5.008,0,0,1-1.5-3.774V13.7a6.489,6.489,0,0,1,.6-2.861A4.395,4.395,0,0,1,57.39,8.917a5.292,5.292,0,0,1,2.734-.679A4.574,4.574,0,0,1,63.64,9.62a5.43,5.43,0,0,1,1.289,3.853v1.279H58.386a2.372,2.372,0,0,0,.771,1.4,2.3,2.3,0,0,0,1.543.508,2.958,2.958,0,0,0,2.441-1.094l1.5,1.777A4.2,4.2,0,0,1,62.9,18.692,5.891,5.891,0,0,1,60.476,19.2ZM60.1,10.777q-1.445,0-1.719,1.914h3.32v-.254a1.63,1.63,0,0,0-.4-1.226A1.593,1.593,0,0,0,60.1,10.777Zm11.68,5.254a.76.76,0,0,0-.439-.674,6.685,6.685,0,0,0-1.67-.527,7.615,7.615,0,0,1-2.031-.718,3.4,3.4,0,0,1-1.221-1.079A2.577,2.577,0,0,1,66,11.578a2.92,2.92,0,0,1,1.2-2.4,4.948,4.948,0,0,1,3.145-.942,5.482,5.482,0,0,1,3.359.947,2.962,2.962,0,0,1,1.27,2.49h-3.3q0-1.27-1.338-1.27a1.326,1.326,0,0,0-.869.288.892.892,0,0,0-.352.718.819.819,0,0,0,.43.713,4.06,4.06,0,0,0,1.372.449,11.857,11.857,0,0,1,1.655.42,3.007,3.007,0,0,1,2.383,2.939,2.767,2.767,0,0,1-1.284,2.354,5.631,5.631,0,0,1-3.325.908,5.747,5.747,0,0,1-2.422-.488,4.05,4.05,0,0,1-1.66-1.328,3.007,3.007,0,0,1-.6-1.768h3.076a1.272,1.272,0,0,0,.488,1.069,2.009,2.009,0,0,0,1.2.337,1.58,1.58,0,0,0,1.011-.273A.875.875,0,0,0,71.784,16.031Zm9.277-2.393a6.455,6.455,0,0,1,1.084-3.955,3.568,3.568,0,0,1,3.027-1.445,3.035,3.035,0,0,1,2.383,1.113V4h3.3V19H87.9l-.166-1.133A3.116,3.116,0,0,1,85.153,19.2a3.562,3.562,0,0,1-2.988-1.445A6.659,6.659,0,0,1,81.062,13.639Zm3.291.205q0,2.813,1.641,2.813a1.62,1.62,0,0,0,1.563-.918V11.715a1.576,1.576,0,0,0-1.543-.937q-1.523,0-1.65,2.461ZM97.839,19.2a5.432,5.432,0,0,1-3.936-1.45,5.008,5.008,0,0,1-1.5-3.774V13.7a6.489,6.489,0,0,1,.6-2.861,4.395,4.395,0,0,1,1.753-1.919,5.292,5.292,0,0,1,2.734-.679A4.574,4.574,0,0,1,101,9.62a5.43,5.43,0,0,1,1.289,3.853v1.279H95.749a2.372,2.372,0,0,0,.771,1.4,2.3,2.3,0,0,0,1.543.508,2.958,2.958,0,0,0,2.441-1.094l1.5,1.777a4.2,4.2,0,0,1-1.743,1.353A5.891,5.891,0,0,1,97.839,19.2Zm-.371-8.418q-1.445,0-1.719,1.914h3.32v-.254a1.63,1.63,0,0,0-.4-1.226A1.593,1.593,0,0,0,97.468,10.777ZM29.216,46a3.716,3.716,0,0,1-.312-.947A3.06,3.06,0,0,1,26.364,46.2a3.749,3.749,0,0,1-2.539-.9,2.875,2.875,0,0,1-1.045-2.271,2.955,2.955,0,0,1,1.27-2.6,6.468,6.468,0,0,1,3.691-.879h1.016v-.559q0-1.462-1.26-1.462a1.03,1.03,0,0,0-1.172,1.158H23.034a2.95,2.95,0,0,1,1.3-2.487,5.479,5.479,0,0,1,3.325-.956,4.8,4.8,0,0,1,3.193.986,3.429,3.429,0,0,1,1.2,2.705v4.678a4.79,4.79,0,0,0,.449,2.227V46Zm-2.061-2.148a1.836,1.836,0,0,0,1.021-.264,1.653,1.653,0,0,0,.581-.6V41.3H27.8q-1.719,0-1.719,1.543a.942.942,0,0,0,.3.728A1.1,1.1,0,0,0,27.155,43.852Zm16.533-3.057a6.372,6.372,0,0,1-1.108,3.931,3.554,3.554,0,0,1-2.993,1.47,3.046,3.046,0,0,1-2.393-1.064v4.932H33.9V35.434H36.98l.1.977a3.046,3.046,0,0,1,2.49-1.172,3.582,3.582,0,0,1,3.037,1.44,6.45,6.45,0,0,1,1.084,3.96ZM40.4,40.59q0-2.812-1.641-2.812a1.549,1.549,0,0,0-1.562.84v4.16a1.6,1.6,0,0,0,1.582.879q1.572,0,1.621-2.715ZM51.53,38.412l-1.084-.078a1.947,1.947,0,0,0-1.992.977V46H45.163V35.434h3.086l.107,1.357a2.548,2.548,0,0,1,2.314-1.553,3.209,3.209,0,0,1,.918.117ZM57.644,46.2a5.432,5.432,0,0,1-3.936-1.45,5.008,5.008,0,0,1-1.5-3.774V40.7a6.489,6.489,0,0,1,.6-2.861,4.395,4.395,0,0,1,1.753-1.919,5.292,5.292,0,0,1,2.734-.679,4.574,4.574,0,0,1,3.516,1.382A5.43,5.43,0,0,1,62.1,40.473v1.279H55.554a2.372,2.372,0,0,0,.771,1.4,2.3,2.3,0,0,0,1.543.508,2.958,2.958,0,0,0,2.441-1.094l1.5,1.777a4.2,4.2,0,0,1-1.743,1.353A5.891,5.891,0,0,1,57.644,46.2Zm-.371-8.418q-1.445,0-1.719,1.914h3.32v-.254a1.63,1.63,0,0,0-.4-1.226A1.593,1.593,0,0,0,57.273,37.777Zm9.17-2.344.107,1.24a3.583,3.583,0,0,1,3.018-1.436,3.015,3.015,0,0,1,2.466.986,4.7,4.7,0,0,1,.845,2.969V46h-3.3V39.33a1.783,1.783,0,0,0-.322-1.177,1.491,1.491,0,0,0-1.172-.376,1.569,1.569,0,0,0-1.436.762V46H63.357V35.434Zm7.842,5.205a6.455,6.455,0,0,1,1.084-3.955A3.568,3.568,0,0,1,78.4,35.238a3.035,3.035,0,0,1,2.383,1.113V31h3.3V46H81.12l-.166-1.133A3.116,3.116,0,0,1,78.376,46.2a3.562,3.562,0,0,1-2.988-1.445A6.659,6.659,0,0,1,74.284,40.639Zm3.291.205q0,2.813,1.641,2.813a1.62,1.62,0,0,0,1.563-.918V38.715a1.576,1.576,0,0,0-1.543-.937q-1.523,0-1.65,2.461ZM91.062,46.2a5.432,5.432,0,0,1-3.936-1.45,5.008,5.008,0,0,1-1.5-3.774V40.7a6.489,6.489,0,0,1,.6-2.861,4.395,4.395,0,0,1,1.753-1.919,5.292,5.292,0,0,1,2.734-.679,4.574,4.574,0,0,1,3.516,1.382,5.43,5.43,0,0,1,1.289,3.853v1.279H88.972a2.372,2.372,0,0,0,.771,1.4,2.3,2.3,0,0,0,1.543.508,2.958,2.958,0,0,0,2.441-1.094l1.5,1.777a4.2,4.2,0,0,1-1.743,1.353A5.891,5.891,0,0,1,91.062,46.2Zm-.371-8.418q-1.445,0-1.719,1.914h3.32v-.254a1.63,1.63,0,0,0-.4-1.226A1.593,1.593,0,0,0,90.691,37.777Zm12.539.635-1.084-.078a1.947,1.947,0,0,0-1.992.977V46H96.862V35.434h3.086l.107,1.357a2.548,2.548,0,0,1,2.314-1.553,3.209,3.209,0,0,1,.918.117Z" transform="translate(711.905 1019.665)" fill="#12263f"/>
      </g>
    </g>
  </g>
</svg>
