<svg xmlns="http://www.w3.org/2000/svg" width="525" height="316.589" viewBox="0 0 525 316.589">
  <g id="Asset_selection-pana" data-name="Asset selection-pana" transform="translate(-32.16 -47.81)">
    <g id="freepik--background-complete--inject-2" transform="translate(32.16 47.81)">
      <rect id="Rectángulo_38775" data-name="Rectángulo 38775" width="76.248" height="60.955" transform="matrix(0.987, -0.159, 0.159, 0.987, 0.184, 169.051)" fill="#f5f5f5"/>
      <path id="Trazado_187892" data-name="Trazado 187892" d="M107.628,255l-.364.068-1.053.182-4.083.674-15.407,2.53-54.342,8.84.167-.227c2.878,17.914,6.189,38.45,9.681,60.174h0l-.25-.182,75.286-12.052-.151.212c-2.871-18.127-5.249-33.155-6.916-43.669-.818-5.257-1.47-9.378-1.909-12.2q-.326-2.113-.5-3.227c-.106-.758-.159-1.114-.159-1.114s.076.356.2,1.068.3,1.8.53,3.181c.462,2.818,1.136,6.923,2,12.158,1.712,10.529,4.166,25.58,7.12,43.745v.182h-.182l-75.279,12.12H41.8v-.212h0c-3.484-21.732-6.772-42.267-9.643-60.182v-.2h.2l54.5-8.65,15.377-2.416,4.053-.629,1.038-.159Z" transform="translate(-32.16 -98.057)" fill="#e0e0e0"/>
      <rect id="Rectángulo_38776" data-name="Rectángulo 38776" width="70.893" height="53.281" transform="matrix(0.987, -0.159, 0.159, 0.987, 3.38, 172.419)" fill="#ebebeb"/>
      <path id="Trazado_187893" data-name="Trazado 187893" d="M47.79,333.152,66.985,296.52l18.43,18.028,8.514-12.582,23.853,19.944Z" transform="translate(-35.951 -108.127)" fill="#e0e0e0"/>
      <path id="Trazado_187894" data-name="Trazado 187894" d="M97.208,285.158a5.583,5.583,0,1,1-6.393-4.621A5.583,5.583,0,0,1,97.208,285.158Z" transform="translate(-45.245 -104.233)" fill="#e0e0e0"/>
      <path id="Trazado_187895" data-name="Trazado 187895" d="M593.007,366.647a26.361,26.361,0,0,0-11.317-3.893c-1.848-.189-3.863-.136-5.348.985a1.091,1.091,0,0,0-.553.977,1.22,1.22,0,0,0,.523.667,16.127,16.127,0,0,0,16.665,1.265" transform="translate(-164 -124.169)" fill="#e0e0e0"/>
      <path id="Trazado_187896" data-name="Trazado 187896" d="M594.294,361.82a55.249,55.249,0,0,1-7.31-6.431,18.527,18.527,0,0,1-4.545-8.476,3.409,3.409,0,0,1,.364-2.833c5.825,4.545,10.4,10.43,11.529,17.74" transform="translate(-165.575 -119.661)" fill="#e0e0e0"/>
      <path id="Trazado_187897" data-name="Trazado 187897" d="M598.32,362.253a26.361,26.361,0,0,1,.136-9.6,13.005,13.005,0,0,1,5.113-7.916c1.007,2.356.576,5.068-.136,7.522a36.671,36.671,0,0,1-5.068,10.673" transform="translate(-169.373 -119.821)" fill="#e0e0e0"/>
      <path id="Trazado_187898" data-name="Trazado 187898" d="M601.429,381.37a18.04,18.04,0,0,0-14.279,13.506c3.4-.212,6.287-2.613,8.378-5.3s3.537-5.636,5.84-8.151" transform="translate(-166.755 -128.704)" fill="#e0e0e0"/>
      <path id="Trazado_187899" data-name="Trazado 187899" d="M607.119,376.752a22.384,22.384,0,0,1,2.56-21.172,26.949,26.949,0,0,1-2.583,21.172" transform="translate(-171.218 -122.45)" fill="#e0e0e0"/>
      <path id="Trazado_187900" data-name="Trazado 187900" d="M612.55,395.38a16.2,16.2,0,0,0-15.475,8.908c-.189.386-.364.871-.106,1.212a1.151,1.151,0,0,0,1.03.3c3.03-.2,5.749-2.03,7.984-4.121s4.174-4.5,6.636-6.31" transform="translate(-169.105 -132.095)" fill="#e0e0e0"/>
      <path id="Trazado_187901" data-name="Trazado 187901" d="M616.846,387.882a28.9,28.9,0,0,1-.288-16.1c.568-2.068,1.515-4.249,3.439-5.227a.53.53,0,0,1,.856.3,9.734,9.734,0,0,1,.81,4.621,28.815,28.815,0,0,1-.757,4.674c-.6,2.856-.924,5.931-2.492,8.393a17.22,17.22,0,0,0-.992,1.841c-.3.629-.3.848-.568,1.348" transform="translate(-173.643 -125.081)" fill="#e0e0e0"/>
      <path id="Trazado_187902" data-name="Trazado 187902" d="M643.448,393a20.651,20.651,0,0,1,3.636-17.074c.265-.341.606-.7,1.038-.659.651.061.818.932.8,1.583A30.905,30.905,0,0,1,643.448,393" transform="translate(-180.27 -127.224)" fill="#e0e0e0"/>
      <path id="Trazado_187903" data-name="Trazado 187903" d="M646,398.4a24.821,24.821,0,0,0,20.369-4.143,16.483,16.483,0,0,0-11.021-1.386,15.732,15.732,0,0,0-9.34,5.5" transform="translate(-181.027 -131.399)" fill="#e0e0e0"/>
      <path id="Trazado_187904" data-name="Trazado 187904" d="M648,391.928a23.553,23.553,0,0,1,18.49-10.688,11.3,11.3,0,0,1-6.06,6.681,34.5,34.5,0,0,1-8.878,2.6c-1.182.227-2.8.485-3.568,1.409" transform="translate(-181.508 -128.673)" fill="#e0e0e0"/>
      <path id="Trazado_187905" data-name="Trazado 187905" d="M643.28,364.445a53.346,53.346,0,0,0,2.363-10.824,17.95,17.95,0,0,0-2.151-10.711,23.564,23.564,0,0,0-.318,21.906" transform="translate(-179.724 -119.377)" fill="#e0e0e0"/>
      <path id="Trazado_187906" data-name="Trazado 187906" d="M660,358.659c4.189-7.575,12.726-13.68,21.361-14.529-3.333,8.294-12.423,14.7-21.361,14.529" transform="translate(-184.423 -119.673)" fill="#e0e0e0"/>
      <path id="Trazado_187907" data-name="Trazado 187907" d="M656.56,364.874c6.242.954,11.552,4.939,17.422,7.355a7.826,7.826,0,0,0,3.931.757,3.068,3.068,0,0,0,1.924-5.439,8.377,8.377,0,0,0-2.848-1.735c-6.355-2.644-13.165-2.712-19.854-1.106" transform="translate(-183.588 -124.404)" fill="#e0e0e0"/>
      <path id="Trazado_187908" data-name="Trazado 187908" d="M651.79,370.954c1.417.4,1.894,1.136,3.03,2.091a32.512,32.512,0,0,0,13.188,6.772c.5.121,1.159.174,1.409-.28s-.053-.879-.341-1.235a18.059,18.059,0,0,0-7.961-5.4c-3.03-1.136-5.673-2.5-9.309-2.2" transform="translate(-182.432 -126.106)" fill="#e0e0e0"/>
      <path id="Trazado_187909" data-name="Trazado 187909" d="M646.41,335.943a25,25,0,0,0,19.134,6.507,1.348,1.348,0,0,0,.871-.311c.477-.523-.1-1.333-.659-1.772-5.628-4.386-12.438-6.2-19.346-4.424" transform="translate(-181.127 -117.523)" fill="#e0e0e0"/>
      <path id="Trazado_187910" data-name="Trazado 187910" d="M652.79,332.159a26.656,26.656,0,0,1,23.868-3.939,18.937,18.937,0,0,1-11.362,5,36.057,36.057,0,0,1-12.5-1.06" transform="translate(-182.674 -115.511)" fill="#e0e0e0"/>
      <path id="Trazado_187911" data-name="Trazado 187911" d="M649.228,312.385c-.553-5.613-.2-10.044-.583-15.687,0-.447-.129-.992-.553-1.151-.583-.227-1.076.492-1.265,1.091a17.96,17.96,0,0,0,2.394,15.627" transform="translate(-181.029 -107.88)" fill="#e0e0e0"/>
      <path id="Trazado_187912" data-name="Trazado 187912" d="M649.72,312.959a33.117,33.117,0,0,0,9.3-9.037c1.833-2.515,3.386-5.53,2.969-8.613a8.9,8.9,0,0,0-6.711,3.333,18.741,18.741,0,0,0-3.416,6.878c-.757,2.469-1.265,5.007-2.144,7.438" transform="translate(-181.93 -107.833)" fill="#e0e0e0"/>
      <path id="Trazado_187913" data-name="Trazado 187913" d="M661.748,310.758a74.992,74.992,0,0,0,22.891-13.5c-2.734-1.1-5.863-.439-8.6.659A26.953,26.953,0,0,0,661.65,310.7" transform="translate(-184.823 -108.169)" fill="#e0e0e0"/>
      <path id="Trazado_187914" data-name="Trazado 187914" d="M653.11,320.541a46.693,46.693,0,0,0,12.711.061,53.077,53.077,0,0,0,11.862-3.939,1.424,1.424,0,0,0,.811-.614.932.932,0,0,0-.3-1.015,2.379,2.379,0,0,0-1.008-.47,21.97,21.97,0,0,0-12.824.758,59.712,59.712,0,0,0-11.256,5.211" transform="translate(-182.752 -112.347)" fill="#e0e0e0"/>
      <path id="Trazado_187915" data-name="Trazado 187915" d="M620.592,330.454a22.455,22.455,0,0,1-.2-18.6c1.75,2.674,1.962,6.06,1.644,9.249s-1.288,6.454-1.348,9.643" transform="translate(-174.351 -111.845)" fill="#e0e0e0"/>
      <path id="Trazado_187916" data-name="Trazado 187916" d="M599.9,328.739a25.951,25.951,0,0,0-19.285,8.219A18.021,18.021,0,0,0,591.169,335a53.741,53.741,0,0,0,9.09-6.06" transform="translate(-165.169 -115.94)" fill="#e0e0e0"/>
      <path id="Trazado_187917" data-name="Trazado 187917" d="M590.042,325.216c-3.522-.288-6.908-.758-10.294.311a12.354,12.354,0,0,0-7.848,6.651,18.627,18.627,0,0,0,9.65-1.818,56.055,56.055,0,0,0,8.491-5.143" transform="translate(-163.057 -115)" fill="#e0e0e0"/>
      <path id="Trazado_187918" data-name="Trazado 187918" d="M604.391,323.751c-3.166-2.076-6.416-4.189-10.1-5.045s-7.961-.227-10.537,2.553c2.984,1.75,6.605,1.962,10.067,1.954s7.7,0,10.968,1.113" transform="translate(-165.931 -113.421)" fill="#e0e0e0"/>
      <path id="Trazado_187919" data-name="Trazado 187919" d="M609.032,318.614c-5.409-5.3-7.461-14.862-5.3-22.134a33.693,33.693,0,0,1,5.3,22.134" transform="translate(-170.571 -108.117)" fill="#e0e0e0"/>
      <path id="Trazado_187920" data-name="Trazado 187920" d="M630.66,300.225c1.023-2.378,1.735-4.871,2.651-7.287a20.982,20.982,0,0,1,3.787-6.711,10,10,0,0,1,6.7-3.477,27,27,0,0,1-13.014,17.513" transform="translate(-177.307 -104.787)" fill="#e0e0e0"/>
      <path id="Trazado_187921" data-name="Trazado 187921" d="M622.616,306.945c-1.689-2.325-3.643-5.484-5.931-7.219a9.957,9.957,0,0,0-8.075-2.121,18.823,18.823,0,0,0,14.006,9.34" transform="translate(-171.96 -108.341)" fill="#e0e0e0"/>
      <path id="Trazado_187922" data-name="Trazado 187922" d="M626.883,300.475a40.107,40.107,0,0,1-2.666-8.65A13.544,13.544,0,0,1,625.565,283c2.977,5.621,3.931,11.65,1.47,17.513" transform="translate(-175.689 -104.848)" fill="#e0e0e0"/>
      <path id="Trazado_187923" data-name="Trazado 187923" d="M630.69,279.193c1.689-5.568,6.817-9.665,12.294-11.552a4.546,4.546,0,0,1,2.151-.318,1.863,1.863,0,0,1,1.591,1.318c.2.954-.583,1.8-1.318,2.432a41.76,41.76,0,0,1-14.718,8.12" transform="translate(-177.314 -101.041)" fill="#e0e0e0"/>
      <path id="Trazado_187924" data-name="Trazado 187924" d="M630.751,271.017a39.153,39.153,0,0,1,1.606-10.6c1.174-3.371,3.416-6.6,6.689-8.082.561,3.621-1.045,7.234-2.969,10.355s-4.257,6.06-5.416,9.544" transform="translate(-177.307 -97.41)" fill="#e0e0e0"/>
      <path id="Trazado_187925" data-name="Trazado 187925" d="M627.32,274.04c-1.394-4.06-1.515-9.211-3.969-12.748-1.7-2.469-4.416-4.159-5.878-6.772a10.287,10.287,0,0,0,.341,7.689,22.36,22.36,0,0,0,4.492,6.439c1.8,1.916,3.341,3.363,5.015,5.393" transform="translate(-173.967 -97.941)" fill="#e0e0e0"/>
      <path id="Trazado_187926" data-name="Trazado 187926" d="M630.624,399.367c-.106,0-.2-27.08-.2-60.47s.076-60.477.182-60.477.2,27.072.212,60.477S630.738,399.367,630.624,399.367Z" transform="translate(-177.249 -103.737)" fill="#e0e0e0"/>
      <path id="Trazado_187927" data-name="Trazado 187927" d="M654.353,331a6.221,6.221,0,0,1-1.015.379l-2.8.947c-2.363.8-5.605,1.969-9.09,3.409s-6.817,2.712-8.65,4.34a6.3,6.3,0,0,0-1.742,2.272c-.265.636-.311,1.023-.348,1.015s0-.1,0-.28a4.32,4.32,0,0,1,.2-.757,6.1,6.1,0,0,1,1.7-2.454,15.082,15.082,0,0,1,3.787-2.326c1.515-.7,3.166-1.432,4.931-2.159,3.53-1.447,6.817-2.575,9.2-3.318,1.189-.371,2.166-.644,2.841-.826A4.818,4.818,0,0,1,654.353,331Z" transform="translate(-177.314 -116.489)" fill="#e0e0e0"/>
      <path id="Trazado_187928" data-name="Trazado 187928" d="M662.7,305.87a1.919,1.919,0,0,1-.288.3l-.863.818c-.811.758-1.909,1.727-3.25,2.947l-10.794,9.612c-4.212,3.75-7.855,7.332-10.378,10.029-1.265,1.348-2.272,2.469-2.939,3.242l-.758.9a1.657,1.657,0,0,1-.3.3,1.464,1.464,0,0,1,.227-.348c.167-.22.409-.538.758-.939.644-.818,1.606-1.962,2.848-3.333A134.839,134.839,0,0,1,647.3,319.255c4.227-3.742,8.075-7.105,10.87-9.529,1.379-1.174,2.5-2.144,3.325-2.856l.917-.758A1.742,1.742,0,0,1,662.7,305.87Z" transform="translate(-177.909 -110.394)" fill="#e0e0e0"/>
      <path id="Trazado_187929" data-name="Trazado 187929" d="M646.107,326c-.114-.045.757-2.083,1.644-4.651s1.3-4.742,1.417-4.719a16.106,16.106,0,0,1-1.045,4.84,30.24,30.24,0,0,1-1.31,3.257A5.3,5.3,0,0,1,646.107,326Z" transform="translate(-181.051 -113.004)" fill="#e0e0e0"/>
      <path id="Trazado_187930" data-name="Trazado 187930" d="M625.705,344.27a4.739,4.739,0,0,1-.651-.757l-1.667-2.129c-1.394-1.81-3.325-4.3-5.492-7.029s-4.159-5.181-5.6-6.946c-.682-.848-1.25-1.515-1.7-2.106a4.844,4.844,0,0,1-.583-.8,4.339,4.339,0,0,1,.7.7c.432.47,1.045,1.159,1.8,2.022,1.515,1.727,3.522,4.151,5.689,6.885s4.068,5.249,5.416,7.105c.667.924,1.2,1.674,1.56,2.2a4.712,4.712,0,0,1,.53.848Z" transform="translate(-172.299 -114.912)" fill="#e0e0e0"/>
      <path id="Trazado_187931" data-name="Trazado 187931" d="M623.019,339.178a9.46,9.46,0,0,1-2.174-4.068,11.474,11.474,0,0,1-.492-4.1h.174c-.083.318-.136.485-.167.477s0-.182,0-.5h.174a18.708,18.708,0,0,0,.689,3.984,30.065,30.065,0,0,0,1.8,4.2Z" transform="translate(-174.802 -116.486)" fill="#e0e0e0"/>
      <path id="Trazado_187932" data-name="Trazado 187932" d="M611.248,330.14a7.052,7.052,0,0,0-1.515-.879,10.218,10.218,0,0,0-4.212-.341,26.337,26.337,0,0,0-4.242.689,12.711,12.711,0,0,1-1.75.417,6.059,6.059,0,0,1,1.674-.682,19.287,19.287,0,0,1,4.287-.81,9.211,9.211,0,0,1,4.348.47A2.749,2.749,0,0,1,611.248,330.14Z" transform="translate(-169.758 -115.871)" fill="#e0e0e0"/>
      <path id="Trazado_187933" data-name="Trazado 187933" d="M607.668,327.2c0,.061-.886-.356-2.325-.848a23.33,23.33,0,0,0-11.718-.894c-1.515.265-2.4.545-2.424.485a2.017,2.017,0,0,1,.606-.258,15.561,15.561,0,0,1,1.757-.492,20.8,20.8,0,0,1,11.877.886,15.655,15.655,0,0,1,1.659.757C607.478,327.044,607.713,327.2,607.668,327.2Z" transform="translate(-167.737 -114.964)" fill="#e0e0e0"/>
      <path id="Trazado_187934" data-name="Trazado 187934" d="M629.695,312.787a48.462,48.462,0,0,1-1.7-5.893,47.92,47.92,0,0,1-1.318-5.984,95.59,95.59,0,0,1,3.015,11.877Z" transform="translate(-176.342 -109.191)" fill="#e0e0e0"/>
      <path id="Trazado_187935" data-name="Trazado 187935" d="M629.313,314.546a28.139,28.139,0,0,0-1.879-3.53,15.689,15.689,0,0,0-2.765-2.856,2.65,2.65,0,0,1,1.068.553,8.522,8.522,0,0,1,2.015,2.075A7.771,7.771,0,0,1,629.313,314.546Z" transform="translate(-175.855 -110.95)" fill="#e0e0e0"/>
      <path id="Trazado_187936" data-name="Trazado 187936" d="M622.75,406.348c-.038,0-.121-.644-.424-1.8a25.8,25.8,0,0,0-1.81-4.689,66,66,0,0,0-9.6-13.529c-2.144-2.447-4.227-4.757-5.992-6.969a48.739,48.739,0,0,1-4.28-6.173,29.689,29.689,0,0,1-2.159-4.583c-.2-.568-.349-1.007-.424-1.31a2.273,2.273,0,0,1-.114-.47s.235.621.682,1.727a32.811,32.811,0,0,0,2.273,4.5,51.164,51.164,0,0,0,4.325,6.06c1.765,2.189,3.848,4.492,6,6.939a62.158,62.158,0,0,1,9.552,13.635,23.278,23.278,0,0,1,1.712,4.772c.121.583.2,1.045.235,1.356A2.066,2.066,0,0,1,622.75,406.348Z" transform="translate(-169.374 -125.178)" fill="#e0e0e0"/>
      <path id="Trazado_187937" data-name="Trazado 187937" d="M652.083,387.15a9.221,9.221,0,0,1-1.121.629,25.265,25.265,0,0,0-2.9,1.924,32.455,32.455,0,0,0-3.787,3.484c-1.341,1.409-2.719,3.03-4.128,4.818-2.818,3.53-5.454,6.658-7.029,9.158a31.864,31.864,0,0,0-1.765,3.03,8.717,8.717,0,0,1-.621,1.121,1.808,1.808,0,0,1,.106-.311c.083-.2.2-.508.379-.879a27.656,27.656,0,0,1,1.666-3.1,97.681,97.681,0,0,1,6.954-9.249c1.416-1.765,2.81-3.416,4.174-4.825a30.288,30.288,0,0,1,3.916-3.454,19.614,19.614,0,0,1,3.03-1.833c.371-.189.674-.3.871-.394a1.73,1.73,0,0,1,.258-.121Z" transform="translate(-177.324 -130.106)" fill="#e0e0e0"/>
      <path id="Trazado_187938" data-name="Trazado 187938" d="M654.737,397.491a16.663,16.663,0,0,1-2.363.341,31.285,31.285,0,0,0-5.62,1.106,16.973,16.973,0,0,0-5.03,2.636c-1.159.9-1.7,1.644-1.757,1.6s.091-.22.348-.545a9.211,9.211,0,0,1,1.235-1.265,15.217,15.217,0,0,1,5.083-2.8,25.107,25.107,0,0,1,5.711-1.007A12.884,12.884,0,0,1,654.737,397.491Z" transform="translate(-179.562 -132.608)" fill="#e0e0e0"/>
      <path id="Trazado_187939" data-name="Trazado 187939" d="M640.877,401.292c-.121-.068.947-1.7,1.773-3.894s.962-4.151,1.1-4.128a3.787,3.787,0,0,1,0,1.273,13.634,13.634,0,0,1-.689,2.992,14.531,14.531,0,0,1-1.379,2.742C641.218,400.943,640.922,401.322,640.877,401.292Z" transform="translate(-179.783 -131.59)" fill="#e0e0e0"/>
      <path id="Trazado_187940" data-name="Trazado 187940" d="M659,359.39a2.115,2.115,0,0,1-.379.2l-1.114.507c-.485.212-1.076.47-1.742.826s-1.454.7-2.272,1.189l-1.3.758c-.447.258-.886.561-1.356.856-.954.583-1.909,1.288-2.932,2.015A50.184,50.184,0,0,0,636.649,377.4c-.689,1.045-1.371,2.022-1.916,3.03-.28.477-.568.932-.811,1.386l-.689,1.318c-.462.833-.758,1.621-1.113,2.272a13.571,13.571,0,0,0-.758,1.772L630.9,388.3a2.178,2.178,0,0,1-.189.386,1.449,1.449,0,0,1,.114-.409l.394-1.159c.174-.508.4-1.113.712-1.81s.614-1.515,1.06-2.333l.674-1.341c.235-.462.523-.924.758-1.409.538-.985,1.212-1.977,1.9-3.03a48.562,48.562,0,0,1,11.362-11.741c1.03-.72,2-1.432,2.969-2,.477-.288.924-.591,1.379-.841l1.318-.72c.826-.477,1.613-.818,2.272-1.144A16.718,16.718,0,0,1,657.4,360c.492-.174.848-.318,1.144-.439a1.735,1.735,0,0,1,.454-.167Z" transform="translate(-177.319 -123.374)" fill="#e0e0e0"/>
      <path id="Trazado_187941" data-name="Trazado 187941" d="M645.72,373.445a2.848,2.848,0,0,1,.932-1.386,5.923,5.923,0,0,1,3.75-1.439,10.34,10.34,0,0,1,3.947.757,5.826,5.826,0,0,1,1.515.757,9.165,9.165,0,0,1-1.6-.47,12.007,12.007,0,0,0-3.84-.644,6.06,6.06,0,0,0-3.583,1.257,12.11,12.11,0,0,0-1.121,1.167Z" transform="translate(-180.96 -126.097)" fill="#e0e0e0"/>
      <path id="Trazado_187942" data-name="Trazado 187942" d="M642.38,375.532a14.126,14.126,0,0,0,1.068-3.462,13.793,13.793,0,0,0-.242-3.621,2.273,2.273,0,0,1,.447,1.007,7.249,7.249,0,0,1-.606,5.2C642.713,375.252,642.418,375.555,642.38,375.532Z" transform="translate(-180.15 -125.571)" fill="#e0e0e0"/>
      <path id="Trazado_187943" data-name="Trazado 187943" d="M606,424.16c.583,10.347,3.7,20.869,8.5,31.511h20.854c4.545-10.537,7.476-21.043,7.991-31.511Z" transform="translate(-171.327 -139.082)" fill="#e0e0e0"/>
      <path id="Trazado_187944" data-name="Trazado 187944" d="M641.028,446.2c0,.106-6.87.2-15.339.2s-15.339-.091-15.339-.2,6.87-.2,15.339-.2S641.028,446.091,641.028,446.2Z" transform="translate(-172.382 -144.378)" fill="#fafafa"/>
      <path id="Trazado_187945" data-name="Trazado 187945" d="M641.014,451.147c0,.106-6.439.2-14.392.2s-14.392-.091-14.392-.2,6.439-.2,14.392-.2S641.014,451.041,641.014,451.147Z" transform="translate(-172.838 -145.579)" fill="#fafafa"/>
      <path id="Trazado_187946" data-name="Trazado 187946" d="M617.607,433.13a58.662,58.662,0,0,1,0,9.6,58.656,58.656,0,0,1,0-9.6Z" transform="translate(-174.094 -141.257)" fill="#fafafa"/>
      <path id="Trazado_187947" data-name="Trazado 187947" d="M632.357,433.13a62.879,62.879,0,0,1,0,9.946,62.879,62.879,0,0,1,0-9.946Z" transform="translate(-177.671 -141.257)" fill="#fafafa"/>
      <path id="Trazado_187948" data-name="Trazado 187948" d="M646.207,433a65.5,65.5,0,0,1,0,10.15,65.487,65.487,0,0,1,0-10.15Z" transform="translate(-181.03 -141.226)" fill="#fafafa"/>
      <path id="Trazado_187949" data-name="Trazado 187949" d="M642.92,433.067c0,.106-8.06.189-17.99.189s-17.99-.083-17.99-.189,8.052-.2,17.99-.2S642.92,432.969,642.92,433.067Z" transform="translate(-171.555 -141.194)" fill="#fafafa"/>
      <path id="Trazado_187950" data-name="Trazado 187950" d="M700.754,184.12a2.735,2.735,0,0,1,2.068,3.272l-.508,2.272-4.681,20.452a1.81,1.81,0,0,1-2.159,1.371l-46.782-10.718a1.8,1.8,0,0,1-1.371-2.06l4.409-26.618a1.8,1.8,0,0,1,2.182-1.515l10.6,2.424a4.3,4.3,0,0,1,2.5,1.629l1.757,2.356Z" transform="translate(-181.342 -77.572)" fill="#e0e0e0"/>
      <rect id="Rectángulo_38777" data-name="Rectángulo 38777" width="52.44" height="31.648" transform="translate(471.161 98.389) rotate(12.9)" fill="#f5f5f5"/>
      <path id="Trazado_187951" data-name="Trazado 187951" d="M646.887,179.786l-3.469,33.064a1.174,1.174,0,0,0,.894,1.257l49.812,11.408a1.159,1.159,0,0,0,1.363-.8l9.847-31.595a1.159,1.159,0,0,0-.841-1.515l-56.228-12.877a1.166,1.166,0,0,0-1.379,1.053Z" transform="translate(-180.4 -79.556)" fill="#ebebeb"/>
      <path id="Trazado_187952" data-name="Trazado 187952" d="M81.35,141a2.174,2.174,0,0,1,1.826,2.462c-.106.757-.212,1.515-.265,1.826l-2.432,16.46a1.424,1.424,0,0,1-1.621,1.212L41.211,157.4A1.432,1.432,0,0,1,40,155.881l1.833-21.323a1.432,1.432,0,0,1,1.636-1.3l8.514,1.257a3.462,3.462,0,0,1,2.083,1.136l1.515,1.75Z" transform="translate(-34.06 -68.528)" fill="#e0e0e0"/>
      <rect id="Rectángulo_38778" data-name="Rectángulo 38778" width="41.593" height="25.103" transform="translate(8.627 69.026) rotate(8.41)" fill="#f5f5f5"/>
      <path id="Trazado_187953" data-name="Trazado 187953" d="M38.559,140.935l-.689,26.338a.924.924,0,0,0,.757.939l40.1,5.931a.917.917,0,0,0,1.03-.712l5.848-25.6a.917.917,0,0,0-.757-1.121l-45.267-6.7a.924.924,0,0,0-1.023.917Z" transform="translate(-33.545 -70.171)" fill="#ebebeb"/>
      <path id="Trazado_187954" data-name="Trazado 187954" d="M681.454,91.32l-28.61,8.9a3.742,3.742,0,0,1-4.689-2.462l-12.347-39.6a3.787,3.787,0,0,1,2.469-4.7l18.18-5.651,18.551,10.1,8.946,28.7a3.787,3.787,0,0,1-2.5,4.712Z" transform="translate(-178.517 -47.81)" fill="#ebebeb"/>
      <path id="Trazado_187955" data-name="Trazado 187955" d="M663.07,47.83l3.469,11.143a3.5,3.5,0,0,0,4.371,2.272l10.711-3.34Z" transform="translate(-185.167 -47.815)" fill="#e0e0e0"/>
      <path id="Trazado_187956" data-name="Trazado 187956" d="M660.063,62.925a44.419,44.419,0,0,1-6.537,2.318,44.855,44.855,0,0,1-6.7,1.8,44.416,44.416,0,0,1,6.537-2.318A44.862,44.862,0,0,1,660.063,62.925Z" transform="translate(-181.229 -51.472)" fill="#fafafa"/>
      <path id="Trazado_187957" data-name="Trazado 187957" d="M671.205,67.727c.038.144-4.8,1.78-10.817,3.651s-10.923,3.28-10.968,3.136,4.795-1.78,10.809-3.651S671.16,67.583,671.205,67.727Z" transform="translate(-181.857 -52.638)" fill="#fafafa"/>
      <path id="Trazado_187958" data-name="Trazado 187958" d="M675.327,73.867c.045.144-5.234,1.916-11.794,3.954s-11.908,3.59-11.953,3.447,5.234-1.916,11.794-3.962S675.281,73.723,675.327,73.867Z" transform="translate(-182.381 -54.127)" fill="#fafafa"/>
      <path id="Trazado_187959" data-name="Trazado 187959" d="M677.4,80.417c.045.144-5.234,1.916-11.786,3.962s-11.908,3.583-11.953,3.439,5.234-1.916,11.786-3.962S677.331,80.273,677.4,80.417Z" transform="translate(-182.885 -55.716)" fill="#fafafa"/>
      <path id="Trazado_187960" data-name="Trazado 187960" d="M679.4,87c.038.144-5.242,1.916-11.794,3.962S655.7,94.541,655.65,94.4s5.234-1.916,11.794-3.954S679.4,86.829,679.4,87Z" transform="translate(-183.368 -57.31)" fill="#fafafa"/>
      <path id="Trazado_187961" data-name="Trazado 187961" d="M681.457,93.527c.045.144-5.234,1.916-11.794,3.954s-11.908,3.59-11.953,3.447,5.234-1.916,11.794-3.962S681.411,93.383,681.457,93.527Z" transform="translate(-183.867 -58.895)" fill="#fafafa"/>
    </g>
    <g id="freepik--Device--inject-2" transform="translate(94.826 48.068)">
      <path id="Trazado_187962" data-name="Trazado 187962" d="M483.731,48.15H126.055A11.165,11.165,0,0,0,114.89,59.315V311.951a11.165,11.165,0,0,0,11.165,11.165H263.334s8.726,27-18.339,40.98H373.35s-30.557-10.484-22.724-40.98H483.715a11.165,11.165,0,0,0,11.158-11.165V59.315A11.165,11.165,0,0,0,483.73,48.15Z" transform="translate(-114.89 -48.15)" fill="#455a64"/>
      <path id="Trazado_187963" data-name="Trazado 187963" d="M368.21,375.4c4.863,6.954-2.75,14.566-9.7,9.7a2.492,2.492,0,0,1-.6-.6c-4.855-6.954,2.75-14.559,9.7-9.7A2.364,2.364,0,0,1,368.21,375.4Z" transform="translate(-173.454 -126.996)" fill="#263238"/>
      <path id="Trazado_187964" data-name="Trazado 187964" d="M130.363,54.26H483.349a7.348,7.348,0,0,1,7.348,7.348V278.384H123V61.638a7.348,7.348,0,0,1,7.363-7.378Z" transform="translate(-116.857 -49.632)" fill="#fff"/>
      <path id="Trazado_187965" data-name="Trazado 187965" d="M129.946,54.26h355.07a5.7,5.7,0,0,1,5.7,5.7v12.93H123v-11.7a6.931,6.931,0,0,1,6.946-6.931Z" transform="translate(-116.857 -49.632)" fill="#ebebeb"/>
      <path id="Trazado_187966" data-name="Trazado 187966" d="M140.236,66.243a2.583,2.583,0,1,1-2.583-2.583,2.583,2.583,0,0,1,2.583,2.583Z" transform="translate(-119.784 -51.911)" fill="#263238"/>
      <path id="Trazado_187967" data-name="Trazado 187967" d="M150.4,66.243a2.583,2.583,0,1,1-2.583-2.583A2.583,2.583,0,0,1,150.4,66.243Z" transform="translate(-122.248 -51.911)" fill="#263238"/>
      <path id="Trazado_187968" data-name="Trazado 187968" d="M160.066,66.243a2.583,2.583,0,1,1-2.583-2.583A2.583,2.583,0,0,1,160.066,66.243Z" transform="translate(-124.593 -51.911)" fill="#263238"/>
      <path id="Trazado_187969" data-name="Trazado 187969" d="M444.611,411.132c0,.121-50.9.212-113.668.212s-113.683-.091-113.683-.212,50.888-.212,113.683-.212S444.611,410.981,444.611,411.132Z" transform="translate(-139.717 -136.128)" fill="#263238"/>
      <path id="Trazado_187970" data-name="Trazado 187970" d="M544.77,156.609v-4.234c0-2.765,0-6.817-.045-12.021,0-10.4-.045-25.376-.076-43.737l.151.151-99.882.045h0l.2-.2v59.993l-.182-.182,71.87.091,20.619.045h.076l-20.6.136-71.961.091h-.182V96.42h.2l99.882.045H545v.151c0,18.4-.061,33.413-.076,43.835,0,5.189,0,9.226-.045,11.983v3.121A3.932,3.932,0,0,1,544.77,156.609Z" transform="translate(-194.89 -59.856)" fill="#263238"/>
      <path id="Trazado_187971" data-name="Trazado 187971" d="M258.147,283.832c-.106,0-.2-45.888-.2-102.487s.091-102.495.2-102.495.2,45.881.2,102.495S258.261,283.832,258.147,283.832Z" transform="translate(-149.585 -55.595)" fill="#263238"/>
      <rect id="Rectángulo_38779" data-name="Rectángulo 38779" width="62.363" height="10.521" transform="translate(31.292 58)" fill="#e0e0e0"/>
      <path id="Trazado_187972" data-name="Trazado 187972" d="M512.1,152.224l-31.133-.045a2.742,2.742,0,0,1-2.734-2.742l.061-41.942a2.742,2.742,0,0,1,2.742-2.735H502.8l12.082,11.794-.045,32.9a2.735,2.735,0,0,1-2.742,2.765Z" transform="translate(-203.007 -61.879)" fill="#8668c8"/>
      <g id="Grupo_124289" data-name="Grupo 124289" transform="translate(299.796 42.805)" opacity="0.3">
        <path id="Trazado_187973" data-name="Trazado 187973" d="M510.67,104.66v8.332a3.719,3.719,0,0,0,3.719,3.734l8.332-.174Z" transform="translate(-510.67 -104.66)" fill="#fff"/>
      </g>
      <path id="Trazado_187974" data-name="Trazado 187974" d="M509.987,149.825a2.351,2.351,0,0,1,0-.394c0-.273,0-.644,0-1.106v-4.166c0-3.59-.038-8.673-.068-14.763l.174.174H488.884l.2-.189h0v20.452l-.174-.167,15.339.106,4.333.053h1.568a2.142,2.142,0,0,1-.371,0h-5.424l-15.445.068h-.167V129.275h0l.2-.2,21.209.061h.167v.167c-.045,6.136-.083,11.256-.106,14.869,0,1.757,0,3.151-.053,4.128v1.076a1.942,1.942,0,0,1-.167.454Z" transform="translate(-205.555 -67.775)" fill="#fff"/>
      <path id="Trazado_187975" data-name="Trazado 187975" d="M502.442,150.229c-.106,0-.189-4.545-.182-10.211s.106-10.218.212-10.218.2,4.545.182,10.218S502.555,150.229,502.442,150.229Z" transform="translate(-208.834 -67.952)" fill="#fff"/>
      <path id="Trazado_187976" data-name="Trazado 187976" d="M509.866,149.792c0,.114-4.772.189-10.658.182s-10.658-.1-10.658-.212,4.772-.189,10.658-.182S509.866,149.686,509.866,149.792Z" transform="translate(-205.509 -72.748)" fill="#fff"/>
      <path id="Trazado_187977" data-name="Trazado 187977" d="M510.175,142.932c0,.106-4.772.189-10.658.182s-10.658-.106-10.658-.212,4.772-.2,10.658-.182S510.175,142.81,510.175,142.932Z" transform="translate(-205.585 -71.084)" fill="#fff"/>
      <path id="Trazado_187978" data-name="Trazado 187978" d="M510.029,136.042c0,.106-4.734.189-10.6.182s-10.6-.106-10.6-.212,4.734-.189,10.6-.182S510.029,135.959,510.029,136.042Z" transform="translate(-205.575 -69.414)" fill="#fff"/>
      <path id="Trazado_187979" data-name="Trazado 187979" d="M572.286,151.7H542.32a3.787,3.787,0,0,1-3.75-3.75V106.477a3.787,3.787,0,0,1,3.75-3.787h19.005l14.71,15.15V147.9a3.787,3.787,0,0,1-3.75,3.8Z" transform="translate(-217.64 -61.377)" fill="#455a64"/>
      <path id="Trazado_187980" data-name="Trazado 187980" d="M568.61,102.74v11.673a3.485,3.485,0,0,0,3.484,3.484h11.2Z" transform="translate(-224.925 -61.389)" fill="#455a64"/>
      <g id="Grupo_124290" data-name="Grupo 124290" transform="translate(343.836 54.046)" opacity="0.2">
        <path id="Trazado_187981" data-name="Trazado 187981" d="M568.81,119.5a3.886,3.886,0,0,0,3.075,3.787l.371.083c1.462.258,11.112,1.977,11.112,1.757v-3.136H572.143S569.34,121.871,568.81,119.5Z" transform="translate(-568.81 -119.5)"/>
      </g>
      <g id="Grupo_124291" data-name="Grupo 124291" transform="translate(343.685 41.351)" opacity="0.3">
        <path id="Trazado_187982" data-name="Trazado 187982" d="M568.61,102.74v11.673a3.485,3.485,0,0,0,3.484,3.484h11.2Z" transform="translate(-568.61 -102.74)" fill="#fff"/>
      </g>
      <path id="Trazado_187983" data-name="Trazado 187983" d="M560.852,117.433a88.214,88.214,0,0,1-13.862,0,88.219,88.219,0,0,1,13.862,0Z" transform="translate(-219.682 -64.886)" fill="#fafafa"/>
      <path id="Trazado_187984" data-name="Trazado 187984" d="M569.805,126.145c0,.151-5.105.273-11.408.273s-11.408-.121-11.408-.273,5.105-.265,11.408-.265S569.805,125.971,569.805,126.145Z" transform="translate(-219.682 -67.001)" fill="#fafafa"/>
      <path id="Trazado_187985" data-name="Trazado 187985" d="M571.866,133.423c0,.152-5.575.273-12.438.273s-12.438-.121-12.438-.273,5.568-.273,12.438-.273S571.866,133.271,571.866,133.423Z" transform="translate(-219.682 -68.764)" fill="#fafafa"/>
      <path id="Trazado_187986" data-name="Trazado 187986" d="M571.866,140.285c0,.152-5.575.273-12.438.273s-12.438-.121-12.438-.273,5.568-.265,12.438-.265S571.866,140.141,571.866,140.285Z" transform="translate(-219.682 -70.43)" fill="#fafafa"/>
      <path id="Trazado_187987" data-name="Trazado 187987" d="M571.866,147.153c0,.151-5.575.273-12.438.273s-12.438-.121-12.438-.273,5.568-.273,12.438-.273S571.866,146.971,571.866,147.153Z" transform="translate(-219.682 -72.094)" fill="#fafafa"/>
      <path id="Trazado_187988" data-name="Trazado 187988" d="M571.868,154.013c0,.151-5.575.273-12.438.273s-12.43-.121-12.43-.273,5.568-.273,12.438-.273S571.868,153.861,571.868,154.013Z" transform="translate(-219.685 -73.757)" fill="#fafafa"/>
      <rect id="Rectángulo_38780" data-name="Rectángulo 38780" width="72.968" height="62.826" transform="translate(147.027 36.086)" fill="#f5f5f5"/>
      <path id="Trazado_187989" data-name="Trazado 187989" d="M381.912,158.557v-4.53c0-2.947,0-7.249-.045-12.741,0-10.976-.053-26.656-.083-45.547l.167.167H308.982l.2-.2v62.818l-.174-.174,52.751.091,14.907.045h.068l-14.862.045-52.925.235h-.174V95.58h73.309v.167c-.038,18.937-.068,34.655-.091,45.653,0,5.469,0,9.764-.038,12.7v3.333C381.95,158.2,381.912,158.557,381.912,158.557Z" transform="translate(-161.909 -59.653)" fill="#263238"/>
      <path id="Trazado_187990" data-name="Trazado 187990" d="M312.35,158.547c-.076-.083,15.634-14.2,35.079-31.526S382.7,95.707,382.781,95.79s-15.634,14.2-35.094,31.526S312.418,158.623,312.35,158.547Z" transform="translate(-162.778 -59.703)" fill="#263238"/>
      <path id="Trazado_187991" data-name="Trazado 187991" d="M382.582,158.608c-.076.083-16.6-13.915-36.92-31.254S308.924,95.873,309,95.79s16.6,13.907,36.927,31.261S382.65,158.525,382.582,158.608Z" transform="translate(-161.965 -59.703)" fill="#263238"/>
      <rect id="Rectángulo_38781" data-name="Rectángulo 38781" width="62.28" height="53.622" transform="translate(284.571 111.115)" fill="#ebebeb"/>
      <path id="Trazado_187992" data-name="Trazado 187992" d="M552.794,248.363v-3.871c0-2.522,0-6.2-.045-10.885,0-9.362-.045-22.724-.083-38.866l.167.167H490.56l.2-.2v53.622l-.174-.174,45.017.083,12.718.045h.008l-12.68.046-45.131.091h-.174V194.43h62.613v.167c0,16.165-.068,29.542-.083,38.972,0,4.666,0,8.332-.045,10.847v2.841C552.825,247.916,552.794,248.363,552.794,248.363Z" transform="translate(-205.943 -83.626)" fill="#263238"/>
      <path id="Trazado_187993" data-name="Trazado 187993" d="M493.43,248.4c-.068-.076,13.332-12.12,29.928-26.928s30.117-26.716,30.186-26.633-13.324,12.12-29.928,26.928S493.506,248.485,493.43,248.4Z" transform="translate(-206.693 -83.725)" fill="#263238"/>
      <path id="Trazado_187994" data-name="Trazado 187994" d="M553.373,248.462c-.068.083-14.188-11.855-31.526-26.663S490.5,194.961,490.57,194.84s14.188,11.855,31.534,26.633S553.448,248.379,553.373,248.462Z" transform="translate(-205.999 -83.725)" fill="#263238"/>
      <path id="Trazado_187995" data-name="Trazado 187995" d="M143.788,130.557a3.454,3.454,0,1,1-3.454-3.447,3.454,3.454,0,0,1,3.454,3.447Z" transform="translate(-120.223 -67.299)" fill="#8668c8"/>
      <rect id="Rectángulo_38782" data-name="Rectángulo 38782" width="62.363" height="10.521" transform="translate(31.292 82.891)" fill="#e0e0e0"/>
      <path id="Trazado_187996" data-name="Trazado 187996" d="M143.788,163.414a3.454,3.454,0,1,1-3.454-3.454A3.454,3.454,0,0,1,143.788,163.414Z" transform="translate(-120.223 -75.266)" fill="#e0e0e0"/>
      <rect id="Rectángulo_38783" data-name="Rectángulo 38783" width="62.363" height="10.521" transform="translate(31.292 107.774)" fill="#e0e0e0"/>
      <path id="Trazado_187997" data-name="Trazado 187997" d="M143.788,196.274a3.454,3.454,0,1,1-3.454-3.454,3.454,3.454,0,0,1,3.454,3.454Z" transform="translate(-120.223 -83.235)" fill="#8668c8"/>
      <rect id="Rectángulo_38784" data-name="Rectángulo 38784" width="62.363" height="10.521" transform="translate(31.292 132.665)" fill="#e0e0e0"/>
      <path id="Trazado_187998" data-name="Trazado 187998" d="M143.788,229.127a3.454,3.454,0,1,1-3.454-3.447,3.454,3.454,0,0,1,3.454,3.447Z" transform="translate(-120.223 -91.204)" fill="#e0e0e0"/>
      <rect id="Rectángulo_38785" data-name="Rectángulo 38785" width="62.363" height="10.521" transform="translate(31.292 157.556)" fill="#e0e0e0"/>
      <path id="Trazado_187999" data-name="Trazado 187999" d="M143.788,261.984a3.454,3.454,0,1,1-3.454-3.454A3.454,3.454,0,0,1,143.788,261.984Z" transform="translate(-120.223 -99.171)" fill="#e0e0e0"/>
      <rect id="Rectángulo_38786" data-name="Rectángulo 38786" width="62.363" height="10.521" transform="translate(31.292 182.439)" fill="#e0e0e0"/>
      <path id="Trazado_188000" data-name="Trazado 188000" d="M143.788,294.894a3.454,3.454,0,1,1-3.454-3.454,3.454,3.454,0,0,1,3.454,3.454Z" transform="translate(-120.223 -107.152)" fill="#8668c8"/>
      <path id="Trazado_188001" data-name="Trazado 188001" d="M455.876,248.231v-3.9c0-2.53,0-6.211-.045-10.885,0-9.34-.053-22.626-.083-38.45l.174.174h-45.04l.2-.2c0,19.695,0,37.957-.038,53.228l-.159-.167,32.64.083,9.143.045h.068l-9.09.038-32.746.091h-.167V194.7h45.411v.174c-.038,15.907-.068,29.193-.091,38.563,0,4.651-.038,8.332-.045,10.847v3.606A.536.536,0,0,1,455.876,248.231Z" transform="translate(-186.637 -83.691)" fill="#263238"/>
      <rect id="Rectángulo_38787" data-name="Rectángulo 38787" width="45.04" height="45.04" transform="translate(224.199 176.266)" fill="#ebebeb"/>
      <rect id="Rectángulo_38788" data-name="Rectángulo 38788" width="69.544" height="45.04" transform="translate(280.336 178.341)" fill="#ebebeb"/>
      <rect id="Rectángulo_38789" data-name="Rectángulo 38789" width="69.09" height="53.228" transform="translate(143.096 111.312)" fill="#ebebeb"/>
      <path id="Trazado_188002" data-name="Trazado 188002" d="M370.611,325.2v-3.348c0-2.189,0-5.386-.038-9.476,0-8.181-.045-19.914-.083-34.215l.159.159-69.082.038h0l.2-.2V325.2l-.182-.174,49.767.083,14.218.053h.083l-14.18.045-49.888.091H301.4V278h.2l69.082.038h.1v.159c-.038,14.339-.061,26.11-.083,34.314,0,4.075,0,7.257-.038,9.438v2.462A3.878,3.878,0,0,1,370.611,325.2Z" transform="translate(-160.122 -103.893)" fill="#263238"/>
      <path id="Trazado_188003" data-name="Trazado 188003" d="M361.473,209.136a2.553,2.553,0,0,1,2.538,2.568v2.166l-.144,19.528a1.689,1.689,0,0,1-1.689,1.682l-44.691-.326a1.682,1.682,0,0,1-1.659-1.606l-1.348-25.088a1.682,1.682,0,0,1,1.682-1.78l10.112.068a4.037,4.037,0,0,1,2.606.985l2.068,1.788Z" transform="translate(-163.293 -86.499)" fill="#8668c8"/>
      <g id="Grupo_124292" data-name="Grupo 124292" transform="translate(151.183 119.781)" opacity="0.3">
        <path id="Trazado_188004" data-name="Trazado 188004" d="M361.473,209.136a2.553,2.553,0,0,1,2.538,2.568v2.166l-.144,19.528a1.689,1.689,0,0,1-1.689,1.682l-44.691-.326a1.682,1.682,0,0,1-1.659-1.606l-1.348-25.088a1.682,1.682,0,0,1,1.682-1.78l10.112.068a4.037,4.037,0,0,1,2.606.985l2.068,1.788Z" transform="translate(-314.476 -206.28)"/>
      </g>
      <rect id="Rectángulo_38790" data-name="Rectángulo 38790" width="48.835" height="29.474" transform="translate(152.653 124.933) rotate(0.42)" fill="#f5f5f5"/>
      <path id="Trazado_188005" data-name="Trazado 188005" d="M311.257,216.147l3.507,30.761a1.076,1.076,0,0,0,1.06.962l47.6.348a1.068,1.068,0,0,0,1.076-.992l2.613-30.731a1.083,1.083,0,0,0-1.068-1.182l-53.721-.394a1.083,1.083,0,0,0-1.068,1.227Z" transform="translate(-162.51 -88.595)" fill="#8668c8"/>
      <rect id="Rectángulo_38791" data-name="Rectángulo 38791" width="51.312" height="64.181" transform="translate(290.868 168.156) rotate(-89.94)" fill="#ebebeb"/>
      <path id="Trazado_188006" data-name="Trazado 188006" d="M563.074,202.4H498.893l.167-.167v51.3h0l-.182-.189,64.182.106-.159.151c.053-15.445.1-28.254.121-37.215,0-4.477.045-7.991.053-10.4V216.3c0,8.976,0,21.815.038,37.306v.159h-.151l-64.182-.045h-.189v-.182h0c0-18.528.053-36.033.076-51.3v-.167h.235l46.456.136,13.1.061h4.628Z" transform="translate(-207.944 -85.478)" fill="#263238"/>
      <rect id="Rectángulo_38792" data-name="Rectángulo 38792" width="44.85" height="59.674" transform="translate(293.083 164.932) rotate(-89.94)" fill="#8668c8"/>
      <path id="Trazado_188007" data-name="Trazado 188007" d="M501.85,256.98l20.869-27.86,12.892,17.46,8.764-9.317,17.142,19.785Z" transform="translate(-208.735 -92.039)" fill="#8668c8"/>
      <path id="Trazado_188008" data-name="Trazado 188008" d="M550.673,223.134a4.7,4.7,0,1,1-4.689-4.7,4.7,4.7,0,0,1,4.689,4.7Z" transform="translate(-218.297 -89.446)" fill="#8668c8"/>
      <g id="Grupo_124293" data-name="Grupo 124293" transform="translate(293.115 137.081)" opacity="0.2">
        <path id="Trazado_188009" data-name="Trazado 188009" d="M501.85,256.98l20.869-27.86,12.892,17.46,8.764-9.317,17.142,19.785Z" transform="translate(-501.85 -229.12)"/>
      </g>
      <g id="Grupo_124294" data-name="Grupo 124294" transform="translate(322.983 128.984)" opacity="0.2">
        <path id="Trazado_188010" data-name="Trazado 188010" d="M550.673,223.134a4.7,4.7,0,1,1-4.689-4.7,4.7,4.7,0,0,1,4.689,4.7Z" transform="translate(-541.28 -218.43)"/>
      </g>
    </g>
    <g id="freepik--Character--inject-2" transform="translate(232.196 88.047)">
      <rect id="Rectángulo_38793" data-name="Rectángulo 38793" width="55.69" height="69.658" transform="translate(0.357 55.831) rotate(-89.94)" fill="#ebebeb"/>
      <path id="Trazado_188011" data-name="Trazado 188011" d="M366.322,101.165H296.649l.182-.182c0,16.581,0,35.6-.045,55.682h0l-.2-.2,69.688.114-.167.167c.053-16.763.1-30.663.129-40.389,0-4.855.045-8.673.061-11.286v51.971h-.167l-69.688-.045h-.2v-.2h0c0-20.1.061-39.1.083-55.682v-.174h.182l50.41.144,14.218.061h4.7Z" transform="translate(-296.24 -100.93)" fill="#263238"/>
      <rect id="Rectángulo_38794" data-name="Rectángulo 38794" width="48.676" height="64.765" transform="translate(2.762 52.334) rotate(-89.94)" fill="#8668c8"/>
      <path id="Trazado_188012" data-name="Trazado 188012" d="M299.9,160.351l22.656-30.231,13.983,18.945,9.522-10.112,18.6,21.467Z" transform="translate(-297.128 -108.009)" fill="#8668c8"/>
      <path id="Trazado_188013" data-name="Trazado 188013" d="M352.9,123.615a5.1,5.1,0,1,1-5.09-5.105,5.1,5.1,0,0,1,5.09,5.105Z" transform="translate(-307.507 -105.193)" fill="#8668c8"/>
      <g id="Grupo_124295" data-name="Grupo 124295" transform="translate(2.772 22.111)" opacity="0.2">
        <path id="Trazado_188014" data-name="Trazado 188014" d="M299.9,160.351l22.656-30.231,13.983,18.945,9.522-10.112,18.6,21.467Z" transform="translate(-299.9 -130.12)"/>
      </g>
      <g id="Grupo_124296" data-name="Grupo 124296" transform="translate(35.193 13.317)" opacity="0.2">
        <path id="Trazado_188015" data-name="Trazado 188015" d="M352.9,123.615a5.1,5.1,0,1,1-5.09-5.105,5.1,5.1,0,0,1,5.09,5.105Z" transform="translate(-342.7 -118.51)"/>
      </g>
      <path id="Trazado_188016" data-name="Trazado 188016" d="M382.058,168.937h4.249l.394-5.749.674-5.06L387.209,150l4.09,4.386a3.947,3.947,0,0,1,.659,1.841l.7,15.536.189,6.643-7.461,4.855v-7.908l-1.75-1.871a6.522,6.522,0,0,1-1.583-4.545Z" transform="translate(-317.051 -112.83)" fill="#bd8c83"/>
      <path id="Trazado_188017" data-name="Trazado 188017" d="M391.8,165.4a32.821,32.821,0,0,0-3.477-4.818,4.629,4.629,0,0,0-1.469-1.242,1.72,1.72,0,0,0-1.826.167,1.8,1.8,0,0,0-.273,2.045,6.9,6.9,0,0,0,1.348,1.735,3.62,3.62,0,0,1,1.068,1.894,5.933,5.933,0,0,1-.341,2.038,6.681,6.681,0,0,0,1.848,6.211" transform="translate(-317.658 -115.05)" fill="#bd8c83"/>
      <path id="Trazado_188018" data-name="Trazado 188018" d="M388.617,173.367s-.235-.273-.6-.757a6.818,6.818,0,0,1-1.076-2.424,6.327,6.327,0,0,1-.167-1.818,9.09,9.09,0,0,1,.409-2.068,3.242,3.242,0,0,0,.1-1.22,2.871,2.871,0,0,0-.485-1.189c-.477-.72-1.159-1.257-1.636-1.947a2.4,2.4,0,0,1-.454-1.1,1.341,1.341,0,0,1,2.159-1.31,6.06,6.06,0,0,1,1.515,1.4c.439.508.833.992,1.182,1.439.7.9,1.227,1.659,1.591,2.189a5.9,5.9,0,0,0,.576.8,4.366,4.366,0,0,0-.454-.886,26.241,26.241,0,0,0-1.515-2.272c-.341-.462-.757-.962-1.159-1.515a6.112,6.112,0,0,0-1.6-1.515,2.2,2.2,0,0,0-1.212-.28,1.568,1.568,0,0,0-1.182.606,2.272,2.272,0,0,0,.212,2.6c.523.757,1.2,1.288,1.644,1.947a2.5,2.5,0,0,1,.432,1.03,2.765,2.765,0,0,1-.083,1.083,9.094,9.094,0,0,0-.379,2.144,6.605,6.605,0,0,0,1.439,4.333,4.835,4.835,0,0,0,.508.545A1.126,1.126,0,0,0,388.617,173.367Z" transform="translate(-317.596 -114.988)" fill="#896360"/>
      <path id="Trazado_188019" data-name="Trazado 188019" d="M426.822,427.9l3.09,15.15s-14.347,8.226-14.044,11.082l29.542-4.946L441.562,425.4Z" transform="translate(-325.251 -179.62)" fill="#8668c8"/>
      <g id="Grupo_124297" data-name="Grupo 124297" transform="translate(90.613 245.78)" opacity="0.3">
        <path id="Trazado_188020" data-name="Trazado 188020" d="M426.822,427.9l3.09,15.15s-14.347,8.226-14.044,11.082l29.542-4.946L441.562,425.4Z" transform="translate(-415.864 -425.4)"/>
      </g>
      <path id="Trazado_188021" data-name="Trazado 188021" d="M445.792,444.99a1.22,1.22,0,0,1,1.068,1.235,1.174,1.174,0,0,1-1.22,1.038,1.28,1.28,0,0,1-1.121-1.318,1.227,1.227,0,0,1,1.394-.969" transform="translate(-332.2 -184.364)" fill="#e0e0e0"/>
      <path id="Trazado_188022" data-name="Trazado 188022" d="M445.419,456.029l-.477-2.379-28.171,5.628s-1.22.8-.917,1.7Z" transform="translate(-325.237 -186.471)" fill="#263238"/>
      <path id="Trazado_188023" data-name="Trazado 188023" d="M433.749,448.524c0,.144.757.083,1.515.432s1.273.886,1.394.811-.227-.879-1.189-1.28S433.7,448.4,433.749,448.524Z" transform="translate(-329.588 -185.171)" fill="#263238"/>
      <path id="Trazado_188024" data-name="Trazado 188024" d="M429.94,450.966c0,.151.651.288,1.25.818s.841,1.151.985,1.121.1-.864-.651-1.515S429.917,450.807,429.94,450.966Z" transform="translate(-328.665 -185.794)" fill="#263238"/>
      <path id="Trazado_188025" data-name="Trazado 188025" d="M427.929,455.521c.136,0,.22-.757-.288-1.469s-1.227-.932-1.273-.8.454.485.856,1.091S427.786,455.536,427.929,455.521Z" transform="translate(-327.798 -186.365)" fill="#263238"/>
      <path id="Trazado_188026" data-name="Trazado 188026" d="M433.317,443.685c.083.121.712-.189,1.515-.273s1.515.068,1.56-.068-.644-.545-1.613-.439S433.226,443.579,433.317,443.685Z" transform="translate(-329.481 -183.861)" fill="#263238"/>
      <path id="Trazado_188027" data-name="Trazado 188027" d="M438.335,433.275l.53,15.445s-15.513,5.727-15.695,8.59l29.981.045.159-24.1Z" transform="translate(-327.023 -181.526)" fill="#8668c8"/>
      <path id="Trazado_188028" data-name="Trazado 188028" d="M455.666,451.975a1.22,1.22,0,0,1,.848,1.4,1.174,1.174,0,0,1-1.379.848,1.288,1.288,0,0,1-.886-1.515,1.22,1.22,0,0,1,1.515-.757" transform="translate(-334.553 -186.046)" fill="#e0e0e0"/>
      <path id="Trazado_188029" data-name="Trazado 188029" d="M453.147,464.292l-.076-2.431-28.716.864s-1.341.576-1.189,1.515Z" transform="translate(-327.019 -188.462)" fill="#263238"/>
      <path id="Trazado_188030" data-name="Trazado 188030" d="M443.25,453.428c0,.144.758.212,1.454.682s1.106,1.091,1.242,1.03-.083-.9-.962-1.454S443.219,453.292,443.25,453.428Z" transform="translate(-331.892 -186.385)" fill="#263238"/>
      <path id="Trazado_188031" data-name="Trazado 188031" d="M439.1,455.162c-.038.144.6.394,1.1,1.007s.636,1.28.757,1.273.242-.833-.386-1.591S439.1,455.026,439.1,455.162Z" transform="translate(-330.886 -186.824)" fill="#263238"/>
      <path id="Trazado_188032" data-name="Trazado 188032" d="M436.369,459.327c.136.038.341-.7,0-1.515s-1.06-1.121-1.121-1,.356.553.651,1.212S436.225,459.311,436.369,459.327Z" transform="translate(-329.951 -187.232)" fill="#263238"/>
      <path id="Trazado_188033" data-name="Trazado 188033" d="M443.608,448.636c.061.136.757-.068,1.56,0s1.47.318,1.515.2-.545-.651-1.515-.7S443.532,448.522,443.608,448.636Z" transform="translate(-331.978 -185.131)" fill="#263238"/>
      <path id="Trazado_188034" data-name="Trazado 188034" d="M456.311,274.47l-.144,15.286-3.712,47.524s1.826,23.088,2.962,36.117c.985,11.309-.947,31-.947,31l-19.081-.174L429.133,338.5l-3.856-40.995-6.817-21.353Z" transform="translate(-325.881 -143.017)" fill="#263238"/>
      <path id="Trazado_188035" data-name="Trazado 188035" d="M406.221,278.863l-.151,62.076a25.965,25.965,0,0,0,1.674,9.264L424.9,395.576l.864,3.03,11.423-2.659L429.575,275Z" transform="translate(-322.876 -143.145)" fill="#263238"/>
      <path id="Trazado_188036" data-name="Trazado 188036" d="M427.618,294.22a1.868,1.868,0,0,0,0,.3c0,.212,0,.5,0,.871,0,.758.038,1.916.061,3.363.053,2.916.2,7.135.432,12.355.485,10.423,1.424,24.815,2.954,40.654s3.2,30.155,4.416,40.51c.629,5.158,1.136,9.34,1.515,12.249.182,1.432.326,2.545.424,3.333.045.364.091.651.114.864a1.428,1.428,0,0,0,.053.3,1.807,1.807,0,0,0,0-.3c0-.212-.045-.5-.083-.871-.083-.757-.2-1.9-.356-3.333-.326-2.916-.8-7.105-1.379-12.271-1.174-10.362-2.825-24.664-4.325-40.51s-2.515-30.216-3.03-40.631c-.265-5.211-.455-9.431-.545-12.347-.061-1.439-.106-2.568-.136-3.356a4.779,4.779,0,0,0-.045-.879A1.461,1.461,0,0,0,427.618,294.22Z" transform="translate(-328.1 -147.806)" fill="#455a64"/>
      <path id="Trazado_188037" data-name="Trazado 188037" d="M449.359,280a2.274,2.274,0,0,0,.076.7,10.275,10.275,0,0,0,.523,1.848,12.188,12.188,0,0,0,9.438,7.726,10.3,10.3,0,0,0,1.916.144,2.083,2.083,0,0,0,.7-.068c0-.061-1,0-2.568-.326a12.635,12.635,0,0,1-9.249-7.575C449.571,280.954,449.427,279.954,449.359,280Z" transform="translate(-333.374 -144.357)" fill="#455a64"/>
      <path id="Trazado_188038" data-name="Trazado 188038" d="M426.12,283.257a.985.985,0,1,0,.992-.977A.985.985,0,0,0,426.12,283.257Z" transform="translate(-327.738 -144.911)" fill="#455a64"/>
      <path id="Trazado_188039" data-name="Trazado 188039" d="M405.849,290.045a6.31,6.31,0,0,0,1.356-1.25,15.081,15.081,0,0,0,2.439-3.734,15.271,15.271,0,0,0,1.242-4.28,6.18,6.18,0,0,0,.061-1.841c-.061,0-.106.7-.311,1.8a17.68,17.68,0,0,1-3.621,7.885C406.311,289.507,405.811,290,405.849,290.045Z" transform="translate(-322.822 -144.101)" fill="#455a64"/>
      <path id="Trazado_188040" data-name="Trazado 188040" d="M412.056,176.46s-5.3,4.265-7.355,9.029a103.84,103.84,0,0,1-6.113,11.271l-4.1-13.877-10.37,5.158s3.583,21.778,4.4,24.323c1.121,3.522,3.719,6.658,7.7,6.219s6.3-2.272,8.855-6.06l3.424-6.431Z" transform="translate(-317.553 -119.247)" fill="#8668c8"/>
      <path id="Trazado_188041" data-name="Trazado 188041" d="M443.256,163.84s15.059,7.12,18.255,11.438c3.878,5.242-6.325,22.361-7.052,26.58-.356,2.022-2.6,17.24-1.219,29.186a204.977,204.977,0,0,1,1.3,23.936L406.268,251.9c-.144-8.408,1.924-14.93,3.189-25.626l3.03-34.89,4.939-17.99,7.393-3.272Z" transform="translate(-322.922 -116.187)" fill="#8668c8"/>
      <path id="Trazado_188042" data-name="Trazado 188042" d="M414.479,192.43a1.207,1.207,0,0,0-.076.364c-.045.288-.091.644-.152,1.068-.129.924-.288,2.272-.477,3.931-.379,3.318-.856,7.916-1.3,13s-.757,9.688-.985,13.021c-.106,1.666-.174,3.03-.212,3.954a9.186,9.186,0,0,1-.038,1.076,1.8,1.8,0,0,0,0,.379,1.274,1.274,0,0,0,.068-.371c0-.288.061-.644.106-1.076.083-.985.2-2.318.333-3.939.288-3.386.674-7.954,1.1-13.014s.879-9.62,1.189-13c.144-1.629.265-2.962.356-3.946,0-.432.061-.758.083-1.076A1.159,1.159,0,0,0,414.479,192.43Z" transform="translate(-324.126 -123.12)" fill="#263238"/>
      <path id="Trazado_188043" data-name="Trazado 188043" d="M463.5,192.218c.068,0,0-1,.288-2.568a12.6,12.6,0,0,1,7.363-9.309c1.454-.636,2.447-.8,2.431-.871a2.379,2.379,0,0,0-.7.083,10.259,10.259,0,0,0-1.833.545,12.082,12.082,0,0,0-7.529,9.514,10.217,10.217,0,0,0-.106,1.909,2.417,2.417,0,0,0,.083.7Z" transform="translate(-336.782 -119.977)" fill="#263238"/>
      <path id="Trazado_188044" data-name="Trazado 188044" d="M421.62,246.258a5.045,5.045,0,0,0,.939-.151,22.531,22.531,0,0,0,2.5-.667,30.908,30.908,0,0,0,3.583-1.424,33.4,33.4,0,0,0,4.09-2.341,32.645,32.645,0,0,0,3.681-2.954,29.527,29.527,0,0,0,2.636-2.8,23.479,23.479,0,0,0,1.515-2.091,4.229,4.229,0,0,0,.485-.818c-.061,0-.811,1.091-2.235,2.734a33.05,33.05,0,0,1-10.355,7.961,34.78,34.78,0,0,1-3.515,1.515C422.923,245.88,421.6,246.19,421.62,246.258Z" transform="translate(-326.647 -132.962)" fill="#263238"/>
      <g id="Grupo_124298" data-name="Grupo 124298" transform="translate(125.159 82.308)" opacity="0.3">
        <path id="Trazado_188045" data-name="Trazado 188045" d="M465.462,209.59c3.416,18.43,2.166,37.98-2.272,56.182l-1.235-.083C460.614,247.017,462.144,228.027,465.462,209.59Z" transform="translate(-461.47 -209.59)"/>
      </g>
      <path id="Trazado_188046" data-name="Trazado 188046" d="M462.854,288.57l-.288,4.212a24.575,24.575,0,0,0-4.34,2.939c-1.136,1.2-4.416,7.537-4.416,7.537a1.773,1.773,0,0,0,2.272.121A26.749,26.749,0,0,0,458.408,300h0a1.81,1.81,0,0,1,2.151,2.151c-.4,1.886-.864,4.083-.871,4.378a22.474,22.474,0,0,1-3.242,3.447,1.2,1.2,0,0,0,1.015,2.06.561.561,0,0,0,.28-.151s-.129,2.007,2.6.364c0,0,2.447.553,3.621-.856,0,0,3.03-.47,4.06-1.356s3.287-10.006,3.287-10.006l1.235-9.7Z" transform="translate(-334.454 -146.436)" fill="#bd8c83"/>
      <path id="Trazado_188047" data-name="Trazado 188047" d="M464.583,307.8a5.824,5.824,0,0,1,0,1.651,8.628,8.628,0,0,1-1.129,3.787,7.673,7.673,0,0,1-3.03,2.538,5.424,5.424,0,0,1-1.515.621,7.117,7.117,0,0,1,1.348-.886,8.6,8.6,0,0,0,2.81-2.507,9.846,9.846,0,0,0,1.189-3.636A7.348,7.348,0,0,1,464.583,307.8Z" transform="translate(-335.69 -151.1)" fill="#896360"/>
      <path id="Trazado_188048" data-name="Trazado 188048" d="M467.532,309.21a3.173,3.173,0,0,1,.068,1.515,10.955,10.955,0,0,1-.28,1.613,5.134,5.134,0,0,1-.826,1.856,8.829,8.829,0,0,1-1.515,1.341l-1.28.939a4.759,4.759,0,0,1-1.25.757c-.038-.045.371-.432,1.061-1.023.341-.3.758-.651,1.227-1.023a9.649,9.649,0,0,0,1.394-1.3,4.992,4.992,0,0,0,.758-1.7c.167-.576.28-1.106.364-1.553C467.471,309.808,467.471,309.218,467.532,309.21Z" transform="translate(-336.548 -151.442)" fill="#896360"/>
      <path id="Trazado_188049" data-name="Trazado 188049" d="M470.992,311.1c.167,0-.227,1.667-.826,3.583a1.651,1.651,0,0,1-.447.689,5.951,5.951,0,0,1-.523.477,6.5,6.5,0,0,1-.977.659c-.591.326-1.007.4-1.03.348s.348-.227.871-.606a9.912,9.912,0,0,0,.879-.7c.159-.144.326-.3.477-.462a1.4,1.4,0,0,0,.348-.53c.3-.977.6-1.833.818-2.462A4.282,4.282,0,0,1,470.992,311.1Z" transform="translate(-337.698 -151.9)" fill="#896360"/>
      <path id="Trazado_188050" data-name="Trazado 188050" d="M475.189,178.94s5.931,7.12,6.06,13.006,2,43.934,2,43.934l-7.575,31.814-13.013-3.03,4.045-33.519-.939-28.989Z" transform="translate(-336.6 -119.849)" fill="#8668c8"/>
      <path id="Trazado_188051" data-name="Trazado 188051" d="M475.639,274.6a.993.993,0,0,0-.22-.076l-.674-.174-2.591-.651-9.5-2.272.106.159,3.257-25.307c.288-2.31.576-4.545.848-6.742h0c-.311-9.09-.583-17.119-.758-22.884-.114-2.841-.2-5.136-.265-6.749-.038-.757-.068-1.371-.091-1.81v-.47a.441.441,0,0,0,0-.159.642.642,0,0,0,0,.159v2.288c.038,1.613.1,3.9.159,6.749.167,5.772.4,13.779.659,22.884h0c-.28,2.174-.568,4.439-.864,6.749-1.212,9.726-2.318,18.611-3.159,25.315v.129h.121l9.537,2.182,2.6.568.682.144A1.422,1.422,0,0,0,475.639,274.6Z" transform="translate(-336.573 -126.765)" fill="#263238"/>
      <g id="Grupo_124299" data-name="Grupo 124299" transform="translate(92.284 114.228)" opacity="0.3">
        <path id="Trazado_188052" data-name="Trazado 188052" d="M433.924,251.73a42.775,42.775,0,0,1-15.854,3.5c.848,1.235,2.424,1.515,3.916,1.591a12.119,12.119,0,0,0,4.371-.492c2.734-.886,5.946-2.272,7.575-4.6" transform="translate(-418.07 -251.73)"/>
      </g>
      <g id="Grupo_124300" data-name="Grupo 124300" transform="translate(79.738 77.543)" opacity="0.3">
        <path id="Trazado_188053" data-name="Trazado 188053" d="M402.812,203.3a33.563,33.563,0,0,1,.417,10.658,2.2,2.2,0,0,1-.424,1.235.758.758,0,0,1-1.151.083,1.2,1.2,0,0,1-.038-1.068,31.6,31.6,0,0,0,1.2-10.908" transform="translate(-401.508 -203.3)"/>
      </g>
      <path id="Trazado_188054" data-name="Trazado 188054" d="M413.51,121.553c.682-1.636,2.6-2.871,2.719-3.386.326-1.356-.871-2.8-.462-4.121.97-3.121,3.507-2.757,3.507-2.757a10.249,10.249,0,0,1,5.174-3.984c2.735-.757,6.764-1.348,9.226.045s4.28,2.325,5.113,5.037l-16.778,30.7a8.359,8.359,0,0,1-4.03-4.939c-.765-2.045-1.136-4.219-1.977-6.234-.629-1.515,0-3.916-1.379-4.787C412.911,126.03,412.881,123.053,413.51,121.553Z" transform="translate(-324.589 -102.283)" fill="#263238"/>
      <path id="Trazado_188055" data-name="Trazado 188055" d="M420.99,125.783a13.324,13.324,0,0,1,12.877-12.7h.689c7.454.182,11.468,6.613,11.074,14.059l1.06,24.414-12.438,8.673c-4.2,3.265-5.946.757-6-2.386h0l-.121-6.976s-7.188-.871-7.522-8.014C420.437,139.372,420.687,132.237,420.99,125.783Z" transform="translate(-326.388 -103.877)" fill="#bd8c83"/>
      <path id="Trazado_188056" data-name="Trazado 188056" d="M424.18,137.6a1.03,1.03,0,0,0,1.023,1,.977.977,0,0,0,1.015-.962,1.015,1.015,0,0,0-1.015-.992.977.977,0,0,0-1.023.954Z" transform="translate(-327.268 -109.592)" fill="#263238"/>
      <path id="Trazado_188057" data-name="Trazado 188057" d="M423.165,134.525c.136.129.886-.47,1.985-.5s1.924.485,2.038.348-.083-.3-.439-.545a2.787,2.787,0,0,0-1.636-.439,2.666,2.666,0,0,0-1.576.568C423.21,134.222,423.1,134.472,423.165,134.525Z" transform="translate(-327.018 -108.801)" fill="#263238"/>
      <path id="Trazado_188058" data-name="Trazado 188058" d="M437.23,137.6a1.03,1.03,0,0,0,1.023,1,.977.977,0,0,0,1.015-.962,1.007,1.007,0,0,0-1.015-.992.977.977,0,0,0-1.023.954Z" transform="translate(-330.433 -109.592)" fill="#263238"/>
      <path id="Trazado_188059" data-name="Trazado 188059" d="M437.215,134.521c.129.129.9-.447,2-.455s1.909.538,2.03.4-.076-.3-.424-.545a2.773,2.773,0,0,0-1.629-.492,2.682,2.682,0,0,0-1.591.53C437.268,134.218,437.154,134.46,437.215,134.521Z" transform="translate(-330.425 -108.812)" fill="#263238"/>
      <path id="Trazado_188060" data-name="Trazado 188060" d="M431.779,142.183a7.129,7.129,0,0,0-1.8-.258c-.28,0-.545-.068-.6-.258a1.386,1.386,0,0,1,.159-.841c.235-.689.492-1.409.757-2.166a37.358,37.358,0,0,0,1.674-5.651,37.284,37.284,0,0,0-2.129,5.507l-.72,2.174a1.644,1.644,0,0,0-.114,1.106.682.682,0,0,0,.477.394,1.614,1.614,0,0,0,.477.053A7.151,7.151,0,0,0,431.779,142.183Z" transform="translate(-328.429 -108.71)" fill="#263238"/>
      <path id="Trazado_188061" data-name="Trazado 188061" d="M437.123,129.39c.151.28,1.22,0,2.515-.061s2.386.151,2.515-.136c.053-.144-.167-.394-.621-.614a4.135,4.135,0,0,0-1.932-.371,4.2,4.2,0,0,0-1.9.523C437.259,128.989,437.024,129.254,437.123,129.39Z" transform="translate(-330.401 -107.544)" fill="#263238"/>
      <path id="Trazado_188062" data-name="Trazado 188062" d="M422.985,129.66c.227.242,1.076-.045,2.106-.1s1.909.106,2.1-.159c.083-.129-.061-.379-.447-.6a3.378,3.378,0,0,0-3.393.2C422.985,129.281,422.864,129.539,422.985,129.66Z" transform="translate(-326.967 -107.602)" fill="#263238"/>
      <path id="Trazado_188063" data-name="Trazado 188063" d="M438.59,112.88a5.4,5.4,0,0,1-6.295,5.454c-1.212-.2-2.553-.757-3.583-.121s-1.113,2.356-2.075,3.219c-1.371,1.235-3.613.136-5.371.689-1.363.432-2.2,1.75-3.091,2.871s-2.235,2.182-3.606,1.8a16.537,16.537,0,0,1,.477-3.659,5.416,5.416,0,0,1,2.03-3.03c.553-.379,1.212-.614,1.727-1.045,1.121-.939,1.356-2.538,2.038-3.833a5.954,5.954,0,0,1,4.469-3.075c1.56-.182,3.166.258,4.681-.152,1.113-.3,2.083-1.045,3.219-1.28,2.2-.462,4.287,1.091,5.923,2.651" transform="translate(-324.937 -103.283)" fill="#263238"/>
      <path id="Trazado_188064" data-name="Trazado 188064" d="M436.99,116.329c.985-.3,3.03-.977,3.522-1.848a6.06,6.06,0,0,1,5.227-3.121,5,5,0,0,1,4.545,3.878,7.211,7.211,0,0,1,6.257,3.878,8.332,8.332,0,0,1-.091,7.772,4.105,4.105,0,0,0-.758,1.924,4.369,4.369,0,0,0,1.144,2.272,7.512,7.512,0,0,1,.3,6.878c-.932,2.182-1.606,2.954-2.977,3.409-2.682.894-2.984,4.666-4.015,5.727l-1.568-15.453a1.256,1.256,0,0,1-.417.159c-2.651.651-3.083-4.545-2.515-6.06a15.15,15.15,0,0,1-2.719-2.757,11.256,11.256,0,0,1-1.318-5.355C440.664,117.738,436.558,116.458,436.99,116.329Z" transform="translate(-330.367 -103.459)" fill="#263238"/>
      <path id="Trazado_188065" data-name="Trazado 188065" d="M451.808,138.219c.121-.061,4.863-1.621,4.878,3.272s-4.909,3.893-4.916,3.787S451.808,138.219,451.808,138.219Z" transform="translate(-333.959 -109.904)" fill="#bd8c83"/>
      <path id="Trazado_188066" data-name="Trazado 188066" d="M453.739,143.886a1.552,1.552,0,0,0,.227.129.863.863,0,0,0,.636,0,2.106,2.106,0,0,0,.977-1.894,2.9,2.9,0,0,0-.242-1.22.992.992,0,0,0-.644-.651.424.424,0,0,0-.5.235c-.068.136,0,.235-.061.242s-.106-.083-.068-.28a.576.576,0,0,1,.189-.311.659.659,0,0,1,.439-.136,1.219,1.219,0,0,1,.894.757,2.938,2.938,0,0,1,.3,1.363,2.219,2.219,0,0,1-1.242,2.121.924.924,0,0,1-.757-.129C453.746,144.007,453.724,143.893,453.739,143.886Z" transform="translate(-334.435 -110.405)" fill="#896360"/>
      <path id="Trazado_188067" data-name="Trazado 188067" d="M430.54,161.628s6.5-1.106,10.249-4.068c0,0-1.9,6-10.2,6.31Z" transform="translate(-328.81 -114.664)" fill="#896360"/>
      <path id="Trazado_188068" data-name="Trazado 188068" d="M435.356,146c-.182,0-.144,1.2-1.144,2.1s-2.272.8-2.272.977.3.22.841.22a3.03,3.03,0,0,0,1.924-.757,2.628,2.628,0,0,0,.879-1.757C435.583,146.258,435.44,146,435.356,146Z" transform="translate(-329.15 -111.86)" fill="#263238"/>
      <path id="Trazado_188069" data-name="Trazado 188069" d="M427.088,135.375a7.37,7.37,0,0,0-.212-1.045,4.3,4.3,0,0,0-1.583-2.272,4.174,4.174,0,1,0,0,6.681,4.288,4.288,0,0,0,1.583-2.272c.182-.651.174-1.038.212-1.038s0,.091,0,.28a3.228,3.228,0,0,1-.091.8,4.3,4.3,0,0,1-1.568,2.485,4.5,4.5,0,1,1,0-7.12A4.31,4.31,0,0,1,427,134.344a3.318,3.318,0,0,1,.091.8C427.133,135.276,427.133,135.375,427.088,135.375Z" transform="translate(-325.813 -108.204)" fill="#455a64"/>
      <path id="Trazado_188070" data-name="Trazado 188070" d="M441.944,135.4a8.856,8.856,0,0,0-.22-1.091,4.461,4.461,0,0,0-1.659-2.4,4.363,4.363,0,1,0,0,6.976,4.461,4.461,0,0,0,1.659-2.4c.189-.682.174-1.091.22-1.083s0,.1,0,.288a3.538,3.538,0,0,1-.091.833,4.545,4.545,0,0,1-1.636,2.591,4.7,4.7,0,1,1,0-7.431,4.545,4.545,0,0,1,1.636,2.591,3.538,3.538,0,0,1,.091.833C442,135.289,441.959,135.4,441.944,135.4Z" transform="translate(-329.321 -108.149)" fill="#455a64"/>
      <path id="Trazado_188071" data-name="Trazado 188071" d="M432.172,136.921c-.076.083-.53-.235-1.174-.212s-1.091.326-1.167.25,0-.182.235-.341a1.651,1.651,0,0,1,1.863,0C432.134,136.739,432.225,136.883,432.172,136.921Z" transform="translate(-328.631 -109.515)" fill="#455a64"/>
      <path id="Trazado_188072" data-name="Trazado 188072" d="M449.836,138.025a6.968,6.968,0,0,1-2.507-.379,10.483,10.483,0,0,1-2.409-.757,6.884,6.884,0,0,1,2.507.371A10.157,10.157,0,0,1,449.836,138.025Z" transform="translate(-332.298 -109.649)" fill="#455a64"/>
      <path id="Trazado_188073" data-name="Trazado 188073" d="M452.384,206.135c0,.106-8.461.712-18.937,1.341s-18.937,1.053-18.937.947,8.469-.712,18.937-1.341S452.376,206.029,452.384,206.135Z" transform="translate(-324.923 -126.44)" fill="#fff"/>
      <path id="Trazado_188074" data-name="Trazado 188074" d="M481.789,201.159a72.888,72.888,0,0,1-7.643.7c-4.227.273-7.658.409-7.666.3a74.525,74.525,0,0,1,7.643-.7,75.637,75.637,0,0,1,7.666-.311Z" transform="translate(-337.526 -125.236)" fill="#fff"/>
      <path id="Trazado_188075" data-name="Trazado 188075" d="M412.313,202.839a32.336,32.336,0,0,1-6.863-2.129,16.732,16.732,0,0,1,3.492.879,16.226,16.226,0,0,1,3.371,1.25Z" transform="translate(-322.725 -125.128)" fill="#fff"/>
    </g>
    <g id="freepik--Floor--inject-2" transform="translate(52.286 363.771)">
      <path id="Trazado_188076" data-name="Trazado 188076" d="M537.867,465.127c0,.106-107.267.2-239.554.2s-239.584-.091-239.584-.2,107.244-.2,239.584-.2S537.867,464.983,537.867,465.127Z" transform="translate(-58.73 -464.93)" fill="#263238"/>
    </g>
  </g>
</svg>
